G04 DesignSpark PCB Gerber Version 10.0 Build 5299*
G04 #@! TF.Part,Single*
G04 #@! TF.FileFunction,Drillmap*
G04 #@! TF.FilePolarity,Positive*
%FSLAX35Y35*%
%MOMM*%
%ADD93C,0.12700*%
G04 #@! TA.AperFunction,ViaPad*
%ADD92C,2.54000*%
G04 #@! TD.AperFunction*
X0Y0D02*
D02*
D92*
X1562050Y1369300D03*
X2221000D03*
X2627000Y1370000D03*
X2864000Y1369300D03*
X4762050Y1369000D03*
X5025000Y1365000D03*
X5462050Y1369300D03*
X6062000Y1369000D03*
X6562050Y1369300D03*
X10562000D03*
X11107000Y1368900D03*
X11607000D03*
X11662050Y769300D03*
Y1969300D03*
D02*
D93*
X1816050Y1520110D02*
X1855740Y1615360D01*
X1895430Y1520110D01*
X1831930Y1559800D02*
X1879550D01*
X2475000Y1520110D02*
X2514690Y1615360D01*
X2554380Y1520110D01*
X2490880Y1559800D02*
X2538500D01*
X2881000Y1520810D02*
X2920690Y1616060D01*
X2960380Y1520810D01*
X2896880Y1560500D02*
X2944500D01*
X3118000Y1520110D02*
X3157690Y1615360D01*
X3197380Y1520110D01*
X3133880Y1559800D02*
X3181500D01*
X5016050Y1519810D02*
X5055740Y1615060D01*
X5095430Y1519810D01*
X5031930Y1559500D02*
X5079550D01*
X5279000Y1515810D02*
X5318690Y1611060D01*
X5358380Y1515810D01*
X5294880Y1555500D02*
X5342500D01*
X5771610Y1559800D02*
X5795430D01*
Y1551860D01*
X5787490Y1535990D01*
X5779550Y1528050D01*
X5763680Y1520110D01*
X5747800D01*
X5731930Y1528050D01*
X5723990Y1535990D01*
X5716050Y1551860D01*
Y1583610D01*
X5723990Y1599490D01*
X5731930Y1607430D01*
X5747800Y1615360D01*
X5763680D01*
X5779550Y1607430D01*
X5787490Y1599490D01*
X5795430Y1583610D01*
X6316000Y1519810D02*
X6355690Y1615060D01*
X6395380Y1519810D01*
X6331880Y1559500D02*
X6379500D01*
X6816050Y1520110D02*
X6855740Y1615360D01*
X6895430Y1520110D01*
X6831930Y1559800D02*
X6879550D01*
X10871560D02*
X10895380D01*
Y1551860D01*
X10887440Y1535990D01*
X10879500Y1528050D01*
X10863630Y1520110D01*
X10847750D01*
X10831880Y1528050D01*
X10823940Y1535990D01*
X10816000Y1551860D01*
Y1583610D01*
X10823940Y1599490D01*
X10831880Y1607430D01*
X10847750Y1615360D01*
X10863630D01*
X10879500Y1607430D01*
X10887440Y1599490D01*
X10895380Y1583610D01*
X11384810Y1519710D02*
X11416560D01*
X11400690D02*
Y1614960D01*
X11384810D02*
X11416560D01*
X11884810Y1519710D02*
X11916560D01*
X11900690D02*
Y1614960D01*
X11884810D02*
X11916560D01*
X11971610Y959800D02*
X11995430D01*
Y951860D01*
X11987490Y935990D01*
X11979550Y928050D01*
X11963680Y920110D01*
X11947800D01*
X11931930Y928050D01*
X11923990Y935990D01*
X11916050Y951860D01*
Y983610D01*
X11923990Y999490D01*
X11931930Y1007430D01*
X11947800Y1015360D01*
X11963680D01*
X11979550Y1007430D01*
X11987490Y999490D01*
X11995430Y983610D01*
X11971610Y2159800D02*
X11995430D01*
Y2151860D01*
X11987490Y2135990D01*
X11979550Y2128050D01*
X11963680Y2120110D01*
X11947800D01*
X11931930Y2128050D01*
X11923990Y2135990D01*
X11916050Y2151860D01*
Y2183610D01*
X11923990Y2199490D01*
X11931930Y2207430D01*
X11947800Y2215360D01*
X11963680D01*
X11979550Y2207430D01*
X11987490Y2199490D01*
X11995430Y2183610D01*
X0Y0D02*
M02*
