G04 DesignSpark PCB Gerber Version 10.0 Build 5299*
G04 #@! TF.Part,Single*
G04 #@! TF.FileFunction,Soldermask,Top*
G04 #@! TF.FilePolarity,Negative*
%FSLAX35Y35*%
%MOMM*%
G04 #@! TA.AperFunction,SMDPad,CuDef*
%ADD120R,0.36000X0.96000*%
%ADD129R,0.61000X1.96000*%
%ADD116R,0.76000X1.41000*%
%ADD121R,0.96000X0.36000*%
%ADD124R,1.31000X0.76000*%
%ADD125R,1.16000X1.25000*%
%ADD143R,1.76000X0.91000*%
%ADD117R,1.21000X1.01000*%
%ADD119R,1.25000X1.16000*%
%ADD127R,1.76000X1.16000*%
%ADD123R,1.68400X1.55700*%
%ADD128R,1.76000X1.66000*%
%ADD126R,2.86000X1.76000*%
%ADD118R,2.75080X1.76020*%
%ADD144R,3.16000X1.96000*%
%ADD122R,1.96000X1.96000*%
G04 #@! TA.AperFunction,WasherPad*
%ADD28C,2.76000*%
G04 #@! TD.AperFunction*
X0Y0D02*
D02*
D28*
X10562000Y1369300D03*
D02*
D116*
X2867050Y1264000D03*
X2962050Y1474000D03*
X3057050Y1264000D03*
X3367050Y974000D03*
X3462050Y764000D03*
X3557050Y974000D03*
X7367050Y974300D03*
X7462050Y764300D03*
X7557050Y974300D03*
D02*
D117*
X9532050Y1119300D03*
X9892050D03*
D02*
D118*
X9162050Y1199120D03*
Y1539480D03*
D02*
D119*
X2273150Y1069300D03*
Y1669300D03*
X2348150Y1369300D03*
X2450950Y1069300D03*
Y1669300D03*
X2525950Y1369300D03*
X3373150Y1169300D03*
X3550950D03*
X7373150D03*
X7550950D03*
X9573150Y1569300D03*
X9750950D03*
D02*
D120*
X1882050Y1219300D03*
Y1519300D03*
X1922050Y1219300D03*
Y1519300D03*
X1962050Y1219300D03*
Y1519300D03*
X2002050Y1219300D03*
Y1519300D03*
X2042050Y1219300D03*
Y1519300D03*
D02*
D121*
X1812050Y1289300D03*
Y1329300D03*
Y1369300D03*
Y1409300D03*
Y1449300D03*
X2112050Y1289300D03*
Y1329300D03*
Y1369300D03*
Y1409300D03*
Y1449300D03*
D02*
D122*
X1962050Y1369300D03*
D02*
D123*
X1622750Y1069300D03*
Y1669300D03*
X1851350Y1069300D03*
Y1669300D03*
D02*
D124*
X4657050Y1274000D03*
Y1369000D03*
Y1464000D03*
X4917050Y1274000D03*
Y1369000D03*
Y1464000D03*
X5957000Y1274000D03*
Y1369000D03*
Y1464000D03*
X6217000Y1274000D03*
Y1369000D03*
Y1464000D03*
D02*
D125*
X1387050Y1080380D03*
Y1258180D03*
Y1480380D03*
Y1658180D03*
X4487050Y1280100D03*
Y1457900D03*
X5112050Y1280100D03*
Y1457900D03*
X5787050Y1280100D03*
Y1457900D03*
X6412050Y1280100D03*
Y1457900D03*
X7962050Y1280400D03*
Y1458200D03*
X10162050Y1080400D03*
Y1258200D03*
D02*
D126*
X10562000Y1109300D03*
Y1629300D03*
D02*
D127*
X11347000Y1069000D03*
D02*
D128*
X10977000Y1094000D03*
Y1644000D03*
X11347000D03*
X11717000Y1094000D03*
Y1644000D03*
D02*
D129*
X8169550Y1014300D03*
Y1724300D03*
X8234550Y1014300D03*
Y1724300D03*
X8299550Y1014300D03*
Y1724300D03*
X8364550Y1014300D03*
Y1724300D03*
X8429550Y1014300D03*
Y1724300D03*
X8494550Y1014300D03*
Y1724300D03*
X8559550Y1014300D03*
Y1724300D03*
X8624550Y1014300D03*
Y1724300D03*
X8689550Y1014300D03*
Y1724300D03*
X8754550Y1014300D03*
Y1724300D03*
D02*
D143*
X1052050Y1181800D03*
Y1306800D03*
Y1431800D03*
Y1556800D03*
D02*
D144*
X762050Y905750D03*
Y1839200D03*
X0Y0D02*
M02*
