G04 DesignSpark PCB Gerber Version 10.0 Build 5299*
G04 #@! TF.Part,Single*
G04 #@! TF.FileFunction,Copper,L2,Bot*
G04 #@! TF.FilePolarity,Positive*
%FSLAX35Y35*%
%MOMM*%
%ADD10C,0.20000*%
%ADD11C,0.30000*%
%ADD12C,0.38100*%
G04 #@! TA.AperFunction,ViaPad*
%ADD13C,0.60000*%
%ADD14C,2.00000*%
G04 #@! TA.AperFunction,WasherPad*
%ADD17C,2.60000*%
G04 #@! TD.AperFunction*
X0Y0D02*
D02*
D10*
X1773180Y1287280D02*
Y1936280D01*
G75*
G03*
X1573180Y2136280I-200000J0D01*
G01*
X1473130D01*
Y1986980D01*
G75*
G02*
X1469180Y1985930I-2500J1450D01*
G01*
Y2137280D01*
G75*
G02*
X1169180I-150000J17188300D01*
G01*
X1074180D01*
G75*
G03*
X873180Y1936280I0J-201000D01*
G01*
Y1287280D01*
G75*
G03*
X1073180Y1087280I200000J0D01*
G01*
X1573180D01*
G75*
G03*
X1773180Y1287280I0J200000D01*
G01*
G36*
X1773180Y1287280D02*
Y1936280D01*
G75*
G03*
X1573180Y2136280I-200000J0D01*
G01*
X1473130D01*
Y1986980D01*
G75*
G02*
X1469180Y1985930I-2500J1450D01*
G01*
Y2137280D01*
G75*
G02*
X1169180I-150000J17188300D01*
G01*
X1074180D01*
G75*
G03*
X873180Y1936280I0J-201000D01*
G01*
Y1287280D01*
G75*
G03*
X1073180Y1087280I200000J0D01*
G01*
X1573180D01*
G75*
G03*
X1773180Y1287280I0J200000D01*
G01*
G37*
D02*
D11*
X823180Y2137280D02*
Y537280D01*
G75*
G03*
X873180Y487280I50000J0D01*
G01*
X1911210D01*
G75*
G02*
X1811130Y636980I61920J149700D01*
G01*
G75*
G02*
X2135130I162000J0D01*
G01*
G75*
G02*
X2035050Y487280I-162000J0D01*
G01*
X4811210D01*
G75*
G02*
X4711130Y636980I61920J149700D01*
G01*
G75*
G02*
X5023180Y698050I162000J0D01*
G01*
Y1975910D01*
G75*
G02*
X4711130Y2036980I-150050J61070D01*
G01*
G75*
G02*
X4812680Y2187280I162000J0D01*
G01*
X2033580D01*
G75*
G02*
X2135130Y2036980I-60450J-150300D01*
G01*
G75*
G02*
X1811130I-162000J0D01*
G01*
G75*
G02*
X1912680Y2187280I162000J0D01*
G01*
X873180D01*
G75*
G03*
X823180Y2137280I0J-50000D01*
G01*
X3487230Y1336980D02*
G75*
G02*
X3577130I44950J0D01*
G01*
G75*
G02*
X3487230I-44950J0D01*
G01*
X4028180Y1186980D02*
G75*
G02*
X4118080I44950J0D01*
G01*
G75*
G02*
X4028180I-44950J0D01*
G01*
Y1486980D02*
G75*
G02*
X4118080I44950J0D01*
G01*
G75*
G02*
X4028180I-44950J0D01*
G01*
X4128180Y1186980D02*
G75*
G02*
X4218080I44950J0D01*
G01*
G75*
G02*
X4128180I-44950J0D01*
G01*
Y1486980D02*
G75*
G02*
X4218080I44950J0D01*
G01*
G75*
G02*
X4128180I-44950J0D01*
G01*
X4228180Y1186980D02*
G75*
G02*
X4318080I44950J0D01*
G01*
G75*
G02*
X4228180I-44950J0D01*
G01*
Y1486980D02*
G75*
G02*
X4318080I44950J0D01*
G01*
G75*
G02*
X4228180I-44950J0D01*
G01*
X1928180Y1336980D02*
G75*
G02*
X2018080I44950J0D01*
G01*
G75*
G02*
X1928180I-44950J0D01*
G01*
X1573180Y2179060D02*
G75*
G02*
X1815960Y1936280I0J-242780D01*
G01*
Y1287280D01*
G75*
G02*
X1573180Y1044500I-242780J0D01*
G01*
X1073180D01*
G75*
G02*
X830400Y1287280I0J242780D01*
G01*
Y1936280D01*
G75*
G02*
X1074180Y2180060I243780J0D01*
G01*
X1169130D01*
G75*
G02*
X1169550I210J-44400D01*
G01*
G75*
G03*
X1468810I149630J17145900D01*
G01*
G75*
G02*
X1478380Y2179060I370J-42800D01*
G01*
X1573180D01*
X1161130Y736980D02*
G75*
G02*
X1485130I162000J0D01*
G01*
G75*
G02*
X1161130I-162000J0D01*
G01*
X838180D02*
G36*
X838180Y736980D02*
Y502280D01*
X1883120D01*
G75*
G02*
X1811130Y636960I89980J134680D01*
G01*
G75*
G02*
Y636980I190990J10D01*
G01*
G75*
G02*
X1845680Y736980I162000J0D01*
G01*
X1485130D01*
G75*
G02*
X1161130I-162000J0D01*
G01*
X838180D01*
G37*
X2100580D02*
G36*
X2100580Y736980D02*
G75*
G02*
X2135130Y636980I-127450J-100000D01*
G01*
G75*
G02*
Y636960I-190990J-10D01*
G01*
G75*
G02*
X2063140Y502280I-161970J0D01*
G01*
X4783120D01*
G75*
G02*
X4711130Y636960I89980J134680D01*
G01*
G75*
G02*
Y636980I190990J10D01*
G01*
G75*
G02*
Y636990I286480J10D01*
G01*
G75*
G02*
X4745670Y736980I162000J0D01*
G01*
X2100580D01*
G37*
X5000590D02*
G36*
X5000590Y736980D02*
G75*
G02*
X5008180Y726460I-127450J-99950D01*
G01*
Y736980D01*
X5000590D01*
G37*
X838180Y1186980D02*
G36*
X838180Y1186980D02*
Y736980D01*
X1161130D01*
G75*
G02*
X1485130I162000J0D01*
G01*
X1845680D01*
G75*
G02*
X2100580I127450J-100000D01*
G01*
X4745670D01*
G75*
G02*
X5000590I127460J-100000D01*
G01*
X5008180D01*
Y1186980D01*
X4318080D01*
G75*
G02*
X4228180I-44950J0D01*
G01*
X4218080D01*
G75*
G02*
X4128180I-44950J0D01*
G01*
X4118080D01*
G75*
G02*
X4028180I-44950J0D01*
G01*
X1794270D01*
G75*
G02*
X1573180Y1044500I-221100J100310D01*
G01*
X1073180D01*
G75*
G02*
X852090Y1186980I10J242790D01*
G01*
X838180D01*
G37*
Y1226320D02*
G36*
X838180Y1226320D02*
Y1186980D01*
X852090D01*
G75*
G02*
X838180Y1226320I221130J100320D01*
G01*
G37*
X1815960Y1287280D02*
G36*
X1815960Y1287280D02*
G75*
G02*
X1794270Y1186980I-242790J10D01*
G01*
X4028180D01*
G75*
G02*
X4118080I44950J0D01*
G01*
X4128180D01*
G75*
G02*
X4218080I44950J0D01*
G01*
X4228180D01*
G75*
G02*
X4318080I44950J0D01*
G01*
X5008180D01*
Y1336980D01*
X3577130D01*
G75*
G02*
X3487230I-44950J0D01*
G01*
X2018080D01*
G75*
G02*
X1928180I-44950J0D01*
G01*
X1815960D01*
Y1287280D01*
G37*
Y1486980D02*
G36*
X1815960Y1486980D02*
Y1336980D01*
X1928180D01*
G75*
G02*
X2018080I44950J0D01*
G01*
X3487230D01*
G75*
G02*
X3577130I44950J0D01*
G01*
X5008180D01*
Y1486980D01*
X4318080D01*
G75*
G02*
X4228180I-44950J0D01*
G01*
X4218080D01*
G75*
G02*
X4128180I-44950J0D01*
G01*
X4118080D01*
G75*
G02*
X4028180I-44950J0D01*
G01*
X1815960D01*
G37*
X838180Y2172280D02*
G36*
X838180Y2172280D02*
Y1997380D01*
G75*
G02*
X1013080Y2172280I236000J-61100D01*
G01*
X838180D01*
G37*
X1815960Y1936280D02*
G36*
X1815960Y1936280D02*
Y1486980D01*
X4028180D01*
G75*
G02*
X4118080I44950J0D01*
G01*
X4128180D01*
G75*
G02*
X4218080I44950J0D01*
G01*
X4228180D01*
G75*
G02*
X4318080I44950J0D01*
G01*
X5008180D01*
Y1947500D01*
G75*
G02*
X4711130Y2036970I-135050J89470D01*
G01*
G75*
G02*
Y2036980I572960J10D01*
G01*
G75*
G02*
X4784040Y2172280I162030J-20D01*
G01*
X2062230D01*
G75*
G02*
X2135130Y2036980I-89100J-135300D01*
G01*
G75*
G02*
X1811130I-162000J0D01*
G01*
G75*
G02*
X1884040Y2172280I162030J-20D01*
G01*
X1630150D01*
G75*
G02*
X1815960Y1936280I-56980J-236010D01*
G01*
G37*
D02*
D12*
X1323130Y1981980D02*
Y1482730D01*
X1323580Y1482280D01*
X3532180Y1336980D02*
X1973130D01*
X4073130Y1486980D02*
Y1377230D01*
X4036180Y1340280D01*
X3535480D01*
X3532180Y1336980D01*
D02*
D13*
X1973130D03*
X3532180D03*
X4073130Y1186980D03*
Y1486980D03*
X4173130Y1186980D03*
Y1486980D03*
X4273130Y1186980D03*
Y1486980D03*
D02*
D14*
X1323130Y1981980D03*
X1323580Y1482280D03*
D02*
D17*
X1323130Y736980D03*
X1973130Y636980D03*
Y2036980D03*
X4873130Y636980D03*
Y2036980D03*
X0Y0D02*
M02*
