G05
M48
METRIC,TZ
FMAT,2
T1C000.30000
T2C001.40000
T3C002.00000
T4C005.20000
%
T001
X18.79050Y20.19300
X18.79050Y29.19300
X18.79050Y38.19300
X18.79050Y47.19300
X19.79000Y13.57000
X26.24000Y9.68000
X26.24000Y15.79000
X28.79050Y20.19300
X28.79050Y29.19300
X28.79050Y38.19300
X28.79050Y47.19300
X30.42000Y9.65000
X30.42000Y14.56000
X35.24000Y9.68000
X35.24000Y15.79000
X38.79050Y20.19300
X38.79050Y29.19300
X38.79050Y38.19300
X38.79050Y47.19300
X39.42000Y9.65000
X39.42000Y14.56000
X44.24000Y9.68000
X44.24000Y15.79000
X48.42000Y9.65000
X48.42000Y14.56000
X48.79050Y20.19300
X48.79050Y29.19300
X48.79050Y38.19300
X48.79050Y47.19300
X53.24000Y9.68000
X53.24000Y15.79000
X57.42000Y9.65000
X57.42050Y14.56300
X58.79050Y20.19300
X58.79050Y29.19300
X58.79050Y38.19300
X58.79050Y47.19300
X58.95000Y11.11500
X58.95000Y13.07000
X58.95000Y14.34000
X58.95000Y15.63000
X59.45000Y10.48000
X59.45000Y11.75000
X59.45000Y13.70500
X59.45000Y14.97500
X65.22000Y9.77000
X68.79050Y20.19300
X68.79050Y29.19300
X68.79050Y38.19300
X68.79050Y47.19300
X69.34000Y15.64000
X78.79050Y20.19300
X78.79050Y29.19300
X78.79050Y38.19300
X78.79050Y47.19300
X86.19050Y13.19300
X88.79050Y20.19300
X88.79050Y29.19300
X88.79050Y38.19300
X88.79050Y47.19300
X92.29000Y17.19300
X97.79050Y13.19300
X101.09050Y29.19300
T002
X79.78550Y13.24700
X79.79000Y8.25000
T003
X8.29050Y7.69300
X8.29050Y50.69300
X91.29050Y7.69300
X91.29050Y50.69300
X97.79000Y17.19000
T004
X97.79050Y9.19300
X97.79050Y49.19300
M30
