G04 DesignSpark PCB Gerber Version 10.0 Build 5299*
G04 #@! TF.Part,Single*
G04 #@! TF.FileFunction,Copper,L1,Top*
G04 #@! TF.FilePolarity,Positive*
%FSLAX35Y35*%
%MOMM*%
G04 #@! TA.AperFunction,SMDPad,CuDef*
%ADD121R,0.60000X1.05000*%
%ADD82R,1.00000X1.09000*%
%ADD105R,1.40000X2.30000*%
%ADD123R,1.50000X2.00000*%
%ADD107R,1.60000X2.70000*%
%ADD106R,1.80000X1.80000*%
G04 #@! TD.AperFunction*
%ADD10C,0.20000*%
%ADD21C,0.25000*%
%ADD16C,0.25400*%
%ADD11C,0.30000*%
%ADD12C,0.38100*%
%ADD24C,0.50000*%
G04 #@! TA.AperFunction,ViaPad*
%ADD13C,0.60000*%
G04 #@! TD.AperFunction*
%ADD22C,1.00000*%
G04 #@! TA.AperFunction,ViaPad*
%ADD14C,2.00000*%
%ADD114C,2.40000*%
G04 #@! TA.AperFunction,WasherPad*
%ADD17C,2.60000*%
G04 #@! TA.AperFunction,SMDPad,CuDef*
%ADD120R,1.80000X0.45000*%
%ADD76R,1.15000X0.60000*%
%ADD122R,1.52500X0.70000*%
%ADD77R,1.05000X0.85000*%
%ADD78R,1.09000X1.00000*%
%ADD124R,2.59080X1.60020*%
G04 #@! TD.AperFunction*
X0Y0D02*
D02*
D10*
X7617000Y1186000D02*
X7782650D01*
X7808650Y1160000D01*
Y1003000D01*
X7772650Y967000D01*
X7616950D01*
X7595000Y988950D01*
Y1167000D01*
X7617000Y1186000D01*
G36*
X7617000Y1186000D02*
X7782650D01*
X7808650Y1160000D01*
Y1003000D01*
X7772650Y967000D01*
X7616950D01*
X7595000Y988950D01*
Y1167000D01*
X7617000Y1186000D01*
G37*
X7618000Y842000D02*
X7845000D01*
X7943000Y940000D01*
X8046000D01*
X8072000Y914000D01*
Y672000D01*
X8028000Y628000D01*
X7618000D01*
Y842000D01*
G36*
X7618000Y842000D02*
X7845000D01*
X7943000Y940000D01*
X8046000D01*
X8072000Y914000D01*
Y672000D01*
X8028000Y628000D01*
X7618000D01*
Y842000D01*
G37*
X7620000Y1638000D02*
X7593000Y1615980D01*
Y1374750D01*
X7612950Y1357750D01*
X7788130D01*
X7809130Y1378750D01*
Y1617980D01*
X7786000Y1638000D01*
X7620000D01*
G36*
X7620000Y1638000D02*
X7593000Y1615980D01*
Y1374750D01*
X7612950Y1357750D01*
X7788130D01*
X7809130Y1378750D01*
Y1617980D01*
X7786000Y1638000D01*
X7620000D01*
G37*
X8180000Y1642980D02*
X8145950Y1618980D01*
Y1374750D01*
X8162950Y1357750D01*
X8304000D01*
X8325000Y1378750D01*
Y1620980D01*
X8295000Y1642980D01*
X8180000D01*
G36*
X8180000Y1642980D02*
X8145950Y1618980D01*
Y1374750D01*
X8162950Y1357750D01*
X8304000D01*
X8325000Y1378750D01*
Y1620980D01*
X8295000Y1642980D01*
X8180000D01*
G37*
X8392000Y877000D02*
X8159000D01*
X8135000Y853000D01*
Y642700D01*
X8152000Y625700D01*
X8364000D01*
X8399000Y657700D01*
Y870000D01*
X8392000Y877000D01*
G36*
X8392000Y877000D02*
X8159000D01*
X8135000Y853000D01*
Y642700D01*
X8152000Y625700D01*
X8364000D01*
X8399000Y657700D01*
Y870000D01*
X8392000Y877000D01*
G37*
X9579000Y3119000D02*
G75*
G02*
X9779000Y3319000I200000J0D01*
G01*
X10179000D01*
G75*
G02*
X10379000Y3119000I0J-200000D01*
G01*
Y2719000D01*
G75*
G02*
X10179000Y2519000I-200000J0D01*
G01*
X9779000D01*
G75*
G02*
X9579000Y2719000I0J200000D01*
G01*
Y3119000D01*
G36*
X9579000Y3119000D02*
G75*
G02*
X9779000Y3319000I200000J0D01*
G01*
X10179000D01*
G75*
G02*
X10379000Y3119000I0J-200000D01*
G01*
Y2719000D01*
G75*
G02*
X10179000Y2519000I-200000J0D01*
G01*
X9779000D01*
G75*
G02*
X9579000Y2719000I0J200000D01*
G01*
Y3119000D01*
G37*
D02*
D11*
X684050Y5023700D02*
Y814900D01*
G75*
G02*
X981050Y769300I145000J-45600D01*
G01*
G75*
G02*
X874650Y624300I-152000J0D01*
G01*
X1598230D01*
X1565800Y656730D01*
G75*
G02*
X1552000Y690000I33200J33270D01*
G01*
Y1032000D01*
G75*
G02*
X1565800Y1065270I47000J0D01*
G01*
X1589530Y1089000D01*
G75*
G02*
X1622800Y1102800I33270J-33200D01*
G01*
X1642000D01*
Y1258750D01*
X1437200D01*
G75*
G02*
X1401090Y1273710I0J51050D01*
G01*
X1356910Y1317890D01*
G75*
G02*
X1341950Y1354000I36090J36110D01*
G01*
Y1437300D01*
X1303650D01*
Y1601300D01*
X1473050D01*
Y1609700D01*
X1662850D01*
Y1428900D01*
X1473050D01*
Y1437300D01*
X1444050D01*
Y1375150D01*
X1458350Y1360850D01*
X1642000D01*
Y1376800D01*
X1858500D01*
Y1233850D01*
X1897050D01*
Y1294700D01*
X1927970D01*
X1927960Y1321800D01*
G75*
G02*
X1917000Y1357000I51040J35200D01*
G01*
G75*
G02*
X2041000I62000J0D01*
G01*
G75*
G02*
X2030060Y1321830I-62010J0D01*
G01*
X2030070Y1294700D01*
X2061050D01*
Y1125300D01*
X2069450D01*
Y935500D01*
X1888650D01*
Y1125300D01*
X1897050D01*
Y1131750D01*
X1858500D01*
Y1004200D01*
X1866900D01*
Y853400D01*
X1646000D01*
Y709470D01*
X1679470Y676000D01*
X6905530D01*
X6919000Y689470D01*
Y981530D01*
X6906050Y994480D01*
Y922300D01*
X6662050D01*
Y927950D01*
X6569000D01*
Y851300D01*
X6604450D01*
Y687300D01*
X6435050D01*
Y678900D01*
X6245250D01*
Y859700D01*
X6435050D01*
Y851300D01*
X6466900D01*
Y948570D01*
G75*
G02*
X6554090Y1030050I55100J28430D01*
G01*
X6662050D01*
Y1616300D01*
X6900700D01*
G75*
G02*
X6988370Y1593800I33300J-52300D01*
G01*
X7133550D01*
Y1444800D01*
X7034920D01*
G75*
G02*
X7018180I-8370J51970D01*
G01*
X6964550D01*
Y1452100D01*
X6944120D01*
X6958610Y1437610D01*
G75*
G02*
X6971700Y1406000I-31610J-31610D01*
G01*
Y1216520D01*
X6983520Y1204700D01*
X7059100D01*
Y1409900D01*
X7364320D01*
X7364330Y1444800D01*
X7324550D01*
Y1593800D01*
X7493550D01*
Y1444800D01*
X7453730D01*
X7453700Y1322990D01*
Y1204700D01*
X7573200D01*
X7589000Y1218340D01*
G75*
G02*
X7617000Y1228780I28010J-32340D01*
G01*
X7782650D01*
G75*
G02*
X7812940Y1216210I0J-42780D01*
G01*
X7838860Y1190290D01*
G75*
G02*
X7851430Y1160000I-30210J-30290D01*
G01*
Y1003000D01*
G75*
G02*
X7848670Y987890I-42770J10D01*
G01*
X7887390Y1026610D01*
G75*
G02*
X7919060Y1039700I31610J-31620D01*
G01*
X8065940D01*
G75*
G02*
X8097610Y1026610I60J-44710D01*
G01*
X8138250Y985970D01*
Y1225150D01*
X8331300D01*
Y1254000D01*
G75*
G02*
X8344390Y1285610I44700J0D01*
G01*
X8361390Y1302610D01*
G75*
G02*
X8393060Y1315700I31610J-31620D01*
G01*
X8397050D01*
Y1444700D01*
X8434310D01*
X8434300Y1461130D01*
Y1675780D01*
X8405480Y1704600D01*
X7557520D01*
X7514310Y1661390D01*
G75*
G02*
X7482640Y1648300I-31610J31620D01*
G01*
X6581520D01*
X6425700Y1492480D01*
Y1289800D01*
G75*
G02*
X6412610Y1258190I-44700J0D01*
G01*
X6359610Y1205190D01*
G75*
G02*
X6327940Y1192100I-31610J31620D01*
G01*
X6196050D01*
Y1039700D01*
X6204450D01*
Y913900D01*
X5943650D01*
Y986010D01*
G75*
G02*
X5883000Y1048000I1350J61990D01*
G01*
G75*
G02*
X5883060Y1050660I62000J-70D01*
G01*
G75*
G02*
Y1172340I11940J60840D01*
G01*
G75*
G02*
X5883000Y1175000I61940J2730D01*
G01*
G75*
G02*
X5952050Y1236600I62000J0D01*
G01*
Y1262300D01*
X5937960D01*
G75*
G02*
X5833000Y1307000I-42960J44700D01*
G01*
G75*
G02*
X5883060Y1367840I62000J0D01*
G01*
G75*
G02*
X5883000Y1370500I61940J2730D01*
G01*
G75*
G02*
X5883060Y1373160I62000J-70D01*
G01*
G75*
G02*
Y1494840I11940J60840D01*
G01*
G75*
G02*
X5883000Y1497500I61940J2730D01*
G01*
G75*
G02*
X5883170Y1502140I62030J50D01*
G01*
G75*
G02*
X5833000Y1563000I11830J60860D01*
G01*
G75*
G02*
X5937960Y1607700I62000J0D01*
G01*
X5952050D01*
Y1616300D01*
X6196050D01*
Y1281500D01*
X6309480D01*
X6336300Y1308320D01*
Y1511000D01*
G75*
G02*
X6349390Y1542610I44700J0D01*
G01*
X6436080Y1629300D01*
X5943600D01*
G75*
G02*
X5934000Y1630300I-200J44670D01*
G01*
X5711000D01*
Y1509960D01*
G75*
G02*
X5791950Y1419500I31050J-53670D01*
G01*
Y1380100D01*
G75*
G02*
X5740900Y1329050I-51050J0D01*
G01*
X5711000D01*
Y1293600D01*
X5547000D01*
Y1466600D01*
X5680910D01*
G75*
G02*
X5681920Y1471400I61140J-10360D01*
G01*
X5547000D01*
Y1527950D01*
X5486000D01*
Y1494500D01*
X5362000D01*
Y1530010D01*
G75*
G02*
X5296000Y1523680I-38000J48990D01*
G01*
Y1494500D01*
X5172000D01*
Y1630300D01*
X5111000D01*
Y1471400D01*
X4966700D01*
Y1466600D01*
X5111000D01*
Y1441000D01*
X5267000D01*
Y1443500D01*
X5391000D01*
Y1412670D01*
G75*
G02*
Y1305330I-62010J-53670D01*
G01*
Y1274500D01*
X5267000D01*
Y1277000D01*
X5050100D01*
G75*
G02*
X5000630Y1293600I0J82010D01*
G01*
X4966700D01*
Y1144400D01*
X5111000D01*
Y971400D01*
X4947000D01*
Y1019540D01*
G75*
G02*
X4936390Y1027390I20990J39470D01*
G01*
X4890390Y1073390D01*
G75*
G02*
X4877300Y1105000I31610J31610D01*
G01*
Y1341120D01*
G75*
G02*
X4842000Y1326950I-35300J36880D01*
G01*
X4811000D01*
Y1293600D01*
X4647000D01*
Y1466600D01*
X4780910D01*
G75*
G02*
X4781940Y1471400I61100J-10600D01*
G01*
X4647000D01*
Y1527950D01*
X4586000D01*
Y1494500D01*
X4462000D01*
Y1530010D01*
G75*
G02*
X4396000Y1523680I-38000J48990D01*
G01*
Y1494500D01*
X4272000D01*
Y1639300D01*
X4211000D01*
Y1471400D01*
X4069700D01*
Y1466600D01*
X4211000D01*
Y1441000D01*
X4367000D01*
Y1443500D01*
X4491000D01*
Y1412670D01*
G75*
G02*
Y1305330I-62010J-53670D01*
G01*
Y1274500D01*
X4367000D01*
Y1277000D01*
X4150100D01*
G75*
G02*
X4100630Y1293600I0J82010D01*
G01*
X4069700D01*
Y1144400D01*
X4211000D01*
Y971400D01*
X4047000D01*
Y1009230D01*
G75*
G02*
X4028390Y1020390I13000J42770D01*
G01*
X3993390Y1055390D01*
G75*
G02*
X3980300Y1087000I31610J31610D01*
G01*
Y1344250D01*
G75*
G02*
X3942000Y1326950I-38300J33750D01*
G01*
X3911000D01*
Y1293600D01*
X3747000D01*
Y1466600D01*
X3880910D01*
G75*
G02*
X3881940Y1471400I61100J-10600D01*
G01*
X3747000D01*
Y1527950D01*
X3686000D01*
Y1494500D01*
X3562000D01*
Y1530010D01*
G75*
G02*
X3496000Y1523680I-38000J48990D01*
G01*
Y1494500D01*
X3372000D01*
Y1635300D01*
X3311000D01*
Y1471400D01*
X3164700D01*
Y1466600D01*
X3311000D01*
Y1441000D01*
X3467000D01*
Y1443500D01*
X3591000D01*
Y1412670D01*
G75*
G02*
Y1305330I-62010J-53670D01*
G01*
Y1274500D01*
X3467000D01*
Y1277000D01*
X3250100D01*
G75*
G02*
X3200630Y1293600I0J82010D01*
G01*
X3164700D01*
Y1144400D01*
X3311000D01*
Y971400D01*
X3147000D01*
Y1028580D01*
G75*
G02*
X3120390Y1041390I5000J44420D01*
G01*
X3088390Y1073390D01*
G75*
G02*
X3075300Y1105000I31610J31610D01*
G01*
Y1339310D01*
G75*
G02*
X3042000Y1326950I-33310J38690D01*
G01*
X3011000D01*
Y1293600D01*
X2847000D01*
Y1466600D01*
X2980910D01*
G75*
G02*
X2981940Y1471400I61100J-10600D01*
G01*
X2847000D01*
Y1527950D01*
X2786000D01*
Y1494500D01*
X2662000D01*
Y1530010D01*
G75*
G02*
X2596000Y1523680I-38000J48990D01*
G01*
Y1494500D01*
X2472000D01*
Y1663500D01*
X2596000D01*
Y1634320D01*
G75*
G02*
X2662000Y1627990I28000J-55320D01*
G01*
Y1663500D01*
X2786000D01*
Y1630050D01*
X2847000D01*
Y1644400D01*
X3011000D01*
Y1509690D01*
G75*
G02*
X3075300Y1508300I31000J-53690D01*
G01*
Y1665000D01*
G75*
G02*
X3088390Y1696610I44700J0D01*
G01*
X3152390Y1760610D01*
G75*
G02*
X3184060Y1773700I31610J-31620D01*
G01*
X3817480D01*
X3834350Y1790570D01*
Y1872300D01*
X3632050D01*
Y1897300D01*
X3396550D01*
Y2141300D01*
X3632050D01*
Y2166300D01*
X3836050D01*
Y2101300D01*
X3879050D01*
G75*
G02*
X3923750Y1950560I0J-82000D01*
G01*
Y1772050D01*
G75*
G02*
X3910660Y1740440I-44700J0D01*
G01*
X3894920Y1724700D01*
X3935480D01*
X4021390Y1810610D01*
G75*
G02*
X4053060Y1823700I31610J-31620D01*
G01*
X4744480D01*
X4793080Y1872300D01*
X4632050D01*
Y1897300D01*
X4396550D01*
Y2141300D01*
X4632050D01*
Y2166300D01*
X4836050D01*
Y2101300D01*
X4879050D01*
G75*
G02*
X4932750Y1957330I0J-82000D01*
G01*
Y1904050D01*
G75*
G02*
X4919660Y1872440I-44700J0D01*
G01*
X4914920Y1867700D01*
X5804480D01*
X5809080Y1872300D01*
X5632050D01*
Y1897300D01*
X5396550D01*
Y2141300D01*
X5632050D01*
Y2166300D01*
X5836050D01*
Y2101300D01*
X5879050D01*
G75*
G02*
X5913700Y1944980I0J-82000D01*
G01*
Y1869000D01*
G75*
G02*
X5900610Y1837390I-44700J0D01*
G01*
X5883920Y1820700D01*
X6385480D01*
X6439390Y1874610D01*
G75*
G02*
X6471060Y1887700I31610J-31620D01*
G01*
X6632050D01*
Y1897300D01*
X6396550D01*
Y2141300D01*
X6632050D01*
Y2166300D01*
X6836050D01*
Y2101300D01*
X6879050D01*
G75*
G02*
X6923750Y1950560I0J-82000D01*
G01*
Y1867050D01*
G75*
G02*
X6912760Y1837700I-44700J10D01*
G01*
X7350480D01*
X7399390Y1886610D01*
G75*
G02*
X7416550Y1897300I31600J-31610D01*
G01*
X7396550D01*
Y2141300D01*
X7632050D01*
Y2166300D01*
X7836050D01*
Y2101300D01*
X7879050D01*
G75*
G02*
X7923750Y1950560I0J-82000D01*
G01*
Y1877050D01*
G75*
G02*
X7912760Y1847700I-44700J10D01*
G01*
X8806480D01*
X8831080Y1872300D01*
X8632050D01*
Y1897300D01*
X8396550D01*
Y2141300D01*
X8632050D01*
Y2166300D01*
X8836050D01*
Y2101300D01*
X8879050D01*
G75*
G02*
X8930700Y1955610I0J-82000D01*
G01*
Y1864000D01*
G75*
G02*
X8917610Y1832390I-44700J0D01*
G01*
X8856610Y1771390D01*
G75*
G02*
X8824940Y1758300I-31610J31620D01*
G01*
X8478220D01*
X8510610Y1725910D01*
G75*
G02*
X8523700Y1694300I-31610J-31610D01*
G01*
Y1461170D01*
X8523710Y1444700D01*
X8561050D01*
Y1341210D01*
G75*
G02*
X8568000Y1354480I57980J-21910D01*
G01*
Y1533000D01*
G75*
G02*
X8582960Y1569110I51050J0D01*
G01*
X8605940Y1592090D01*
G75*
G02*
X8642050Y1607050I36110J-36090D01*
G01*
X8703300D01*
Y1751300D01*
X8872700D01*
Y1759700D01*
X9061950D01*
Y2827000D01*
G75*
G02*
X9076910Y2863110I51050J0D01*
G01*
X9159890Y2946090D01*
G75*
G02*
X9196000Y2961050I36110J-36090D01*
G01*
X9536220D01*
Y3119000D01*
G75*
G02*
X9779000Y3361780I242780J0D01*
G01*
X10179000D01*
G75*
G02*
X10421780Y3119000I0J-242780D01*
G01*
Y2719000D01*
G75*
G02*
X10179000Y2476220I-242780J0D01*
G01*
X9779000D01*
G75*
G02*
X9536220Y2719000I0J242780D01*
G01*
Y2858950D01*
X9217150D01*
X9164050Y2805850D01*
Y1109000D01*
G75*
G02*
X9149090Y1072890I-51050J0D01*
G01*
X9110110Y1033910D01*
G75*
G02*
X9074000Y1018950I-36110J36090D01*
G01*
X9054450D01*
Y987300D01*
X8922700D01*
Y976000D01*
G75*
G02*
X8909540Y944320I-44710J0D01*
G01*
X8890680Y925460D01*
G75*
G02*
X8859000Y912300I-31680J31550D01*
G01*
X8603060D01*
G75*
G02*
X8571390Y925390I-60J44710D01*
G01*
X8547390Y949390D01*
G75*
G02*
X8534300Y981000I31610J31610D01*
G01*
Y1093900D01*
X8530100D01*
Y980050D01*
G75*
G02*
X8515140Y943940I-51050J0D01*
G01*
X8442050Y870850D01*
Y857000D01*
G75*
G02*
X8441780Y851760I-51030J0D01*
G01*
Y657700D01*
G75*
G02*
X8427870Y626130I-42780J0D01*
G01*
X8425870Y624300D01*
X9083450D01*
G75*
G02*
X8977050Y769300I45600J145000D01*
G01*
G75*
G02*
X9281050I152000J0D01*
G01*
G75*
G02*
X9174650Y624300I-152000J0D01*
G01*
X10379050D01*
G75*
G03*
X10424050Y669300I0J45000D01*
G01*
Y5169300D01*
G75*
G03*
X10379050Y5214300I-45000J0D01*
G01*
X9174650D01*
G75*
G02*
X9281050Y5069300I-45600J-145000D01*
G01*
G75*
G02*
X8977050I-152000J0D01*
G01*
G75*
G02*
X9083450Y5214300I152000J0D01*
G01*
X874650D01*
G75*
G02*
X981050Y5069300I-45600J-145000D01*
G01*
G75*
G02*
X684050Y5023700I-152000J0D01*
G01*
X9487050Y4919300D02*
G75*
G02*
X10071050I292000J0D01*
G01*
G75*
G02*
X9487050I-292000J0D01*
G01*
X8306050Y4866300D02*
X8326050D01*
Y4572300D01*
X8122050D01*
Y4866300D01*
X8142050D01*
Y4921000D01*
X7306050D01*
Y4866300D01*
X7326050D01*
Y4572300D01*
X7122050D01*
Y4866300D01*
X7142050D01*
Y4921000D01*
X6306050D01*
Y4866300D01*
X6326050D01*
Y4572300D01*
X6122050D01*
Y4866300D01*
X6142050D01*
Y4921000D01*
X5306050D01*
Y4866300D01*
X5326050D01*
Y4572300D01*
X5122050D01*
Y4866300D01*
X5142050D01*
Y4921000D01*
X4306050D01*
Y4866300D01*
X4326050D01*
Y4572300D01*
X4122050D01*
Y4866300D01*
X4142050D01*
Y4921000D01*
X3306050D01*
Y4866300D01*
X3326050D01*
Y4572300D01*
X3122050D01*
Y4866300D01*
X3142050D01*
Y4921000D01*
X2306050D01*
Y4866300D01*
X2326050D01*
Y4572300D01*
X2122050D01*
Y4866300D01*
X2142050D01*
Y4921000D01*
X1311050D01*
Y4866300D01*
X1326050D01*
Y4572300D01*
X1279000D01*
Y4392800D01*
G75*
G02*
X1262310Y4352490I-57000J-10D01*
G01*
X930000Y4020190D01*
Y3329850D01*
G75*
G02*
X937490Y3339110I47830J-31030D01*
G01*
X1171000Y3572610D01*
Y3672300D01*
X1122050D01*
Y3966300D01*
X1147050D01*
Y4103000D01*
G75*
G02*
X1229050Y4185000I82000J0D01*
G01*
X8224050D01*
G75*
G02*
X8306050Y4103000I0J-82000D01*
G01*
Y3966300D01*
X8326050D01*
Y3672300D01*
X8122050D01*
Y3966300D01*
X8142050D01*
Y4021000D01*
X7306050D01*
Y3966300D01*
X7326050D01*
Y3672300D01*
X7122050D01*
Y3966300D01*
X7142050D01*
Y4021000D01*
X6306050D01*
Y3966300D01*
X6326050D01*
Y3672300D01*
X6122050D01*
Y3966300D01*
X6142050D01*
Y4021000D01*
X5306050D01*
Y3966300D01*
X5326050D01*
Y3672300D01*
X5122050D01*
Y3966300D01*
X5142050D01*
Y4021000D01*
X4306050D01*
Y3966300D01*
X4326050D01*
Y3672300D01*
X4122050D01*
Y3966300D01*
X4142050D01*
Y4021000D01*
X3306050D01*
Y3966300D01*
X3326050D01*
Y3672300D01*
X3122050D01*
Y3966300D01*
X3142050D01*
Y4021000D01*
X2306050D01*
Y3966300D01*
X2326050D01*
Y3672300D01*
X2122050D01*
Y3966300D01*
X2142050D01*
Y4021000D01*
X1311050D01*
Y3966300D01*
X1326050D01*
Y3672300D01*
X1285000D01*
Y3549000D01*
G75*
G02*
X1268310Y3508690I-57000J-10D01*
G01*
X1034800Y3275190D01*
Y2575410D01*
X1153000Y2693610D01*
Y2772300D01*
X1122050D01*
Y3066300D01*
X1147050D01*
Y3203000D01*
G75*
G02*
X1229050Y3285000I82000J0D01*
G01*
X8224050D01*
G75*
G02*
X8306050Y3203000I0J-82000D01*
G01*
Y3066300D01*
X8326050D01*
Y2772300D01*
X8122050D01*
Y3066300D01*
X8142050D01*
Y3121000D01*
X7306050D01*
Y3066300D01*
X7326050D01*
Y2772300D01*
X7122050D01*
Y3066300D01*
X7142050D01*
Y3121000D01*
X6306050D01*
Y3066300D01*
X6326050D01*
Y2772300D01*
X6122050D01*
Y3066300D01*
X6142050D01*
Y3121000D01*
X5306050D01*
Y3066300D01*
X5326050D01*
Y2772300D01*
X5122050D01*
Y3066300D01*
X5142050D01*
Y3121000D01*
X4306050D01*
Y3066300D01*
X4326050D01*
Y2772300D01*
X4122050D01*
Y3066300D01*
X4142050D01*
Y3121000D01*
X3306050D01*
Y3066300D01*
X3326050D01*
Y2772300D01*
X3122050D01*
Y3066300D01*
X3142050D01*
Y3121000D01*
X2306050D01*
Y3066300D01*
X2326050D01*
Y2772300D01*
X2122050D01*
Y3066300D01*
X2142050D01*
Y3121000D01*
X1311050D01*
Y3066300D01*
X1326050D01*
Y2772300D01*
X1267000D01*
Y2670000D01*
G75*
G02*
X1250310Y2629690I-57000J-10D01*
G01*
X1128000Y2507390D01*
Y2166300D01*
X1147050D01*
Y2303000D01*
G75*
G02*
X1229050Y2385000I82000J0D01*
G01*
X8224050D01*
G75*
G02*
X8306050Y2303000I0J-82000D01*
G01*
Y2166300D01*
X8326050D01*
Y1872300D01*
X8122050D01*
Y2166300D01*
X8142050D01*
Y2221000D01*
X7306050D01*
Y2166300D01*
X7326050D01*
Y1872300D01*
X7122050D01*
Y2166300D01*
X7142050D01*
Y2221000D01*
X6306050D01*
Y2166300D01*
X6326050D01*
Y1872300D01*
X6122050D01*
Y2166300D01*
X6142050D01*
Y2221000D01*
X5306050D01*
Y2166300D01*
X5326050D01*
Y1872300D01*
X5122050D01*
Y2166300D01*
X5142050D01*
Y2221000D01*
X4306050D01*
Y2166300D01*
X4326050D01*
Y1872300D01*
X4122050D01*
Y2166300D01*
X4142050D01*
Y2221000D01*
X3306050D01*
Y2166300D01*
X3326050D01*
Y1872300D01*
X3122050D01*
Y2166300D01*
X3142050D01*
Y2221000D01*
X2306050D01*
Y2166300D01*
X2326050D01*
Y1872300D01*
X2122050D01*
Y2166300D01*
X2142050D01*
Y2221000D01*
X1311050D01*
Y2166300D01*
X1326050D01*
Y1872300D01*
X1279000D01*
Y1660410D01*
G75*
G02*
Y1660150I-85130J-130D01*
G01*
G75*
G02*
X1278000Y1649520I-57000J0D01*
G01*
Y1376800D01*
X1316100D01*
Y861800D01*
X1099600D01*
Y871800D01*
X982250D01*
G75*
G02*
X941890Y888490I-60J57010D01*
G01*
X832690Y997690D01*
G75*
G02*
X816000Y1038000I40320J40300D01*
G01*
Y4043800D01*
G75*
G02*
X832690Y4084110I57000J10D01*
G01*
X1165000Y4416410D01*
Y4572300D01*
X1122050D01*
Y4866300D01*
X1147050D01*
Y5003000D01*
G75*
G02*
X1229050Y5085000I82000J0D01*
G01*
X8224050D01*
G75*
G02*
X8306050Y5003000I0J-82000D01*
G01*
Y4866300D01*
X7879050Y4801300D02*
G75*
G02*
Y4637300I0J-82000D01*
G01*
X7836050D01*
Y4572300D01*
X7632050D01*
Y4597300D01*
X7396550D01*
Y4841300D01*
X7632050D01*
Y4866300D01*
X7836050D01*
Y4801300D01*
X7879050D01*
X6879050D02*
G75*
G02*
Y4637300I0J-82000D01*
G01*
X6836050D01*
Y4572300D01*
X6632050D01*
Y4597300D01*
X6396550D01*
Y4841300D01*
X6632050D01*
Y4866300D01*
X6836050D01*
Y4801300D01*
X6879050D01*
X5879050D02*
G75*
G02*
Y4637300I0J-82000D01*
G01*
X5836050D01*
Y4572300D01*
X5632050D01*
Y4597300D01*
X5396550D01*
Y4841300D01*
X5632050D01*
Y4866300D01*
X5836050D01*
Y4801300D01*
X5879050D01*
X4879050D02*
G75*
G02*
Y4637300I0J-82000D01*
G01*
X4836050D01*
Y4572300D01*
X4632050D01*
Y4597300D01*
X4396550D01*
Y4841300D01*
X4632050D01*
Y4866300D01*
X4836050D01*
Y4801300D01*
X4879050D01*
X3879050D02*
G75*
G02*
Y4637300I0J-82000D01*
G01*
X3836050D01*
Y4572300D01*
X3632050D01*
Y4597300D01*
X3396550D01*
Y4841300D01*
X3632050D01*
Y4866300D01*
X3836050D01*
Y4801300D01*
X3879050D01*
X2879050D02*
G75*
G02*
Y4637300I0J-82000D01*
G01*
X2836050D01*
Y4572300D01*
X2632050D01*
Y4597300D01*
X2396550D01*
Y4841300D01*
X2632050D01*
Y4866300D01*
X2836050D01*
Y4801300D01*
X2879050D01*
X1879050D02*
G75*
G02*
Y4637300I0J-82000D01*
G01*
X1836050D01*
Y4572300D01*
X1632050D01*
Y4597300D01*
X1396550D01*
Y4841300D01*
X1632050D01*
Y4866300D01*
X1836050D01*
Y4801300D01*
X1879050D01*
X7879050Y3901300D02*
G75*
G02*
Y3737300I0J-82000D01*
G01*
X7836050D01*
Y3672300D01*
X7632050D01*
Y3697300D01*
X7396550D01*
Y3941300D01*
X7632050D01*
Y3966300D01*
X7836050D01*
Y3901300D01*
X7879050D01*
X6879050D02*
G75*
G02*
Y3737300I0J-82000D01*
G01*
X6836050D01*
Y3672300D01*
X6632050D01*
Y3697300D01*
X6396550D01*
Y3941300D01*
X6632050D01*
Y3966300D01*
X6836050D01*
Y3901300D01*
X6879050D01*
X5879050D02*
G75*
G02*
Y3737300I0J-82000D01*
G01*
X5836050D01*
Y3672300D01*
X5632050D01*
Y3697300D01*
X5396550D01*
Y3941300D01*
X5632050D01*
Y3966300D01*
X5836050D01*
Y3901300D01*
X5879050D01*
X4879050D02*
G75*
G02*
Y3737300I0J-82000D01*
G01*
X4836050D01*
Y3672300D01*
X4632050D01*
Y3697300D01*
X4396550D01*
Y3941300D01*
X4632050D01*
Y3966300D01*
X4836050D01*
Y3901300D01*
X4879050D01*
X3879050D02*
G75*
G02*
Y3737300I0J-82000D01*
G01*
X3836050D01*
Y3672300D01*
X3632050D01*
Y3697300D01*
X3396550D01*
Y3941300D01*
X3632050D01*
Y3966300D01*
X3836050D01*
Y3901300D01*
X3879050D01*
X2879050D02*
G75*
G02*
Y3737300I0J-82000D01*
G01*
X2836050D01*
Y3672300D01*
X2632050D01*
Y3697300D01*
X2396550D01*
Y3941300D01*
X2632050D01*
Y3966300D01*
X2836050D01*
Y3901300D01*
X2879050D01*
X1879050D02*
G75*
G02*
Y3737300I0J-82000D01*
G01*
X1836050D01*
Y3672300D01*
X1632050D01*
Y3697300D01*
X1396550D01*
Y3941300D01*
X1632050D01*
Y3966300D01*
X1836050D01*
Y3901300D01*
X1879050D01*
X7879050Y3001300D02*
G75*
G02*
Y2837300I0J-82000D01*
G01*
X7836050D01*
Y2772300D01*
X7632050D01*
Y2797300D01*
X7396550D01*
Y3041300D01*
X7632050D01*
Y3066300D01*
X7836050D01*
Y3001300D01*
X7879050D01*
X6879050D02*
G75*
G02*
Y2837300I0J-82000D01*
G01*
X6836050D01*
Y2772300D01*
X6632050D01*
Y2797300D01*
X6396550D01*
Y3041300D01*
X6632050D01*
Y3066300D01*
X6836050D01*
Y3001300D01*
X6879050D01*
X5879050D02*
G75*
G02*
Y2837300I0J-82000D01*
G01*
X5836050D01*
Y2772300D01*
X5632050D01*
Y2797300D01*
X5396550D01*
Y3041300D01*
X5632050D01*
Y3066300D01*
X5836050D01*
Y3001300D01*
X5879050D01*
X4879050D02*
G75*
G02*
Y2837300I0J-82000D01*
G01*
X4836050D01*
Y2772300D01*
X4632050D01*
Y2797300D01*
X4396550D01*
Y3041300D01*
X4632050D01*
Y3066300D01*
X4836050D01*
Y3001300D01*
X4879050D01*
X3879050D02*
G75*
G02*
Y2837300I0J-82000D01*
G01*
X3836050D01*
Y2772300D01*
X3632050D01*
Y2797300D01*
X3396550D01*
Y3041300D01*
X3632050D01*
Y3066300D01*
X3836050D01*
Y3001300D01*
X3879050D01*
X2879050D02*
G75*
G02*
Y2837300I0J-82000D01*
G01*
X2836050D01*
Y2772300D01*
X2632050D01*
Y2797300D01*
X2396550D01*
Y3041300D01*
X2632050D01*
Y3066300D01*
X2836050D01*
Y3001300D01*
X2879050D01*
X1879050D02*
G75*
G02*
Y2837300I0J-82000D01*
G01*
X1836050D01*
Y2772300D01*
X1632050D01*
Y2797300D01*
X1396550D01*
Y3041300D01*
X1632050D01*
Y3066300D01*
X1836050D01*
Y3001300D01*
X1879050D01*
X2879050Y2101300D02*
G75*
G02*
X2923750Y1950560I0J-82000D01*
G01*
Y1799050D01*
G75*
G02*
X2910660Y1767440I-44700J0D01*
G01*
X2843610Y1700390D01*
G75*
G02*
X2811940Y1687300I-31610J31620D01*
G01*
X2386520D01*
X2367700Y1668480D01*
Y1644400D01*
X2411000D01*
Y1471400D01*
X2247000D01*
Y1644400D01*
X2278300D01*
Y1687000D01*
G75*
G02*
X2291390Y1718610I44700J0D01*
G01*
X2336390Y1763610D01*
G75*
G02*
X2368060Y1776700I31610J-31620D01*
G01*
X2793480D01*
X2834350Y1817570D01*
Y1872300D01*
X2632050D01*
Y1897300D01*
X2396550D01*
Y2141300D01*
X2632050D01*
Y2166300D01*
X2836050D01*
Y2101300D01*
X2879050D01*
X2691000Y1412670D02*
G75*
G02*
Y1305330I-62010J-53670D01*
G01*
Y1274500D01*
X2567000D01*
Y1277000D01*
X2350100D01*
G75*
G02*
X2300630Y1293600I0J82010D01*
G01*
X2247000D01*
Y1466600D01*
X2411000D01*
Y1441000D01*
X2567000D01*
Y1443500D01*
X2691000D01*
Y1412670D01*
X3011000Y1018690D02*
G75*
G02*
X3093050Y929820I31000J-53690D01*
G01*
Y878000D01*
G75*
G02*
X3042000Y826950I-51050J0D01*
G01*
X3011000D01*
Y793600D01*
X2847000D01*
Y966600D01*
X2980020D01*
G75*
G02*
X2980330Y971400I61980J-1590D01*
G01*
X2847000D01*
Y1027950D01*
X2786000D01*
Y994500D01*
X2680050D01*
G75*
G02*
X2680950Y943500I-56050J-26500D01*
G01*
X2691000D01*
Y912670D01*
G75*
G02*
Y805330I-62010J-53670D01*
G01*
Y774500D01*
X2567000D01*
Y777000D01*
X2350100D01*
G75*
G02*
X2300630Y793600I0J82010D01*
G01*
X2247000D01*
Y966600D01*
X2411000D01*
Y941000D01*
X2567000D01*
Y943500D01*
X2567050D01*
G75*
G02*
X2567950Y994500I56950J24500D01*
G01*
X2472000D01*
Y1163500D01*
X2596000D01*
Y1130050D01*
X2624000D01*
G75*
G02*
X2662000Y1113090I0J-51050D01*
G01*
Y1163500D01*
X2786000D01*
Y1130050D01*
X2847000D01*
Y1144400D01*
X3011000D01*
Y1018690D01*
X2247000Y1144400D02*
X2411000D01*
Y971400D01*
X2247000D01*
Y1019300D01*
X2242060D01*
G75*
G02*
X2210390Y1032390I-60J44710D01*
G01*
X2152390Y1090390D01*
G75*
G02*
X2139300Y1122000I31610J31610D01*
G01*
Y1539430D01*
X1847390Y1831340D01*
G75*
G02*
X1834300Y1862950I31610J31610D01*
G01*
Y1872300D01*
X1632050D01*
Y1897300D01*
X1396550D01*
Y2141300D01*
X1632050D01*
Y2166300D01*
X1836050D01*
Y2101300D01*
X1879050D01*
G75*
G02*
X1923700Y1950520I0J-82000D01*
G01*
Y1881470D01*
X2215610Y1589560D01*
G75*
G02*
X2228700Y1557950I-31610J-31610D01*
G01*
Y1140520D01*
X2247000Y1122220D01*
Y1144400D01*
X8879050Y3001300D02*
G75*
G02*
Y2837300I0J-82000D01*
G01*
X8836050D01*
Y2772300D01*
X8632050D01*
Y2797300D01*
X8396550D01*
Y3041300D01*
X8632050D01*
Y3066300D01*
X8836050D01*
Y3001300D01*
X8879050D01*
Y3901300D02*
G75*
G02*
Y3737300I0J-82000D01*
G01*
X8836050D01*
Y3672300D01*
X8632050D01*
Y3697300D01*
X8396550D01*
Y3941300D01*
X8632050D01*
Y3966300D01*
X8836050D01*
Y3901300D01*
X8879050D01*
Y4801300D02*
G75*
G02*
Y4637300I0J-82000D01*
G01*
X8836050D01*
Y4572300D01*
X8632050D01*
Y4597300D01*
X8396550D01*
Y4841300D01*
X8632050D01*
Y4866300D01*
X8836050D01*
Y4801300D01*
X8879050D01*
X8350260Y1655510D02*
G75*
G02*
X8367780Y1620980I-25260J-34530D01*
G01*
Y1378750D01*
G75*
G02*
X8360650Y1355100I-42780J0D01*
G01*
Y1322750D01*
X8328600D01*
G75*
G02*
X8304000Y1314970I-24600J35000D01*
G01*
X8163040D01*
G75*
G02*
X8132700Y1327500I-90J42780D01*
G01*
X8115700Y1344500D01*
G75*
G02*
X8105560Y1360650I30250J30250D01*
G01*
G75*
G02*
X8110550Y1324700I-127000J-35950D01*
G01*
G75*
G02*
X7846550I-132000J0D01*
G01*
G75*
G02*
X8104450Y1364360I132000J0D01*
G01*
G75*
G02*
X8103170Y1374750I41520J10390D01*
G01*
G75*
G02*
Y1374770I18790J10D01*
G01*
G75*
G02*
Y1374840I21800J40D01*
G01*
Y1618980D01*
G75*
G02*
X8121360Y1653980I42780J-10D01*
G01*
X8155300Y1677910D01*
G75*
G02*
X8180000Y1685760I24700J-34930D01*
G01*
X8295000D01*
G75*
G02*
X8320340Y1677450I0J-42790D01*
G01*
X8350260Y1655510D01*
X7851910Y1617980D02*
G75*
G02*
Y1617960I-13320J-10D01*
G01*
G75*
G02*
Y1617910I-11060J-20D01*
G01*
Y1378750D01*
G75*
G02*
X7839340Y1348460I-42780J0D01*
G01*
X7818420Y1327540D01*
G75*
G02*
X7788130Y1314970I-30290J30210D01*
G01*
X7613000D01*
G75*
G02*
X7585200Y1325190I-50J42790D01*
G01*
X7565250Y1342190D01*
G75*
G02*
X7550220Y1374750I27750J32560D01*
G01*
Y1615980D01*
G75*
G02*
X7566000Y1649170I42780J10D01*
G01*
X7592920Y1671120D01*
G75*
G02*
X7620000Y1680780I27080J-33120D01*
G01*
X7785930D01*
G75*
G02*
X7814000Y1670350I70J-42790D01*
G01*
X7837130Y1650330D01*
G75*
G02*
X7851910Y1617980I-28000J-32350D01*
G01*
X5711000Y1018690D02*
G75*
G02*
X5793050Y929820I31000J-53690D01*
G01*
Y878000D01*
G75*
G02*
X5742000Y826950I-51050J0D01*
G01*
X5711000D01*
Y793600D01*
X5547000D01*
Y966600D01*
X5680020D01*
G75*
G02*
X5680330Y971400I61980J-1590D01*
G01*
X5547000D01*
Y1027950D01*
X5486000D01*
Y994500D01*
X5380050D01*
G75*
G02*
X5380950Y943500I-56050J-26500D01*
G01*
X5391000D01*
Y912670D01*
G75*
G02*
Y805330I-62010J-53670D01*
G01*
Y774500D01*
X5267000D01*
Y777000D01*
X5050100D01*
G75*
G02*
X5000630Y793600I0J82010D01*
G01*
X4947000D01*
Y966600D01*
X5111000D01*
Y941000D01*
X5267000D01*
Y943500D01*
X5267050D01*
G75*
G02*
X5267950Y994500I56950J24500D01*
G01*
X5172000D01*
Y1163500D01*
X5296000D01*
Y1129050D01*
X5324000D01*
G75*
G02*
X5362000Y1112090I0J-51050D01*
G01*
Y1163500D01*
X5486000D01*
Y1130050D01*
X5547000D01*
Y1144400D01*
X5711000D01*
Y1018690D01*
X4811000D02*
G75*
G02*
X4893050Y929820I31000J-53690D01*
G01*
Y878000D01*
G75*
G02*
X4842000Y826950I-51050J0D01*
G01*
X4811000D01*
Y793600D01*
X4647000D01*
Y966600D01*
X4780020D01*
G75*
G02*
X4780330Y971400I61980J-1590D01*
G01*
X4647000D01*
Y1027950D01*
X4586000D01*
Y994500D01*
X4480050D01*
G75*
G02*
X4480950Y943500I-56050J-26500D01*
G01*
X4491000D01*
Y912670D01*
G75*
G02*
Y805330I-62010J-53670D01*
G01*
Y774500D01*
X4367000D01*
Y777000D01*
X4150100D01*
G75*
G02*
X4100630Y793600I0J82010D01*
G01*
X4047000D01*
Y966600D01*
X4211000D01*
Y941000D01*
X4367000D01*
Y943500D01*
X4367050D01*
G75*
G02*
X4367950Y994500I56950J24500D01*
G01*
X4272000D01*
Y1163500D01*
X4396000D01*
Y1125050D01*
X4424000D01*
G75*
G02*
X4462000Y1108090I0J-51050D01*
G01*
Y1163500D01*
X4586000D01*
Y1130050D01*
X4647000D01*
Y1144400D01*
X4811000D01*
Y1018690D01*
X3911000D02*
G75*
G02*
X3993050Y929820I31000J-53690D01*
G01*
Y878000D01*
G75*
G02*
X3942000Y826950I-51050J0D01*
G01*
X3911000D01*
Y793600D01*
X3747000D01*
Y966600D01*
X3880020D01*
G75*
G02*
X3880330Y971400I61980J-1590D01*
G01*
X3747000D01*
Y1027950D01*
X3686000D01*
Y994500D01*
X3580050D01*
G75*
G02*
X3580950Y943500I-56050J-26500D01*
G01*
X3591000D01*
Y912670D01*
G75*
G02*
Y805330I-62010J-53670D01*
G01*
Y774500D01*
X3467000D01*
Y777000D01*
X3250100D01*
G75*
G02*
X3200630Y793600I0J82010D01*
G01*
X3147000D01*
Y966600D01*
X3311000D01*
Y941000D01*
X3467000D01*
Y943500D01*
X3467050D01*
G75*
G02*
X3467950Y994500I56950J24500D01*
G01*
X3372000D01*
Y1163500D01*
X3496000D01*
Y1131050D01*
X3524000D01*
G75*
G02*
X3562000Y1114090I0J-51050D01*
G01*
Y1163500D01*
X3686000D01*
Y1130050D01*
X3747000D01*
Y1144400D01*
X3911000D01*
Y1018690D01*
X10092050Y1886000D02*
X10151000D01*
Y1552000D01*
X9927000D01*
Y1653120D01*
G75*
G02*
X9631000I-148000J65880D01*
G01*
Y1552000D01*
X9570050D01*
Y1394150D01*
X9595150Y1369050D01*
X9742050D01*
G75*
G02*
X9841050Y1319300I37000J-49750D01*
G01*
G75*
G02*
X9745830Y1266950I-62000J0D01*
G01*
X9574000D01*
G75*
G02*
X9537890Y1281910I0J51050D01*
G01*
X9482910Y1336890D01*
G75*
G02*
X9467950Y1373000I36090J36110D01*
G01*
Y1552000D01*
X9407000D01*
Y1886000D01*
X9631000D01*
Y1784880D01*
G75*
G02*
X9927000I148000J-65880D01*
G01*
Y1886000D01*
X9989950D01*
Y1940850D01*
X9962550Y1968250D01*
X9954450D01*
Y1937300D01*
X9781450D01*
Y2101300D01*
X9954450D01*
Y2070350D01*
X9983700D01*
G75*
G02*
X10019810Y2055390I0J-51050D01*
G01*
X10077090Y1998110D01*
G75*
G02*
X10092050Y1962000I-36090J-36110D01*
G01*
Y1886000D01*
X9487050Y919300D02*
G75*
G02*
X10071050I292000J0D01*
G01*
G75*
G02*
X9487050I-292000J0D01*
G01*
X9603650Y2101300D02*
X9776650D01*
Y1937300D01*
X9603650D01*
Y1996250D01*
X9333450D01*
X9280050Y1942850D01*
Y1754480D01*
G75*
G02*
X9291000Y1719300I-51050J-35180D01*
G01*
G75*
G02*
X9167000I-62000J0D01*
G01*
G75*
G02*
X9177950Y1754480I62000J0D01*
G01*
Y1964000D01*
G75*
G02*
X9192910Y2000110I51050J0D01*
G01*
X9276190Y2083390D01*
G75*
G02*
X9312300Y2098350I36110J-36090D01*
G01*
X9603650D01*
Y2101300D01*
X699050Y969000D02*
G36*
X699050Y969000D02*
Y848070D01*
G75*
G02*
X981050Y769300I130000J-78770D01*
G01*
G75*
G02*
X907820Y639300I-152000J0D01*
G01*
X1583230D01*
X1565800Y656730D01*
G75*
G02*
X1552000Y690000I33240J33280D01*
G01*
Y969000D01*
X1316100D01*
Y861800D01*
X1099600D01*
Y871800D01*
X982250D01*
G75*
G02*
X941890Y888490I-40J57050D01*
G01*
X861380Y969000D01*
X699050D01*
G37*
X1646000Y853400D02*
G36*
X1646000Y853400D02*
Y709470D01*
X1679470Y676000D01*
X6905530D01*
X6919000Y689470D01*
Y969000D01*
X6906050D01*
Y922300D01*
X6662050D01*
Y927950D01*
X6569000D01*
Y851300D01*
X6604450D01*
Y687300D01*
X6435050D01*
Y678900D01*
X6245250D01*
Y859700D01*
X6435050D01*
Y851300D01*
X6466900D01*
Y948570D01*
G75*
G02*
X6460520Y969000I55110J28420D01*
G01*
X6204450D01*
Y913900D01*
X5943650D01*
Y969000D01*
X5803870D01*
G75*
G02*
X5804000Y965000I-61890J-4010D01*
G01*
G75*
G02*
X5793050Y929820I-62000J0D01*
G01*
Y878000D01*
G75*
G02*
Y877990I-71620J0D01*
G01*
G75*
G02*
X5742000Y826950I-51050J0D01*
G01*
X5711000D01*
Y793600D01*
X5547000D01*
Y966600D01*
X5680020D01*
G75*
G02*
X5680130Y969000I64420J-1750D01*
G01*
X5385990D01*
G75*
G02*
X5386000Y968000I-62200J-1120D01*
G01*
G75*
G02*
X5380950Y943500I-61970J0D01*
G01*
X5391000D01*
Y912670D01*
G75*
G02*
X5411000Y859000I-62010J-53670D01*
G01*
G75*
G02*
X5391000Y805330I-82010J0D01*
G01*
Y774500D01*
X5267000D01*
Y777000D01*
X5050100D01*
G75*
G02*
X5000630Y793600I0J82000D01*
G01*
X4947000D01*
Y966600D01*
X5111000D01*
Y941000D01*
X5267000D01*
Y943500D01*
X5267050D01*
G75*
G02*
X5262000Y968000I56920J24500D01*
G01*
G75*
G02*
X5262010Y969000I62210J-120D01*
G01*
X4903870D01*
G75*
G02*
X4904000Y965000I-61890J-4010D01*
G01*
G75*
G02*
X4893050Y929820I-62000J0D01*
G01*
Y878000D01*
G75*
G02*
Y877990I-71620J0D01*
G01*
G75*
G02*
X4842000Y826950I-51050J0D01*
G01*
X4811000D01*
Y793600D01*
X4647000D01*
Y966600D01*
X4780020D01*
G75*
G02*
X4780130Y969000I64420J-1750D01*
G01*
X4485990D01*
G75*
G02*
X4486000Y968000I-62200J-1120D01*
G01*
G75*
G02*
X4480950Y943500I-61970J0D01*
G01*
X4491000D01*
Y912670D01*
G75*
G02*
X4511000Y859000I-62010J-53670D01*
G01*
G75*
G02*
X4491000Y805330I-82010J0D01*
G01*
Y774500D01*
X4367000D01*
Y777000D01*
X4150100D01*
G75*
G02*
X4100630Y793600I0J82000D01*
G01*
X4047000D01*
Y966600D01*
X4211000D01*
Y941000D01*
X4367000D01*
Y943500D01*
X4367050D01*
G75*
G02*
X4362000Y968000I56920J24500D01*
G01*
G75*
G02*
X4362010Y969000I62210J-120D01*
G01*
X4003870D01*
G75*
G02*
X4004000Y965000I-61890J-4010D01*
G01*
G75*
G02*
X3993050Y929820I-62000J0D01*
G01*
Y878000D01*
G75*
G02*
Y877990I-71620J0D01*
G01*
G75*
G02*
X3942000Y826950I-51050J0D01*
G01*
X3911000D01*
Y793600D01*
X3747000D01*
Y966600D01*
X3880020D01*
G75*
G02*
X3880130Y969000I64420J-1750D01*
G01*
X3585990D01*
G75*
G02*
X3586000Y968000I-62200J-1120D01*
G01*
G75*
G02*
X3580950Y943500I-61970J0D01*
G01*
X3591000D01*
Y912670D01*
G75*
G02*
X3611000Y859000I-62010J-53670D01*
G01*
G75*
G02*
X3591000Y805330I-82010J0D01*
G01*
Y774500D01*
X3467000D01*
Y777000D01*
X3250100D01*
G75*
G02*
X3200630Y793600I0J82000D01*
G01*
X3147000D01*
Y966600D01*
X3311000D01*
Y941000D01*
X3467000D01*
Y943500D01*
X3467050D01*
G75*
G02*
X3462000Y968000I56920J24500D01*
G01*
G75*
G02*
X3462010Y969000I62210J-120D01*
G01*
X3103870D01*
G75*
G02*
X3104000Y965000I-61890J-4010D01*
G01*
G75*
G02*
X3093050Y929820I-62000J0D01*
G01*
Y878000D01*
G75*
G02*
Y877990I-71620J0D01*
G01*
G75*
G02*
X3042000Y826950I-51050J0D01*
G01*
X3011000D01*
Y793600D01*
X2847000D01*
Y966600D01*
X2980020D01*
G75*
G02*
X2980130Y969000I64420J-1750D01*
G01*
X2685990D01*
G75*
G02*
X2686000Y968000I-62200J-1120D01*
G01*
G75*
G02*
X2680950Y943500I-61970J0D01*
G01*
X2691000D01*
Y912670D01*
G75*
G02*
X2711000Y859000I-62010J-53670D01*
G01*
G75*
G02*
X2691000Y805330I-82010J0D01*
G01*
Y774500D01*
X2567000D01*
Y777000D01*
X2350100D01*
G75*
G02*
X2300630Y793600I0J82000D01*
G01*
X2247000D01*
Y966600D01*
X2411000D01*
Y941000D01*
X2567000D01*
Y943500D01*
X2567050D01*
G75*
G02*
X2562000Y968000I56920J24500D01*
G01*
G75*
G02*
X2562010Y969000I62210J-120D01*
G01*
X2069450D01*
Y935500D01*
X1888650D01*
Y969000D01*
X1866900D01*
Y853400D01*
X1646000D01*
G37*
X8441780Y851760D02*
G36*
X8441780Y851760D02*
Y657700D01*
G75*
G02*
Y657690I-52090J0D01*
G01*
G75*
G02*
X8437620Y639300I-42760J10D01*
G01*
X9050280D01*
G75*
G02*
X8977050Y769280I78750J129990D01*
G01*
G75*
G02*
Y769300I190990J10D01*
G01*
G75*
G02*
X9281050I152000J0D01*
G01*
G75*
G02*
X9207820Y639300I-152000J0D01*
G01*
X9696200D01*
G75*
G02*
X9487050Y919300I82850J280000D01*
G01*
G75*
G02*
X9491310Y969000I292020J0D01*
G01*
X8922150D01*
G75*
G02*
X8909540Y944320I-44160J7000D01*
G01*
X8890680Y925460D01*
G75*
G02*
X8859000Y912300I-31680J31550D01*
G01*
X8603060D01*
G75*
G02*
X8571390Y925390I-60J44700D01*
G01*
X8547390Y949390D01*
G75*
G02*
X8535940Y969000I31590J31590D01*
G01*
X8528890D01*
G75*
G02*
X8515140Y943940I-49890J11070D01*
G01*
X8442050Y870850D01*
Y857000D01*
G75*
G02*
X8441780Y851760I-53050J110D01*
G01*
G37*
X10071050Y919300D02*
G36*
X10071050Y919300D02*
G75*
G02*
X9861900Y639300I-292000J0D01*
G01*
X10409050D01*
Y969000D01*
X10066790D01*
G75*
G02*
X10071050Y919300I-287760J-49700D01*
G01*
G37*
X699050Y1370550D02*
G36*
X699050Y1370550D02*
Y969000D01*
X861380D01*
X832690Y997690D01*
G75*
G02*
X816000Y1038000I40380J40330D01*
G01*
Y1370550D01*
X699050D01*
G37*
X1316100D02*
G36*
X1316100Y1370550D02*
Y969000D01*
X1552000D01*
Y1032000D01*
G75*
G02*
X1565800Y1065270I47040J-10D01*
G01*
X1589530Y1089000D01*
G75*
G02*
X1622800Y1102800I33280J-33240D01*
G01*
X1642000D01*
Y1258750D01*
X1437200D01*
G75*
G02*
X1401090Y1273710I20J51100D01*
G01*
X1356910Y1317890D01*
G75*
G02*
X1341950Y1354000I36140J36130D01*
G01*
Y1370550D01*
X1316100D01*
G37*
X1448650D02*
G36*
X1448650Y1370550D02*
X1458350Y1360850D01*
X1642000D01*
Y1370550D01*
X1448650D01*
G37*
X1858500Y1131750D02*
G36*
X1858500Y1131750D02*
Y1004200D01*
X1866900D01*
Y969000D01*
X1888650D01*
Y1125300D01*
X1897050D01*
Y1131750D01*
X1858500D01*
G37*
Y1370550D02*
G36*
X1858500Y1370550D02*
Y1233850D01*
X1897050D01*
Y1294700D01*
X1927970D01*
X1927960Y1321800D01*
G75*
G02*
X1917000Y1356990I51010J35190D01*
G01*
G75*
G02*
Y1357000I44070J10D01*
G01*
G75*
G02*
X1918500Y1370550I62000J-10D01*
G01*
X1858500D01*
G37*
X2030060Y1321830D02*
G36*
X2030060Y1321830D02*
X2030070Y1294700D01*
X2061050D01*
Y1125300D01*
X2069450D01*
Y969000D01*
X2562010D01*
G75*
G02*
X2567950Y994500I61970J-990D01*
G01*
X2472000D01*
Y1163500D01*
X2596000D01*
Y1130050D01*
X2624000D01*
G75*
G02*
X2662000Y1113090I20J-51010D01*
G01*
Y1163500D01*
X2786000D01*
Y1130050D01*
X2847000D01*
Y1144400D01*
X3011000D01*
Y1018690D01*
G75*
G02*
X3103870Y969000I31000J-53690D01*
G01*
X3462010D01*
G75*
G02*
X3467950Y994500I61970J-990D01*
G01*
X3372000D01*
Y1163500D01*
X3496000D01*
Y1131050D01*
X3524000D01*
G75*
G02*
X3562000Y1114090I20J-51010D01*
G01*
Y1163500D01*
X3686000D01*
Y1130050D01*
X3747000D01*
Y1144400D01*
X3911000D01*
Y1018690D01*
G75*
G02*
X4003870Y969000I31000J-53690D01*
G01*
X4362010D01*
G75*
G02*
X4367950Y994500I61970J-990D01*
G01*
X4272000D01*
Y1163500D01*
X4396000D01*
Y1125050D01*
X4424000D01*
G75*
G02*
X4462000Y1108090I20J-51010D01*
G01*
Y1163500D01*
X4586000D01*
Y1130050D01*
X4647000D01*
Y1144400D01*
X4811000D01*
Y1018690D01*
G75*
G02*
X4903870Y969000I31000J-53690D01*
G01*
X5262010D01*
G75*
G02*
X5267950Y994500I61970J-990D01*
G01*
X5172000D01*
Y1163500D01*
X5296000D01*
Y1129050D01*
X5324000D01*
G75*
G02*
X5362000Y1112090I20J-51010D01*
G01*
Y1163500D01*
X5486000D01*
Y1130050D01*
X5547000D01*
Y1144400D01*
X5711000D01*
Y1018690D01*
G75*
G02*
X5803870Y969000I31000J-53690D01*
G01*
X5943650D01*
Y986010D01*
G75*
G02*
X5883000Y1048000I1350J61990D01*
G01*
G75*
G02*
X5883060Y1050660I88530J-670D01*
G01*
G75*
G02*
X5833000Y1111500I11940J60840D01*
G01*
G75*
G02*
X5883060Y1172340I62000J0D01*
G01*
G75*
G02*
X5883000Y1175000I88470J3330D01*
G01*
G75*
G02*
X5952050Y1236600I62000J0D01*
G01*
Y1262300D01*
X5937960D01*
G75*
G02*
X5833000Y1307000I-42960J44700D01*
G01*
G75*
G02*
X5883060Y1367840I62000J0D01*
G01*
G75*
G02*
X5883000Y1370500I88470J3330D01*
G01*
G75*
G02*
Y1370550I89520J30D01*
G01*
X5791050D01*
G75*
G02*
X5740900Y1329050I-50140J9540D01*
G01*
X5711000D01*
Y1293600D01*
X5547000D01*
Y1370550D01*
X5410180D01*
G75*
G02*
X5411000Y1359000I-81190J-11570D01*
G01*
G75*
G02*
X5391000Y1305330I-82010J0D01*
G01*
Y1274500D01*
X5267000D01*
Y1277000D01*
X5050100D01*
G75*
G02*
X5000630Y1293600I0J82000D01*
G01*
X4966700D01*
Y1144400D01*
X5111000D01*
Y971400D01*
X4947000D01*
Y1019540D01*
G75*
G02*
X4936390Y1027390I20820J39230D01*
G01*
X4890390Y1073390D01*
G75*
G02*
X4877300Y1104980I31580J31590D01*
G01*
G75*
G02*
Y1105000I60310J10D01*
G01*
Y1341120D01*
G75*
G02*
X4842000Y1326950I-35280J36820D01*
G01*
X4811000D01*
Y1293600D01*
X4647000D01*
Y1370550D01*
X4510180D01*
G75*
G02*
X4511000Y1359000I-81190J-11570D01*
G01*
G75*
G02*
X4491000Y1305330I-82010J0D01*
G01*
Y1274500D01*
X4367000D01*
Y1277000D01*
X4150100D01*
G75*
G02*
X4100630Y1293600I0J82000D01*
G01*
X4069700D01*
Y1144400D01*
X4211000D01*
Y971400D01*
X4047000D01*
Y1009230D01*
G75*
G02*
X4028390Y1020390I12970J42720D01*
G01*
X3993390Y1055390D01*
G75*
G02*
X3980300Y1086980I31580J31590D01*
G01*
G75*
G02*
Y1087000I60310J10D01*
G01*
Y1344250D01*
G75*
G02*
X3942000Y1326950I-38320J33800D01*
G01*
X3911000D01*
Y1293600D01*
X3747000D01*
Y1370550D01*
X3610180D01*
G75*
G02*
X3611000Y1359000I-81190J-11570D01*
G01*
G75*
G02*
X3591000Y1305330I-82010J0D01*
G01*
Y1274500D01*
X3467000D01*
Y1277000D01*
X3250100D01*
G75*
G02*
X3200630Y1293600I0J82000D01*
G01*
X3164700D01*
Y1144400D01*
X3311000D01*
Y971400D01*
X3147000D01*
Y1028580D01*
G75*
G02*
X3120390Y1041390I4980J44390D01*
G01*
X3088390Y1073390D01*
G75*
G02*
X3075300Y1104980I31580J31590D01*
G01*
G75*
G02*
Y1105000I60310J10D01*
G01*
Y1339310D01*
G75*
G02*
X3042000Y1326950I-33300J38680D01*
G01*
X3011000D01*
Y1293600D01*
X2847000D01*
Y1370550D01*
X2710180D01*
G75*
G02*
X2711000Y1359000I-81190J-11570D01*
G01*
G75*
G02*
X2691000Y1305330I-82010J0D01*
G01*
Y1274500D01*
X2567000D01*
Y1277000D01*
X2350100D01*
G75*
G02*
X2300630Y1293600I0J82000D01*
G01*
X2247000D01*
Y1370550D01*
X2228700D01*
Y1140520D01*
X2247000Y1122220D01*
Y1144400D01*
X2411000D01*
Y971400D01*
X2247000D01*
Y1019300D01*
X2242060D01*
G75*
G02*
X2210390Y1032390I-60J44700D01*
G01*
X2152390Y1090390D01*
G75*
G02*
X2139300Y1121980I31580J31590D01*
G01*
G75*
G02*
Y1122000I60310J10D01*
G01*
Y1370550D01*
X2039500D01*
G75*
G02*
X2041000Y1357000I-60500J-13560D01*
G01*
G75*
G02*
X2030060Y1321830I-62020J0D01*
G01*
G37*
X2680050Y994500D02*
G36*
X2680050Y994500D02*
G75*
G02*
X2685990Y969000I-56030J-26490D01*
G01*
X2980130D01*
G75*
G02*
X2980330Y971400I64290J-4150D01*
G01*
X2847000D01*
Y1027950D01*
X2786000D01*
Y994500D01*
X2680050D01*
G37*
X3580050D02*
G36*
X3580050Y994500D02*
G75*
G02*
X3585990Y969000I-56030J-26490D01*
G01*
X3880130D01*
G75*
G02*
X3880330Y971400I64290J-4150D01*
G01*
X3747000D01*
Y1027950D01*
X3686000D01*
Y994500D01*
X3580050D01*
G37*
X4480050D02*
G36*
X4480050Y994500D02*
G75*
G02*
X4485990Y969000I-56030J-26490D01*
G01*
X4780130D01*
G75*
G02*
X4780330Y971400I64290J-4150D01*
G01*
X4647000D01*
Y1027950D01*
X4586000D01*
Y994500D01*
X4480050D01*
G37*
X5380050D02*
G36*
X5380050Y994500D02*
G75*
G02*
X5385990Y969000I-56030J-26490D01*
G01*
X5680130D01*
G75*
G02*
X5680330Y971400I64290J-4150D01*
G01*
X5547000D01*
Y1027950D01*
X5486000D01*
Y994500D01*
X5380050D01*
G37*
X6196050Y1192100D02*
G36*
X6196050Y1192100D02*
Y1039700D01*
X6204450D01*
Y969000D01*
X6460520D01*
G75*
G02*
X6460000Y977000I61510J8020D01*
G01*
G75*
G02*
X6554090Y1030050I62000J0D01*
G01*
X6662050D01*
Y1370550D01*
X6425700D01*
Y1289800D01*
G75*
G02*
Y1289780I-60310J-10D01*
G01*
G75*
G02*
X6412610Y1258190I-44670J0D01*
G01*
X6359610Y1205190D01*
G75*
G02*
X6327940Y1192100I-31610J31610D01*
G01*
X6196050D01*
G37*
Y1370550D02*
G36*
X6196050Y1370550D02*
Y1281500D01*
X6309480D01*
X6336300Y1308320D01*
Y1370550D01*
X6196050D01*
G37*
X6906050Y994480D02*
G36*
X6906050Y994480D02*
Y969000D01*
X6919000D01*
Y981530D01*
X6906050Y994480D01*
G37*
X6971700Y1370550D02*
G36*
X6971700Y1370550D02*
Y1216520D01*
X6983520Y1204700D01*
X7059100D01*
Y1370550D01*
X6971700D01*
G37*
X7453700Y1322990D02*
G36*
X7453700Y1322990D02*
Y1204700D01*
X7573200D01*
X7589000Y1218340D01*
G75*
G02*
X7617000Y1228780I28030J-32410D01*
G01*
X7782650D01*
G75*
G02*
X7812940Y1216210I-10J-42800D01*
G01*
X7838860Y1190290D01*
G75*
G02*
X7851430Y1160000I-30230J-30300D01*
G01*
Y1003000D01*
G75*
G02*
X7848670Y987890I-43000J50D01*
G01*
X7887390Y1026610D01*
G75*
G02*
X7919060Y1039700I31610J-31610D01*
G01*
X8065940D01*
G75*
G02*
X8097610Y1026610I60J-44700D01*
G01*
X8138250Y985970D01*
Y1225150D01*
X8331300D01*
Y1254000D01*
G75*
G02*
Y1254020I60310J10D01*
G01*
G75*
G02*
X8344390Y1285610I44670J0D01*
G01*
X8361390Y1302610D01*
G75*
G02*
X8393060Y1315700I31610J-31610D01*
G01*
X8397050D01*
Y1370550D01*
X8366990D01*
G75*
G02*
X8360650Y1355100I-41980J8200D01*
G01*
Y1322750D01*
X8328600D01*
G75*
G02*
X8304000Y1314970I-24590J34980D01*
G01*
X8163040D01*
G75*
G02*
X8132700Y1327500I-90J42790D01*
G01*
X8115700Y1344500D01*
G75*
G02*
X8105560Y1360650I30240J30240D01*
G01*
G75*
G02*
X8110550Y1324750I-126630J-35900D01*
G01*
G75*
G02*
Y1324700I-124560J-20D01*
G01*
G75*
G02*
X7846550I-132000J0D01*
G01*
G75*
G02*
X7854770Y1370550I132000J0D01*
G01*
X7851120D01*
G75*
G02*
X7839340Y1348460I-42010J8210D01*
G01*
X7818420Y1327540D01*
G75*
G02*
X7788130Y1314970I-30300J30230D01*
G01*
X7613000D01*
G75*
G02*
X7585200Y1325190I-30J42830D01*
G01*
X7565250Y1342190D01*
G75*
G02*
X7550430Y1370550I27770J32560D01*
G01*
X7453710D01*
X7453700Y1322990D01*
G37*
X8103380Y1370550D02*
G36*
X8103380Y1370550D02*
X8102330D01*
G75*
G02*
X8104450Y1364360I-123800J-45860D01*
G01*
G75*
G02*
X8103380Y1370550I41450J10350D01*
G01*
G37*
X8530100Y980050D02*
G36*
X8530100Y980050D02*
G75*
G02*
X8528890Y969000I-51100J0D01*
G01*
X8535940D01*
G75*
G02*
X8534300Y980980I43020J11990D01*
G01*
G75*
G02*
Y981000I60310J10D01*
G01*
Y1093900D01*
X8530100D01*
Y980050D01*
G37*
X8561050Y1370550D02*
G36*
X8561050Y1370550D02*
Y1341210D01*
G75*
G02*
X8568000Y1354480I57470J-21640D01*
G01*
Y1370550D01*
X8561050D01*
G37*
X8922700Y976000D02*
G36*
X8922700Y976000D02*
G75*
G02*
X8922150Y969000I-44710J-10D01*
G01*
X9491310D01*
G75*
G02*
X10066790I287740J-49700D01*
G01*
X10409050D01*
Y1370550D01*
X9813940D01*
G75*
G02*
X9841050Y1319300I-34890J-51250D01*
G01*
G75*
G02*
X9745830Y1266950I-62000J0D01*
G01*
X9574000D01*
G75*
G02*
X9537890Y1281910I20J51100D01*
G01*
X9482910Y1336890D01*
G75*
G02*
X9468010Y1370550I36140J36120D01*
G01*
X9164050D01*
Y1109000D01*
G75*
G02*
X9149090Y1072890I-51100J20D01*
G01*
X9110110Y1033910D01*
G75*
G02*
X9074000Y1018950I-36130J36140D01*
G01*
X9054450D01*
Y987300D01*
X8922700D01*
Y976000D01*
G37*
X9593650Y1370550D02*
G36*
X9593650Y1370550D02*
X9595150Y1369050D01*
X9742050D01*
G75*
G02*
X9744160Y1370550I37010J-49830D01*
G01*
X9593650D01*
G37*
X699050Y1818850D02*
G36*
X699050Y1818850D02*
Y1370550D01*
X816000D01*
Y1818850D01*
X699050D01*
G37*
X1278000Y1649520D02*
G36*
X1278000Y1649520D02*
Y1376800D01*
X1316100D01*
Y1370550D01*
X1341950D01*
Y1437300D01*
X1303650D01*
Y1601300D01*
X1473050D01*
Y1609700D01*
X1662850D01*
Y1428900D01*
X1473050D01*
Y1437300D01*
X1444050D01*
Y1375150D01*
X1448650Y1370550D01*
X1642000D01*
Y1376800D01*
X1858500D01*
Y1370550D01*
X1918500D01*
G75*
G02*
X2039500I60500J-13550D01*
G01*
X2139300D01*
Y1539430D01*
X1859880Y1818850D01*
X1279000D01*
Y1660410D01*
Y1660150D01*
G75*
G02*
Y1660140I-40930J0D01*
G01*
G75*
G02*
X1278000Y1649520I-56870J0D01*
G01*
G37*
X1986320Y1818850D02*
G36*
X1986320Y1818850D02*
X2215610Y1589560D01*
G75*
G02*
X2228700Y1557970I-31580J-31590D01*
G01*
G75*
G02*
Y1557950I-60310J-10D01*
G01*
Y1370550D01*
X2247000D01*
Y1466600D01*
X2411000D01*
Y1441000D01*
X2567000D01*
Y1443500D01*
X2691000D01*
Y1412670D01*
G75*
G02*
X2710180Y1370550I-62010J-53670D01*
G01*
X2847000D01*
Y1466600D01*
X2980910D01*
G75*
G02*
X2981940Y1471400I64400J-11310D01*
G01*
X2847000D01*
Y1527950D01*
X2786000D01*
Y1494500D01*
X2662000D01*
Y1530010D01*
G75*
G02*
X2596000Y1523680I-38000J48980D01*
G01*
Y1494500D01*
X2472000D01*
Y1663500D01*
X2596000D01*
Y1634320D01*
G75*
G02*
X2662000Y1627990I28000J-55310D01*
G01*
Y1663500D01*
X2786000D01*
Y1630050D01*
X2847000D01*
Y1644400D01*
X3011000D01*
Y1509690D01*
G75*
G02*
X3075300Y1508300I31000J-53720D01*
G01*
Y1665000D01*
G75*
G02*
Y1665020I60310J10D01*
G01*
G75*
G02*
X3088390Y1696610I44670J0D01*
G01*
X3152390Y1760610D01*
G75*
G02*
X3184060Y1773700I31610J-31610D01*
G01*
X3817480D01*
X3834350Y1790570D01*
Y1818850D01*
X2923750D01*
Y1799050D01*
G75*
G02*
Y1799030I-60310J-10D01*
G01*
G75*
G02*
X2910660Y1767440I-44670J0D01*
G01*
X2843610Y1700390D01*
G75*
G02*
X2811940Y1687300I-31610J31610D01*
G01*
X2386520D01*
X2367700Y1668480D01*
Y1644400D01*
X2411000D01*
Y1471400D01*
X2247000D01*
Y1644400D01*
X2278300D01*
Y1687000D01*
G75*
G02*
Y1687020I60310J10D01*
G01*
G75*
G02*
X2291390Y1718610I44670J0D01*
G01*
X2336390Y1763610D01*
G75*
G02*
X2368060Y1776700I31610J-31610D01*
G01*
X2793480D01*
X2834350Y1817570D01*
Y1818850D01*
X1986320D01*
G37*
X3164700Y1471400D02*
G36*
X3164700Y1471400D02*
Y1466600D01*
X3311000D01*
Y1441000D01*
X3467000D01*
Y1443500D01*
X3591000D01*
Y1412670D01*
G75*
G02*
X3610180Y1370550I-62010J-53670D01*
G01*
X3747000D01*
Y1466600D01*
X3880910D01*
G75*
G02*
X3881940Y1471400I64400J-11310D01*
G01*
X3747000D01*
Y1527950D01*
X3686000D01*
Y1494500D01*
X3562000D01*
Y1530010D01*
G75*
G02*
X3496000Y1523680I-38000J48980D01*
G01*
Y1494500D01*
X3372000D01*
Y1635300D01*
X3311000D01*
Y1471400D01*
X3164700D01*
G37*
X3910660Y1740440D02*
G36*
X3910660Y1740440D02*
X3894920Y1724700D01*
X3935480D01*
X4021390Y1810610D01*
G75*
G02*
X4032750Y1818850I31610J-31630D01*
G01*
X3923750D01*
Y1772050D01*
G75*
G02*
Y1772030I-60310J-10D01*
G01*
G75*
G02*
X3910660Y1740440I-44670J0D01*
G01*
G37*
X4069700Y1471400D02*
G36*
X4069700Y1471400D02*
Y1466600D01*
X4211000D01*
Y1441000D01*
X4367000D01*
Y1443500D01*
X4491000D01*
Y1412670D01*
G75*
G02*
X4510180Y1370550I-62010J-53670D01*
G01*
X4647000D01*
Y1466600D01*
X4780910D01*
G75*
G02*
X4781940Y1471400I64400J-11310D01*
G01*
X4647000D01*
Y1527950D01*
X4586000D01*
Y1494500D01*
X4462000D01*
Y1530010D01*
G75*
G02*
X4396000Y1523680I-38000J48980D01*
G01*
Y1494500D01*
X4272000D01*
Y1639300D01*
X4211000D01*
Y1471400D01*
X4069700D01*
G37*
X4966700D02*
G36*
X4966700Y1471400D02*
Y1466600D01*
X5111000D01*
Y1441000D01*
X5267000D01*
Y1443500D01*
X5391000D01*
Y1412670D01*
G75*
G02*
X5410180Y1370550I-62010J-53670D01*
G01*
X5547000D01*
Y1466600D01*
X5680910D01*
G75*
G02*
X5681920Y1471400I64340J-11030D01*
G01*
X5547000D01*
Y1527950D01*
X5486000D01*
Y1494500D01*
X5362000D01*
Y1530010D01*
G75*
G02*
X5296000Y1523680I-38000J48980D01*
G01*
Y1494500D01*
X5172000D01*
Y1630300D01*
X5111000D01*
Y1471400D01*
X4966700D01*
G37*
X5711000Y1630300D02*
G36*
X5711000Y1630300D02*
Y1509960D01*
G75*
G02*
X5804050Y1456290I31050J-53670D01*
G01*
G75*
G02*
X5791950Y1419500I-61990J0D01*
G01*
Y1380100D01*
G75*
G02*
Y1380090I-71620J0D01*
G01*
G75*
G02*
X5791050Y1370550I-51030J0D01*
G01*
X5883000D01*
G75*
G02*
X5883060Y1373160I88560J-730D01*
G01*
G75*
G02*
X5833000Y1434000I11940J60840D01*
G01*
G75*
G02*
X5883060Y1494840I62000J0D01*
G01*
G75*
G02*
X5883000Y1497500I88470J3330D01*
G01*
G75*
G02*
Y1497630I61560J70D01*
G01*
G75*
G02*
X5883170Y1502140I59910J0D01*
G01*
G75*
G02*
X5833000Y1563000I11830J60860D01*
G01*
G75*
G02*
X5937960Y1607700I62000J0D01*
G01*
X5952050D01*
Y1616300D01*
X6196050D01*
Y1370550D01*
X6336300D01*
Y1511000D01*
G75*
G02*
Y1511020I60310J10D01*
G01*
G75*
G02*
X6349390Y1542610I44670J0D01*
G01*
X6436080Y1629300D01*
X5943600D01*
G75*
G02*
X5934000Y1630300I-200J44630D01*
G01*
X5711000D01*
G37*
X6425700Y1492480D02*
G36*
X6425700Y1492480D02*
Y1370550D01*
X6662050D01*
Y1616300D01*
X6900700D01*
G75*
G02*
X6988370Y1593800I33300J-52320D01*
G01*
X7133550D01*
Y1444800D01*
X7034920D01*
G75*
G02*
X7018180I-8370J51950D01*
G01*
X6964550D01*
Y1452100D01*
X6944120D01*
X6958610Y1437610D01*
G75*
G02*
X6971700Y1406020I-31580J-31590D01*
G01*
G75*
G02*
Y1406000I-60310J-10D01*
G01*
Y1370550D01*
X7059100D01*
Y1409900D01*
X7364320D01*
X7364330Y1444800D01*
X7324550D01*
Y1593800D01*
X7493550D01*
Y1444800D01*
X7453730D01*
X7453710Y1370550D01*
X7550430D01*
G75*
G02*
X7550220Y1374750I42590J4230D01*
G01*
Y1615980D01*
G75*
G02*
Y1616010I39970J20D01*
G01*
G75*
G02*
X7566000Y1649170I42730J0D01*
G01*
X7592920Y1671120D01*
G75*
G02*
X7620000Y1680780I27090J-33150D01*
G01*
X7785930D01*
G75*
G02*
X7814000Y1670350I80J-42780D01*
G01*
X7837130Y1650330D01*
G75*
G02*
X7851910Y1617980I-28030J-32360D01*
G01*
Y1617960D01*
Y1617910D01*
Y1378750D01*
G75*
G02*
X7851120Y1370550I-42800J-10D01*
G01*
X7854770D01*
G75*
G02*
X8102330I123780J-45860D01*
G01*
X8103380D01*
G75*
G02*
X8103170Y1374740I42520J4230D01*
G01*
G75*
G02*
Y1374750I40930J10D01*
G01*
Y1374770D01*
Y1374840D01*
Y1618980D01*
G75*
G02*
X8121360Y1653980I42780J-10D01*
G01*
X8155300Y1677910D01*
G75*
G02*
X8180000Y1685760I24700J-34930D01*
G01*
X8295000D01*
G75*
G02*
X8320340Y1677450I0J-42800D01*
G01*
X8350260Y1655510D01*
G75*
G02*
X8367780Y1620980I-25270J-34530D01*
G01*
Y1378750D01*
G75*
G02*
Y1378740I-63660J0D01*
G01*
G75*
G02*
X8366990Y1370550I-42750J-10D01*
G01*
X8397050D01*
Y1444700D01*
X8434310D01*
X8434300Y1461130D01*
Y1675780D01*
X8405480Y1704600D01*
X7557520D01*
X7514310Y1661390D01*
G75*
G02*
X7482640Y1648300I-31610J31610D01*
G01*
X6581520D01*
X6425700Y1492480D01*
G37*
X8478220Y1758300D02*
G36*
X8478220Y1758300D02*
X8510610Y1725910D01*
G75*
G02*
X8523700Y1694320I-31580J-31590D01*
G01*
G75*
G02*
Y1694300I-60310J-10D01*
G01*
Y1461170D01*
X8523710Y1444700D01*
X8561050D01*
Y1370550D01*
X8568000D01*
Y1533000D01*
G75*
G02*
X8582960Y1569110I51100J-20D01*
G01*
X8605940Y1592090D01*
G75*
G02*
X8642050Y1607050I36130J-36140D01*
G01*
X8703300D01*
Y1751300D01*
X8872700D01*
Y1759700D01*
X9061950D01*
Y1818850D01*
X8904070D01*
X8856610Y1771390D01*
G75*
G02*
X8824940Y1758300I-31610J31610D01*
G01*
X8478220D01*
G37*
X9164050Y1818850D02*
G36*
X9164050Y1818850D02*
Y1370550D01*
X9468010D01*
G75*
G02*
X9467950Y1373000I51040J2480D01*
G01*
Y1552000D01*
X9407000D01*
Y1818850D01*
X9280050D01*
Y1754480D01*
G75*
G02*
X9291000Y1719300I-51040J-35180D01*
G01*
G75*
G02*
X9167000I-62000J0D01*
G01*
G75*
G02*
X9177950Y1754480I61990J0D01*
G01*
Y1818850D01*
X9164050D01*
G37*
X9570050Y1552000D02*
G36*
X9570050Y1552000D02*
Y1394150D01*
X9593650Y1370550D01*
X9744160D01*
G75*
G02*
X9813940I34890J-51240D01*
G01*
X10409050D01*
Y1818850D01*
X10151000D01*
Y1552000D01*
X9927000D01*
Y1653120D01*
G75*
G02*
X9631000I-148000J65880D01*
G01*
Y1552000D01*
X9570050D01*
G37*
X9631000Y1818850D02*
G36*
X9631000Y1818850D02*
Y1784880D01*
G75*
G02*
X9651430Y1818850I148010J-65890D01*
G01*
X9631000D01*
G37*
X9906570D02*
G36*
X9906570Y1818850D02*
G75*
G02*
X9927000Y1784880I-127580J-99860D01*
G01*
Y1818850D01*
X9906570D01*
G37*
X699050Y2919300D02*
G36*
X699050Y2919300D02*
Y1818850D01*
X816000D01*
Y2919300D01*
X699050D01*
G37*
X1034800D02*
G36*
X1034800Y2919300D02*
Y2575410D01*
X1153000Y2693610D01*
Y2772300D01*
X1122050D01*
Y2919300D01*
X1034800D01*
G37*
X1128000Y2507390D02*
G36*
X1128000Y2507390D02*
Y2166300D01*
X1147050D01*
Y2303000D01*
G75*
G02*
X1229050Y2385000I82000J0D01*
G01*
X8224050D01*
G75*
G02*
X8306050Y2303000I0J-82000D01*
G01*
Y2166300D01*
X8326050D01*
Y1872300D01*
X8122050D01*
Y2166300D01*
X8142050D01*
Y2221000D01*
X7306050D01*
Y2166300D01*
X7326050D01*
Y1872300D01*
X7122050D01*
Y2166300D01*
X7142050D01*
Y2221000D01*
X6306050D01*
Y2166300D01*
X6326050D01*
Y1872300D01*
X6122050D01*
Y2166300D01*
X6142050D01*
Y2221000D01*
X5306050D01*
Y2166300D01*
X5326050D01*
Y1872300D01*
X5122050D01*
Y2166300D01*
X5142050D01*
Y2221000D01*
X4306050D01*
Y2166300D01*
X4326050D01*
Y1872300D01*
X4122050D01*
Y2166300D01*
X4142050D01*
Y2221000D01*
X3306050D01*
Y2166300D01*
X3326050D01*
Y1872300D01*
X3122050D01*
Y2166300D01*
X3142050D01*
Y2221000D01*
X2306050D01*
Y2166300D01*
X2326050D01*
Y1872300D01*
X2122050D01*
Y2166300D01*
X2142050D01*
Y2221000D01*
X1311050D01*
Y2166300D01*
X1326050D01*
Y1872300D01*
X1279000D01*
Y1818850D01*
X1859880D01*
X1847390Y1831340D01*
G75*
G02*
X1834300Y1862930I31580J31590D01*
G01*
G75*
G02*
Y1862950I60310J10D01*
G01*
Y1872300D01*
X1632050D01*
Y1897300D01*
X1396550D01*
Y2141300D01*
X1632050D01*
Y2166300D01*
X1836050D01*
Y2101300D01*
X1879050D01*
G75*
G02*
X1961050Y2019300I0J-82000D01*
G01*
G75*
G02*
X1923700Y1950520I-82000J0D01*
G01*
Y1881470D01*
X1986320Y1818850D01*
X2834350D01*
Y1872300D01*
X2632050D01*
Y1897300D01*
X2396550D01*
Y2141300D01*
X2632050D01*
Y2166300D01*
X2836050D01*
Y2101300D01*
X2879050D01*
G75*
G02*
X2961040Y2019300I0J-82000D01*
G01*
G75*
G02*
X2923750Y1950560I-82000J0D01*
G01*
Y1818850D01*
X3834350D01*
Y1872300D01*
X3632050D01*
Y1897300D01*
X3396550D01*
Y2141300D01*
X3632050D01*
Y2166300D01*
X3836050D01*
Y2101300D01*
X3879050D01*
G75*
G02*
X3961040Y2019300I0J-82000D01*
G01*
G75*
G02*
X3923750Y1950560I-82000J0D01*
G01*
Y1818850D01*
X4032750D01*
G75*
G02*
X4053060Y1823700I20250J-39840D01*
G01*
X4744480D01*
X4793080Y1872300D01*
X4632050D01*
Y1897300D01*
X4396550D01*
Y2141300D01*
X4632050D01*
Y2166300D01*
X4836050D01*
Y2101300D01*
X4879050D01*
G75*
G02*
X4961050Y2019300I0J-82000D01*
G01*
G75*
G02*
X4932750Y1957330I-82000J0D01*
G01*
Y1904050D01*
G75*
G02*
Y1904030I-60310J-10D01*
G01*
G75*
G02*
X4919660Y1872440I-44670J0D01*
G01*
X4914920Y1867700D01*
X5804480D01*
X5809080Y1872300D01*
X5632050D01*
Y1897300D01*
X5396550D01*
Y2141300D01*
X5632050D01*
Y2166300D01*
X5836050D01*
Y2101300D01*
X5879050D01*
G75*
G02*
X5961050Y2019300I0J-82000D01*
G01*
G75*
G02*
X5913700Y1944980I-82000J0D01*
G01*
Y1869000D01*
G75*
G02*
Y1868980I-60310J-10D01*
G01*
G75*
G02*
X5900610Y1837390I-44670J0D01*
G01*
X5883920Y1820700D01*
X6385480D01*
X6439390Y1874610D01*
G75*
G02*
X6471060Y1887700I31610J-31610D01*
G01*
X6632050D01*
Y1897300D01*
X6396550D01*
Y2141300D01*
X6632050D01*
Y2166300D01*
X6836050D01*
Y2101300D01*
X6879050D01*
G75*
G02*
X6961040Y2019300I0J-82000D01*
G01*
G75*
G02*
X6923750Y1950560I-82000J0D01*
G01*
Y1867050D01*
G75*
G02*
X6912760Y1837700I-44720J10D01*
G01*
X7350480D01*
X7399390Y1886610D01*
G75*
G02*
X7416550Y1897300I31590J-31590D01*
G01*
X7396550D01*
Y2141300D01*
X7632050D01*
Y2166300D01*
X7836050D01*
Y2101300D01*
X7879050D01*
G75*
G02*
X7961040Y2019300I0J-82000D01*
G01*
G75*
G02*
X7923750Y1950560I-82000J0D01*
G01*
Y1877050D01*
G75*
G02*
X7912760Y1847700I-44720J10D01*
G01*
X8806480D01*
X8831080Y1872300D01*
X8632050D01*
Y1897300D01*
X8396550D01*
Y2141300D01*
X8632050D01*
Y2166300D01*
X8836050D01*
Y2101300D01*
X8879050D01*
G75*
G02*
X8961050Y2019300I0J-82000D01*
G01*
G75*
G02*
X8930700Y1955610I-82000J0D01*
G01*
Y1864000D01*
G75*
G02*
Y1863980I-60310J-10D01*
G01*
G75*
G02*
X8917610Y1832390I-44670J0D01*
G01*
X8904070Y1818850D01*
X9061950D01*
Y2827000D01*
G75*
G02*
X9076910Y2863110I51100J-20D01*
G01*
X9133100Y2919300D01*
X8961050D01*
G75*
G02*
X8879050Y2837300I-82000J0D01*
G01*
X8836050D01*
Y2772300D01*
X8632050D01*
Y2797300D01*
X8396550D01*
Y2919300D01*
X8326050D01*
Y2772300D01*
X8122050D01*
Y2919300D01*
X7961050D01*
G75*
G02*
X7879050Y2837300I-82000J0D01*
G01*
X7836050D01*
Y2772300D01*
X7632050D01*
Y2797300D01*
X7396550D01*
Y2919300D01*
X7326050D01*
Y2772300D01*
X7122050D01*
Y2919300D01*
X6961050D01*
G75*
G02*
X6879050Y2837300I-82000J0D01*
G01*
X6836050D01*
Y2772300D01*
X6632050D01*
Y2797300D01*
X6396550D01*
Y2919300D01*
X6326050D01*
Y2772300D01*
X6122050D01*
Y2919300D01*
X5961050D01*
G75*
G02*
X5879050Y2837300I-82000J0D01*
G01*
X5836050D01*
Y2772300D01*
X5632050D01*
Y2797300D01*
X5396550D01*
Y2919300D01*
X5326050D01*
Y2772300D01*
X5122050D01*
Y2919300D01*
X4961050D01*
G75*
G02*
X4879050Y2837300I-82000J0D01*
G01*
X4836050D01*
Y2772300D01*
X4632050D01*
Y2797300D01*
X4396550D01*
Y2919300D01*
X4326050D01*
Y2772300D01*
X4122050D01*
Y2919300D01*
X3961050D01*
G75*
G02*
X3879050Y2837300I-82000J0D01*
G01*
X3836050D01*
Y2772300D01*
X3632050D01*
Y2797300D01*
X3396550D01*
Y2919300D01*
X3326050D01*
Y2772300D01*
X3122050D01*
Y2919300D01*
X2961050D01*
G75*
G02*
X2879050Y2837300I-82000J0D01*
G01*
X2836050D01*
Y2772300D01*
X2632050D01*
Y2797300D01*
X2396550D01*
Y2919300D01*
X2326050D01*
Y2772300D01*
X2122050D01*
Y2919300D01*
X1961050D01*
G75*
G02*
X1879050Y2837300I-82000J0D01*
G01*
X1836050D01*
Y2772300D01*
X1632050D01*
Y2797300D01*
X1396550D01*
Y2919300D01*
X1326050D01*
Y2772300D01*
X1267000D01*
Y2670000D01*
G75*
G02*
X1250310Y2629690I-57070J20D01*
G01*
X1128000Y2507390D01*
G37*
X9164050Y2805850D02*
G36*
X9164050Y2805850D02*
Y1818850D01*
X9177950D01*
Y1964000D01*
G75*
G02*
X9192910Y2000110I51100J-20D01*
G01*
X9276190Y2083390D01*
G75*
G02*
X9312300Y2098350I36130J-36140D01*
G01*
X9603650D01*
Y2101300D01*
X9776650D01*
Y1937300D01*
X9603650D01*
Y1996250D01*
X9333450D01*
X9280050Y1942850D01*
Y1818850D01*
X9407000D01*
Y1886000D01*
X9631000D01*
Y1818850D01*
X9651430D01*
G75*
G02*
X9906570I127570J-99850D01*
G01*
X9927000D01*
Y1886000D01*
X9989950D01*
Y1940850D01*
X9962550Y1968250D01*
X9954450D01*
Y1937300D01*
X9781450D01*
Y2101300D01*
X9954450D01*
Y2070350D01*
X9983700D01*
G75*
G02*
X10019810Y2055390I-20J-51100D01*
G01*
X10077090Y1998110D01*
G75*
G02*
X10092050Y1962000I-36140J-36130D01*
G01*
Y1886000D01*
X10151000D01*
Y1818850D01*
X10409050D01*
Y2641420D01*
G75*
G02*
X10179000Y2476220I-230060J77590D01*
G01*
X9779000D01*
G75*
G02*
X9536220Y2719000I0J242780D01*
G01*
Y2858950D01*
X9217150D01*
X9164050Y2805850D01*
G37*
X699050Y3819300D02*
G36*
X699050Y3819300D02*
Y2919300D01*
X816000D01*
Y3819300D01*
X699050D01*
G37*
X930000D02*
G36*
X930000Y3819300D02*
Y3329850D01*
G75*
G02*
X937490Y3339110I47210J-30530D01*
G01*
X1171000Y3572610D01*
Y3672300D01*
X1122050D01*
Y3819300D01*
X930000D01*
G37*
X1034800Y3275190D02*
G36*
X1034800Y3275190D02*
Y2919300D01*
X1122050D01*
Y3066300D01*
X1147050D01*
Y3203000D01*
G75*
G02*
X1229050Y3285000I82000J0D01*
G01*
X8224050D01*
G75*
G02*
X8306050Y3203000I0J-82000D01*
G01*
Y3066300D01*
X8326050D01*
Y2919300D01*
X8396550D01*
Y3041300D01*
X8632050D01*
Y3066300D01*
X8836050D01*
Y3001300D01*
X8879050D01*
G75*
G02*
X8961050Y2919300I0J-82000D01*
G01*
X9133100D01*
X9159890Y2946090D01*
G75*
G02*
X9196000Y2961050I36130J-36140D01*
G01*
X9536220D01*
Y3119000D01*
G75*
G02*
X9779000Y3361780I242780J0D01*
G01*
X10179000D01*
G75*
G02*
X10409050Y3196580I-10J-242790D01*
G01*
Y3819300D01*
X8961050D01*
G75*
G02*
X8879050Y3737300I-82000J0D01*
G01*
X8836050D01*
Y3672300D01*
X8632050D01*
Y3697300D01*
X8396550D01*
Y3819300D01*
X8326050D01*
Y3672300D01*
X8122050D01*
Y3819300D01*
X7961050D01*
G75*
G02*
X7879050Y3737300I-82000J0D01*
G01*
X7836050D01*
Y3672300D01*
X7632050D01*
Y3697300D01*
X7396550D01*
Y3819300D01*
X7326050D01*
Y3672300D01*
X7122050D01*
Y3819300D01*
X6961050D01*
G75*
G02*
X6879050Y3737300I-82000J0D01*
G01*
X6836050D01*
Y3672300D01*
X6632050D01*
Y3697300D01*
X6396550D01*
Y3819300D01*
X6326050D01*
Y3672300D01*
X6122050D01*
Y3819300D01*
X5961050D01*
G75*
G02*
X5879050Y3737300I-82000J0D01*
G01*
X5836050D01*
Y3672300D01*
X5632050D01*
Y3697300D01*
X5396550D01*
Y3819300D01*
X5326050D01*
Y3672300D01*
X5122050D01*
Y3819300D01*
X4961050D01*
G75*
G02*
X4879050Y3737300I-82000J0D01*
G01*
X4836050D01*
Y3672300D01*
X4632050D01*
Y3697300D01*
X4396550D01*
Y3819300D01*
X4326050D01*
Y3672300D01*
X4122050D01*
Y3819300D01*
X3961050D01*
G75*
G02*
X3879050Y3737300I-82000J0D01*
G01*
X3836050D01*
Y3672300D01*
X3632050D01*
Y3697300D01*
X3396550D01*
Y3819300D01*
X3326050D01*
Y3672300D01*
X3122050D01*
Y3819300D01*
X2961050D01*
G75*
G02*
X2879050Y3737300I-82000J0D01*
G01*
X2836050D01*
Y3672300D01*
X2632050D01*
Y3697300D01*
X2396550D01*
Y3819300D01*
X2326050D01*
Y3672300D01*
X2122050D01*
Y3819300D01*
X1961050D01*
G75*
G02*
X1879050Y3737300I-82000J0D01*
G01*
X1836050D01*
Y3672300D01*
X1632050D01*
Y3697300D01*
X1396550D01*
Y3819300D01*
X1326050D01*
Y3672300D01*
X1285000D01*
Y3549000D01*
G75*
G02*
X1268310Y3508690I-57070J20D01*
G01*
X1034800Y3275190D01*
G37*
X1311050Y3121000D02*
G36*
X1311050Y3121000D02*
Y3066300D01*
X1326050D01*
Y2919300D01*
X1396550D01*
Y3041300D01*
X1632050D01*
Y3066300D01*
X1836050D01*
Y3001300D01*
X1879050D01*
G75*
G02*
X1961050Y2919300I0J-82000D01*
G01*
X2122050D01*
Y3066300D01*
X2142050D01*
Y3121000D01*
X1311050D01*
G37*
X2306050D02*
G36*
X2306050Y3121000D02*
Y3066300D01*
X2326050D01*
Y2919300D01*
X2396550D01*
Y3041300D01*
X2632050D01*
Y3066300D01*
X2836050D01*
Y3001300D01*
X2879050D01*
G75*
G02*
X2961050Y2919300I0J-82000D01*
G01*
X3122050D01*
Y3066300D01*
X3142050D01*
Y3121000D01*
X2306050D01*
G37*
X3306050D02*
G36*
X3306050Y3121000D02*
Y3066300D01*
X3326050D01*
Y2919300D01*
X3396550D01*
Y3041300D01*
X3632050D01*
Y3066300D01*
X3836050D01*
Y3001300D01*
X3879050D01*
G75*
G02*
X3961050Y2919300I0J-82000D01*
G01*
X4122050D01*
Y3066300D01*
X4142050D01*
Y3121000D01*
X3306050D01*
G37*
X4306050D02*
G36*
X4306050Y3121000D02*
Y3066300D01*
X4326050D01*
Y2919300D01*
X4396550D01*
Y3041300D01*
X4632050D01*
Y3066300D01*
X4836050D01*
Y3001300D01*
X4879050D01*
G75*
G02*
X4961050Y2919300I0J-82000D01*
G01*
X5122050D01*
Y3066300D01*
X5142050D01*
Y3121000D01*
X4306050D01*
G37*
X5306050D02*
G36*
X5306050Y3121000D02*
Y3066300D01*
X5326050D01*
Y2919300D01*
X5396550D01*
Y3041300D01*
X5632050D01*
Y3066300D01*
X5836050D01*
Y3001300D01*
X5879050D01*
G75*
G02*
X5961050Y2919300I0J-82000D01*
G01*
X6122050D01*
Y3066300D01*
X6142050D01*
Y3121000D01*
X5306050D01*
G37*
X6306050D02*
G36*
X6306050Y3121000D02*
Y3066300D01*
X6326050D01*
Y2919300D01*
X6396550D01*
Y3041300D01*
X6632050D01*
Y3066300D01*
X6836050D01*
Y3001300D01*
X6879050D01*
G75*
G02*
X6961050Y2919300I0J-82000D01*
G01*
X7122050D01*
Y3066300D01*
X7142050D01*
Y3121000D01*
X6306050D01*
G37*
X7306050D02*
G36*
X7306050Y3121000D02*
Y3066300D01*
X7326050D01*
Y2919300D01*
X7396550D01*
Y3041300D01*
X7632050D01*
Y3066300D01*
X7836050D01*
Y3001300D01*
X7879050D01*
G75*
G02*
X7961050Y2919300I0J-82000D01*
G01*
X8122050D01*
Y3066300D01*
X8142050D01*
Y3121000D01*
X7306050D01*
G37*
X699050Y4719300D02*
G36*
X699050Y4719300D02*
Y3819300D01*
X816000D01*
Y4043800D01*
G75*
G02*
X832690Y4084110I57070J-20D01*
G01*
X1165000Y4416410D01*
Y4572300D01*
X1122050D01*
Y4719300D01*
X699050D01*
G37*
X930000Y4020190D02*
G36*
X930000Y4020190D02*
Y3819300D01*
X1122050D01*
Y3966300D01*
X1147050D01*
Y4103000D01*
G75*
G02*
X1229050Y4185000I82000J0D01*
G01*
X8224050D01*
G75*
G02*
X8306050Y4103000I0J-82000D01*
G01*
Y3966300D01*
X8326050D01*
Y3819300D01*
X8396550D01*
Y3941300D01*
X8632050D01*
Y3966300D01*
X8836050D01*
Y3901300D01*
X8879050D01*
G75*
G02*
X8961050Y3819300I0J-82000D01*
G01*
X10409050D01*
Y4719300D01*
X9991800D01*
G75*
G02*
X9566300I-212750J200000D01*
G01*
X8961050D01*
G75*
G02*
X8879050Y4637300I-82000J0D01*
G01*
X8836050D01*
Y4572300D01*
X8632050D01*
Y4597300D01*
X8396550D01*
Y4719300D01*
X8326050D01*
Y4572300D01*
X8122050D01*
Y4719300D01*
X7961050D01*
G75*
G02*
X7879050Y4637300I-82000J0D01*
G01*
X7836050D01*
Y4572300D01*
X7632050D01*
Y4597300D01*
X7396550D01*
Y4719300D01*
X7326050D01*
Y4572300D01*
X7122050D01*
Y4719300D01*
X6961050D01*
G75*
G02*
X6879050Y4637300I-82000J0D01*
G01*
X6836050D01*
Y4572300D01*
X6632050D01*
Y4597300D01*
X6396550D01*
Y4719300D01*
X6326050D01*
Y4572300D01*
X6122050D01*
Y4719300D01*
X5961050D01*
G75*
G02*
X5879050Y4637300I-82000J0D01*
G01*
X5836050D01*
Y4572300D01*
X5632050D01*
Y4597300D01*
X5396550D01*
Y4719300D01*
X5326050D01*
Y4572300D01*
X5122050D01*
Y4719300D01*
X4961050D01*
G75*
G02*
X4879050Y4637300I-82000J0D01*
G01*
X4836050D01*
Y4572300D01*
X4632050D01*
Y4597300D01*
X4396550D01*
Y4719300D01*
X4326050D01*
Y4572300D01*
X4122050D01*
Y4719300D01*
X3961050D01*
G75*
G02*
X3879050Y4637300I-82000J0D01*
G01*
X3836050D01*
Y4572300D01*
X3632050D01*
Y4597300D01*
X3396550D01*
Y4719300D01*
X3326050D01*
Y4572300D01*
X3122050D01*
Y4719300D01*
X2961050D01*
G75*
G02*
X2879050Y4637300I-82000J0D01*
G01*
X2836050D01*
Y4572300D01*
X2632050D01*
Y4597300D01*
X2396550D01*
Y4719300D01*
X2326050D01*
Y4572300D01*
X2122050D01*
Y4719300D01*
X1961050D01*
G75*
G02*
X1879050Y4637300I-82000J0D01*
G01*
X1836050D01*
Y4572300D01*
X1632050D01*
Y4597300D01*
X1396550D01*
Y4719300D01*
X1326050D01*
Y4572300D01*
X1279000D01*
Y4392800D01*
G75*
G02*
X1262310Y4352490I-57070J20D01*
G01*
X930000Y4020190D01*
G37*
X1311050Y4021000D02*
G36*
X1311050Y4021000D02*
Y3966300D01*
X1326050D01*
Y3819300D01*
X1396550D01*
Y3941300D01*
X1632050D01*
Y3966300D01*
X1836050D01*
Y3901300D01*
X1879050D01*
G75*
G02*
X1961050Y3819300I0J-82000D01*
G01*
X2122050D01*
Y3966300D01*
X2142050D01*
Y4021000D01*
X1311050D01*
G37*
X2306050D02*
G36*
X2306050Y4021000D02*
Y3966300D01*
X2326050D01*
Y3819300D01*
X2396550D01*
Y3941300D01*
X2632050D01*
Y3966300D01*
X2836050D01*
Y3901300D01*
X2879050D01*
G75*
G02*
X2961050Y3819300I0J-82000D01*
G01*
X3122050D01*
Y3966300D01*
X3142050D01*
Y4021000D01*
X2306050D01*
G37*
X3306050D02*
G36*
X3306050Y4021000D02*
Y3966300D01*
X3326050D01*
Y3819300D01*
X3396550D01*
Y3941300D01*
X3632050D01*
Y3966300D01*
X3836050D01*
Y3901300D01*
X3879050D01*
G75*
G02*
X3961050Y3819300I0J-82000D01*
G01*
X4122050D01*
Y3966300D01*
X4142050D01*
Y4021000D01*
X3306050D01*
G37*
X4306050D02*
G36*
X4306050Y4021000D02*
Y3966300D01*
X4326050D01*
Y3819300D01*
X4396550D01*
Y3941300D01*
X4632050D01*
Y3966300D01*
X4836050D01*
Y3901300D01*
X4879050D01*
G75*
G02*
X4961050Y3819300I0J-82000D01*
G01*
X5122050D01*
Y3966300D01*
X5142050D01*
Y4021000D01*
X4306050D01*
G37*
X5306050D02*
G36*
X5306050Y4021000D02*
Y3966300D01*
X5326050D01*
Y3819300D01*
X5396550D01*
Y3941300D01*
X5632050D01*
Y3966300D01*
X5836050D01*
Y3901300D01*
X5879050D01*
G75*
G02*
X5961050Y3819300I0J-82000D01*
G01*
X6122050D01*
Y3966300D01*
X6142050D01*
Y4021000D01*
X5306050D01*
G37*
X6306050D02*
G36*
X6306050Y4021000D02*
Y3966300D01*
X6326050D01*
Y3819300D01*
X6396550D01*
Y3941300D01*
X6632050D01*
Y3966300D01*
X6836050D01*
Y3901300D01*
X6879050D01*
G75*
G02*
X6961050Y3819300I0J-82000D01*
G01*
X7122050D01*
Y3966300D01*
X7142050D01*
Y4021000D01*
X6306050D01*
G37*
X7306050D02*
G36*
X7306050Y4021000D02*
Y3966300D01*
X7326050D01*
Y3819300D01*
X7396550D01*
Y3941300D01*
X7632050D01*
Y3966300D01*
X7836050D01*
Y3901300D01*
X7879050D01*
G75*
G02*
X7961050Y3819300I0J-82000D01*
G01*
X8122050D01*
Y3966300D01*
X8142050D01*
Y4021000D01*
X7306050D01*
G37*
X699050Y4919300D02*
G36*
X699050Y4919300D02*
Y4719300D01*
X1122050D01*
Y4866300D01*
X1147050D01*
Y4919300D01*
X853630D01*
G75*
G02*
X804470I-24580J149990D01*
G01*
X699050D01*
G37*
X1311050D02*
G36*
X1311050Y4919300D02*
Y4866300D01*
X1326050D01*
Y4719300D01*
X1396550D01*
Y4841300D01*
X1632050D01*
Y4866300D01*
X1836050D01*
Y4801300D01*
X1879050D01*
G75*
G02*
X1961050Y4719300I0J-82000D01*
G01*
X2122050D01*
Y4866300D01*
X2142050D01*
Y4919300D01*
X1311050D01*
G37*
X2306050D02*
G36*
X2306050Y4919300D02*
Y4866300D01*
X2326050D01*
Y4719300D01*
X2396550D01*
Y4841300D01*
X2632050D01*
Y4866300D01*
X2836050D01*
Y4801300D01*
X2879050D01*
G75*
G02*
X2961050Y4719300I0J-82000D01*
G01*
X3122050D01*
Y4866300D01*
X3142050D01*
Y4919300D01*
X2306050D01*
G37*
X3306050D02*
G36*
X3306050Y4919300D02*
Y4866300D01*
X3326050D01*
Y4719300D01*
X3396550D01*
Y4841300D01*
X3632050D01*
Y4866300D01*
X3836050D01*
Y4801300D01*
X3879050D01*
G75*
G02*
X3961050Y4719300I0J-82000D01*
G01*
X4122050D01*
Y4866300D01*
X4142050D01*
Y4919300D01*
X3306050D01*
G37*
X4306050D02*
G36*
X4306050Y4919300D02*
Y4866300D01*
X4326050D01*
Y4719300D01*
X4396550D01*
Y4841300D01*
X4632050D01*
Y4866300D01*
X4836050D01*
Y4801300D01*
X4879050D01*
G75*
G02*
X4961050Y4719300I0J-82000D01*
G01*
X5122050D01*
Y4866300D01*
X5142050D01*
Y4919300D01*
X4306050D01*
G37*
X5306050D02*
G36*
X5306050Y4919300D02*
Y4866300D01*
X5326050D01*
Y4719300D01*
X5396550D01*
Y4841300D01*
X5632050D01*
Y4866300D01*
X5836050D01*
Y4801300D01*
X5879050D01*
G75*
G02*
X5961050Y4719300I0J-82000D01*
G01*
X6122050D01*
Y4866300D01*
X6142050D01*
Y4919300D01*
X5306050D01*
G37*
X6306050D02*
G36*
X6306050Y4919300D02*
Y4866300D01*
X6326050D01*
Y4719300D01*
X6396550D01*
Y4841300D01*
X6632050D01*
Y4866300D01*
X6836050D01*
Y4801300D01*
X6879050D01*
G75*
G02*
X6961050Y4719300I0J-82000D01*
G01*
X7122050D01*
Y4866300D01*
X7142050D01*
Y4919300D01*
X6306050D01*
G37*
X7306050D02*
G36*
X7306050Y4919300D02*
Y4866300D01*
X7326050D01*
Y4719300D01*
X7396550D01*
Y4841300D01*
X7632050D01*
Y4866300D01*
X7836050D01*
Y4801300D01*
X7879050D01*
G75*
G02*
X7961050Y4719300I0J-82000D01*
G01*
X8122050D01*
Y4866300D01*
X8142050D01*
Y4919300D01*
X7306050D01*
G37*
X8306050D02*
G36*
X8306050Y4919300D02*
Y4866300D01*
X8326050D01*
Y4719300D01*
X8396550D01*
Y4841300D01*
X8632050D01*
Y4866300D01*
X8836050D01*
Y4801300D01*
X8879050D01*
G75*
G02*
X8961050Y4719300I0J-82000D01*
G01*
X9566300D01*
G75*
G02*
X9487050Y4919300I212750J200000D01*
G01*
X9153630D01*
G75*
G02*
X9104470I-24580J150030D01*
G01*
X8306050D01*
G37*
X10071050D02*
G36*
X10071050Y4919300D02*
G75*
G02*
X9991800Y4719300I-292000J0D01*
G01*
X10409050D01*
Y4919300D01*
X10071050D01*
G37*
X699050Y4990530D02*
G36*
X699050Y4990530D02*
Y4919300D01*
X804470D01*
G75*
G02*
X699050Y4990530I24580J150000D01*
G01*
G37*
X981050Y5069300D02*
G36*
X981050Y5069300D02*
G75*
G02*
X853630Y4919300I-152000J0D01*
G01*
X1147050D01*
Y5003000D01*
G75*
G02*
X1229050Y5085000I82000J0D01*
G01*
X8224050D01*
G75*
G02*
X8306050Y5003000I0J-82000D01*
G01*
Y4919300D01*
X9104470D01*
G75*
G02*
X8977050Y5069300I24580J150000D01*
G01*
G75*
G02*
X9050280Y5199300I152000J0D01*
G01*
X907820D01*
G75*
G02*
X981050Y5069320I-78750J-129990D01*
G01*
G75*
G02*
Y5069300I-190990J-10D01*
G01*
G37*
X1311050Y4921000D02*
G36*
X1311050Y4921000D02*
Y4919300D01*
X2142050D01*
Y4921000D01*
X1311050D01*
G37*
X2306050D02*
G36*
X2306050Y4921000D02*
Y4919300D01*
X3142050D01*
Y4921000D01*
X2306050D01*
G37*
X3306050D02*
G36*
X3306050Y4921000D02*
Y4919300D01*
X4142050D01*
Y4921000D01*
X3306050D01*
G37*
X4306050D02*
G36*
X4306050Y4921000D02*
Y4919300D01*
X5142050D01*
Y4921000D01*
X4306050D01*
G37*
X5306050D02*
G36*
X5306050Y4921000D02*
Y4919300D01*
X6142050D01*
Y4921000D01*
X5306050D01*
G37*
X6306050D02*
G36*
X6306050Y4921000D02*
Y4919300D01*
X7142050D01*
Y4921000D01*
X6306050D01*
G37*
X7306050D02*
G36*
X7306050Y4921000D02*
Y4919300D01*
X8142050D01*
Y4921000D01*
X7306050D01*
G37*
X9281050Y5069300D02*
G36*
X9281050Y5069300D02*
G75*
G02*
X9153630Y4919300I-152000J0D01*
G01*
X9487050D01*
G75*
G02*
X9696200Y5199300I292000J0D01*
G01*
X9207820D01*
G75*
G02*
X9281050Y5069320I-78750J-129990D01*
G01*
G75*
G02*
Y5069300I-190990J-10D01*
G01*
G37*
X9861900Y5199300D02*
G36*
X9861900Y5199300D02*
G75*
G02*
X10071050Y4919300I-82850J-280000D01*
G01*
X10409050D01*
Y5199300D01*
X9861900D01*
G37*
X1750250Y1055800D02*
X1622800D01*
X1599000Y1032000D01*
Y690000D01*
X1660000Y629000D01*
X6925000D01*
X6966000Y670000D01*
Y1001000D01*
X6925000Y1042000D01*
X6784250D01*
X6784050Y1041800D01*
X6999200Y636730D02*
X6986770Y624300D01*
X7575380D01*
G75*
G02*
X7575220Y628000I42630J3700D01*
G01*
Y668250D01*
X7254040D01*
G75*
G02*
X7219520Y681660I-30J51050D01*
G01*
X7156400Y739480D01*
G75*
G02*
X7139950Y780620I34490J37650D01*
G01*
Y837100D01*
X7067500D01*
Y1061100D01*
X7390600D01*
Y837100D01*
X7242050D01*
Y799480D01*
X7273850Y770350D01*
X7575220D01*
Y842000D01*
G75*
G02*
X7579820Y861300I42780J0D01*
G01*
X7527060D01*
G75*
G02*
X7495390Y874390I-60J44710D01*
G01*
X7433390Y936390D01*
G75*
G02*
X7420300Y968000I31610J31610D01*
G01*
Y1035480D01*
X7394480Y1061300D01*
X6972170D01*
X6999200Y1034270D01*
G75*
G02*
X7013000Y1001000I-33200J-33270D01*
G01*
Y670000D01*
G75*
G02*
X6999200Y636730I-47000J0D01*
G01*
G36*
X6999200Y636730D02*
X6986770Y624300D01*
X7575380D01*
G75*
G02*
X7575220Y628000I42630J3700D01*
G01*
Y668250D01*
X7254040D01*
G75*
G02*
X7219520Y681660I-30J51050D01*
G01*
X7156400Y739480D01*
G75*
G02*
X7139950Y780620I34490J37650D01*
G01*
Y837100D01*
X7067500D01*
Y1061100D01*
X7390600D01*
Y837100D01*
X7242050D01*
Y799480D01*
X7273850Y770350D01*
X7575220D01*
Y842000D01*
G75*
G02*
X7579820Y861300I42780J0D01*
G01*
X7527060D01*
G75*
G02*
X7495390Y874390I-60J44710D01*
G01*
X7433390Y936390D01*
G75*
G02*
X7420300Y968000I31610J31610D01*
G01*
Y1035480D01*
X7394480Y1061300D01*
X6972170D01*
X6999200Y1034270D01*
G75*
G02*
X7013000Y1001000I-33200J-33270D01*
G01*
Y670000D01*
G75*
G02*
X6999200Y636730I-47000J0D01*
G01*
G37*
X8623700Y1252000D02*
Y1001700D01*
X8695250D01*
Y1159700D01*
X8833300D01*
Y1203600D01*
X8651100D01*
Y1266230D01*
G75*
G02*
X8623370Y1257450I-32060J53070D01*
G01*
G75*
G02*
X8623700Y1252000I-44370J-5420D01*
G01*
G36*
X8623700Y1252000D02*
Y1001700D01*
X8695250D01*
Y1159700D01*
X8833300D01*
Y1203600D01*
X8651100D01*
Y1266230D01*
G75*
G02*
X8623370Y1257450I-32060J53070D01*
G01*
G75*
G02*
X8623700Y1252000I-44370J-5420D01*
G01*
G37*
X8825050Y1570000D02*
G75*
G02*
X8810590Y1534400I-51050J0D01*
G01*
X8846900D01*
Y1393600D01*
X8838500D01*
Y1344400D01*
X8846900D01*
Y1259120D01*
X8893390Y1305610D01*
G75*
G02*
X8911100Y1316480I31600J-31620D01*
G01*
Y1439400D01*
X8919500D01*
Y1526000D01*
X9061950D01*
Y1578900D01*
X8872700D01*
Y1587300D01*
X8825050D01*
Y1570000D01*
G36*
X8825050Y1570000D02*
G75*
G02*
X8810590Y1534400I-51050J0D01*
G01*
X8846900D01*
Y1393600D01*
X8838500D01*
Y1344400D01*
X8846900D01*
Y1259120D01*
X8893390Y1305610D01*
G75*
G02*
X8911100Y1316480I31600J-31620D01*
G01*
Y1439400D01*
X8919500D01*
Y1526000D01*
X9061950D01*
Y1578900D01*
X8872700D01*
Y1587300D01*
X8825050D01*
Y1570000D01*
G37*
D02*
D12*
X1567950Y1519300D02*
X1998700D01*
X2106000Y1412000D01*
Y953000D01*
X2077000Y924000D01*
X1979050D01*
X1750250Y1182800D02*
X1953650D01*
X1979050Y1208200D01*
X1750250Y1309800D02*
X1437200D01*
X1393000Y1354000D01*
Y1516450D01*
X1390150Y1519300D01*
X1979050Y924000D02*
X1755050D01*
X1750250Y928800D01*
X1979050Y1030400D02*
Y924000D01*
Y1208200D02*
Y1356950D01*
X1979000Y1357000D01*
X2350100Y859000D02*
X2329000Y880100D01*
X2350100Y1359000D02*
X2329000Y1380100D01*
X2534000Y1579000D02*
X2624000D01*
Y968000D02*
Y1079000D01*
X2534000D01*
X2724000D02*
X2907900D01*
X2929000Y1057900D01*
X2724000Y1579000D02*
X2907900D01*
X2929000Y1557900D01*
Y880100D02*
Y878000D01*
X3042000D01*
Y965000D01*
X2929000Y1380100D02*
Y1378000D01*
X3042000D01*
Y1456000D01*
X3250100Y859000D02*
X3229000Y880100D01*
X3250100Y1359000D02*
X3229000Y1380100D01*
X3434000Y1579000D02*
X3524000D01*
Y968000D02*
Y1080000D01*
X3434000D01*
Y1079000D01*
X3624000D02*
X3807900D01*
X3829000Y1057900D01*
X3624000Y1579000D02*
X3807900D01*
X3829000Y1557900D01*
Y880100D02*
Y878000D01*
X3942000D01*
Y965000D01*
X3829000Y1380100D02*
Y1378000D01*
X3942000D01*
Y1456000D01*
X4150100Y859000D02*
X4129000Y880100D01*
X4150100Y1359000D02*
X4129000Y1380100D01*
X4334000Y1579000D02*
X4424000D01*
Y968000D02*
Y1074000D01*
X4334000D01*
Y1079000D01*
X4524000D02*
X4707900D01*
X4729000Y1057900D01*
X4524000Y1579000D02*
X4707900D01*
X4729000Y1557900D01*
Y880100D02*
Y878000D01*
X4842000D01*
Y965000D01*
X4729000Y1380100D02*
Y1378000D01*
X4842000D01*
Y1456000D01*
X5050100Y859000D02*
X5029000Y880100D01*
X5050100Y1359000D02*
X5029000Y1380100D01*
X5234000Y1579000D02*
X5324000D01*
Y968000D02*
Y1078000D01*
X5234000D01*
Y1079000D01*
X5424000D02*
X5607900D01*
X5629000Y1057900D01*
X5424000Y1579000D02*
X5607900D01*
X5629000Y1557900D01*
Y880100D02*
Y878000D01*
X5742000D01*
Y965000D01*
X5629000Y1380100D02*
X5740900D01*
Y1455150D01*
X5742050Y1456300D01*
X6340150Y769300D02*
X6192300D01*
X6159000Y736000D01*
X1788000D01*
X1745000Y779000D01*
Y923550D01*
X1750250Y928800D01*
X6340150Y769300D02*
Y973000D01*
Y1047150D01*
X6572000Y1279000D01*
Y1591000D01*
X6618000Y1637000D01*
X7229050D01*
X6340150Y973000D02*
X6077850D01*
X6074050Y976800D01*
X6517950Y769300D02*
Y979000D01*
X6520000D01*
X6522000Y977000D01*
X6517950Y979000D02*
X6774250D01*
X6776450Y976800D01*
X6784050D01*
X6931800Y1561800D02*
X6934000Y1564000D01*
X7026550Y1496800D02*
X7049050Y1519300D01*
X7229050Y1289480D02*
Y1637000D01*
X7478000D01*
X7529000Y1586000D01*
Y1273000D01*
X7534000Y1268000D01*
X7789000D01*
X7968000Y1089000D01*
X8249400D01*
X8253650Y1084750D01*
X7703650Y714750D02*
Y719300D01*
X7254000D01*
X7190880Y777120D01*
X7191000D01*
Y949120D01*
X7229050D01*
X7703650Y714750D02*
X7868750D01*
X7979000Y825000D01*
X8370000Y857000D02*
X8391000D01*
Y892000D01*
X8479050Y980050D01*
Y1180400D01*
X8619050Y1319300D02*
Y1369000D01*
Y1533000D01*
X8642050Y1556000D01*
X8760000D01*
X8774000Y1570000D01*
Y1653500D01*
X8789800Y1669300D01*
X8749000Y1369000D02*
X8619050D01*
X8790150Y1069300D02*
Y1157000D01*
X8749000Y1198150D01*
Y1274000D01*
X8967600Y1669300D02*
X8978600D01*
X8985000Y1675700D01*
Y2201000D01*
X8952000Y2234000D01*
X9009000Y1464000D02*
X9113000D01*
Y2827000D01*
X9196000Y2910000D01*
X9674000D01*
X9113000Y1464000D02*
Y1109000D01*
X9074000Y1070000D01*
X8968650D01*
X8967950Y1069300D01*
X9229000Y1719300D02*
Y1964000D01*
X9312300Y2047300D01*
X9690150D01*
Y2019300D01*
X9519000Y1719000D02*
Y1373000D01*
X9574000Y1318000D01*
X9777750D01*
X9779050Y1319300D01*
X9867950Y2019300D02*
X9983700D01*
X10041000Y1962000D01*
Y1721000D01*
X10039000Y1719000D01*
X9972000Y2981000D02*
X10047350D01*
X10109050Y2919300D01*
D02*
D13*
X1879050Y2019300D03*
Y2919300D03*
Y3819300D03*
Y4719300D03*
X1979000Y1357000D03*
X2624000Y968000D03*
Y1579000D03*
X2879050Y2019300D03*
Y2919300D03*
Y3819300D03*
Y4719300D03*
X3042000Y965000D03*
Y1456000D03*
X3524000Y968000D03*
Y1579000D03*
X3879050Y2019300D03*
Y2919300D03*
Y3819300D03*
Y4719300D03*
X3942000Y965000D03*
Y1456000D03*
X4424000Y968000D03*
Y1579000D03*
X4842000Y965000D03*
Y1456000D03*
X4879050Y2019300D03*
Y2919300D03*
Y3819300D03*
Y4719300D03*
X5324000Y968000D03*
Y1579000D03*
X5742000Y965000D03*
X5742050Y1456300D03*
X5879050Y2019300D03*
Y2919300D03*
Y3819300D03*
Y4719300D03*
X5895000Y1111500D03*
Y1307000D03*
Y1434000D03*
Y1563000D03*
X5945000Y1048000D03*
Y1175000D03*
Y1370500D03*
Y1497500D03*
X6522000Y977000D03*
X6879050Y2019300D03*
Y2919300D03*
Y3819300D03*
Y4719300D03*
X6934000Y1564000D03*
X7879050Y2019300D03*
Y2919300D03*
Y3819300D03*
Y4719300D03*
X8619050Y1319300D03*
X8879050Y2019300D03*
Y2919300D03*
Y3819300D03*
Y4719300D03*
X9229000Y1719300D03*
X9779050Y1319300D03*
X10109050Y2919300D03*
D02*
D14*
X7978550Y1324700D03*
X7979000Y825000D03*
D02*
D16*
X1567950Y1482000D02*
Y1428900D01*
Y1556600D02*
Y1609700D01*
X1609750Y1519300D02*
X1662850D01*
X1750250Y906500D02*
Y853400D01*
X1813800Y928800D02*
X1866900D01*
X1879050Y2019300D02*
X1879000D01*
Y1862950D01*
X2184000Y1557950D01*
Y1122000D01*
X2242000Y1064000D01*
X2322900D01*
X2329000Y1057900D01*
X1941750Y1030400D02*
X1888650D01*
X1979050Y988600D02*
Y935500D01*
X2016350Y1030400D02*
X2069450D01*
X2879050Y2019300D02*
Y1799050D01*
X2812000Y1732000D01*
X2368000D01*
X2323000Y1687000D01*
Y1563900D01*
X2329000Y1557900D01*
X3229000D02*
X3233000Y1561900D01*
Y1673000D01*
X3240000Y1680000D01*
X3954000D01*
X4053000Y1779000D01*
X4764000D01*
Y1780000D01*
X4888050Y1904050D01*
Y2019300D01*
X4879050D01*
X3879050D02*
Y1772050D01*
X3836000Y1729000D01*
X3184000D01*
X3120000Y1665000D01*
Y1105000D01*
X3152000Y1073000D01*
X3213900D01*
X3229000Y1057900D01*
X4129000D02*
X4123100Y1052000D01*
X4060000D01*
X4025000Y1087000D01*
Y1675000D01*
X4081000Y1731000D01*
X4807000D01*
X4899000Y1823000D01*
X5823000D01*
X5869000Y1869000D01*
Y2019300D01*
X5879050D01*
X5895000Y1111500D02*
X6069350D01*
X6074050Y1106800D01*
X5895000Y1307000D02*
X6068850D01*
X6074050Y1301800D01*
X5895000Y1434000D02*
X6071850D01*
X6074050Y1431800D01*
X5895000Y1563000D02*
X6073250D01*
X6074050Y1562200D01*
Y1561800D01*
X5945000Y1048000D02*
X6067850D01*
X6074050Y1041800D01*
X5945000Y1175000D02*
X6070850D01*
X6074050Y1171800D01*
X5945000Y1370500D02*
X6070350D01*
X6074050Y1366800D01*
X5945000Y1497500D02*
X6073350D01*
X6074050Y1496800D01*
X5996750Y976800D02*
X5943650D01*
X6074050Y967000D02*
Y913900D01*
X6151350Y976800D02*
X6204450D01*
X6298350Y769300D02*
X6245250D01*
X6340150Y732000D02*
Y678900D01*
Y806600D02*
Y859700D01*
X6784050Y1431800D02*
X6901200D01*
X6927000Y1406000D01*
Y1198000D01*
X6965000Y1160000D01*
X7409000D01*
X6784050Y1496800D02*
X7026550D01*
X6784050Y1561800D02*
X6931800D01*
X6879050Y2019300D02*
Y1867050D01*
X6855000Y1843000D01*
X6471000D01*
X6404000Y1776000D01*
X5830000D01*
X5829000Y1777000D01*
X4941000D01*
X4848000Y1684000D01*
X4163000D01*
X4123000Y1644000D01*
Y1563900D01*
X4129000Y1557900D01*
X7112210Y1289480D02*
X7059100D01*
X7229050Y1356790D02*
Y1409900D01*
X7409000Y1160000D02*
X7628900D01*
X7704150Y1084750D01*
X7409050Y1519300D02*
Y1323000D01*
X7409000D01*
Y1160000D01*
X7704150Y1084750D02*
X7677000D01*
Y991050D01*
X7649950D01*
X7879050Y2019300D02*
Y1877050D01*
X7857000Y1855000D01*
X7431000D01*
X7369000Y1793000D01*
X6487000D01*
X6415000Y1721000D01*
X4979000D01*
X4922000Y1664000D01*
Y1105000D01*
X4968000Y1059000D01*
X5027900D01*
X5029000Y1057900D01*
X8191350Y1084750D02*
X8138250D01*
X8253650Y1172050D02*
Y1225150D01*
X8479050Y1358200D02*
Y1461100D01*
X8479000Y1461150D01*
Y1694300D01*
X8424000Y1749300D01*
X7539000D01*
X7482700Y1693000D01*
X6563000D01*
X6381000Y1511000D01*
Y1289800D01*
X6328000Y1236800D01*
X6074050D01*
X8748350Y1069300D02*
X8695250D01*
X8749000Y1256700D02*
Y1203600D01*
Y1274000D02*
X8840050D01*
X8860000Y1293950D01*
Y1369000D01*
X8749000Y1464000D02*
X8860000D01*
X8790150Y1106600D02*
Y1159700D01*
X8793800Y1274000D02*
X8846900D01*
X8793800Y1464000D02*
X8846900D01*
X8860000Y1438950D02*
Y1369000D01*
X8879050Y2019300D02*
X8886000D01*
Y1864000D01*
X8825000Y1803000D01*
X7451000D01*
X7394000Y1746000D01*
X6540000D01*
X6468000Y1674000D01*
X5943400D01*
X5942400Y1675000D01*
X5063000D01*
X5029000Y1641000D01*
Y1557900D01*
X8952000Y2234000D02*
X8369000D01*
Y1855000D01*
X8014000D01*
Y2205000D01*
X8003000Y2216000D01*
X7367000D01*
Y1882000D01*
X7344000Y1859000D01*
X6998000D01*
Y2205000D01*
X6373000D01*
Y1834000D01*
X5999000D01*
Y2207000D01*
X5370000D01*
Y1873000D01*
X4973000D01*
Y2220000D01*
X4377000D01*
Y1848000D01*
X4019000D01*
Y2194000D01*
X3351000D01*
Y1804000D01*
X3012000D01*
Y2201000D01*
X2375000D01*
Y1827000D01*
X2035000D01*
Y2198000D01*
X1360000D01*
Y1715000D01*
X1580000D01*
Y1531350D01*
X1567950Y1519300D01*
X8964200Y1369000D02*
X8911100D01*
X8967600Y1632000D02*
Y1578900D01*
Y1669300D02*
Y1567600D01*
X8959000Y1559000D01*
X8880000D01*
X8860000Y1539000D01*
Y1438950D01*
X8967600Y1706600D02*
Y1759700D01*
X9009000Y1274000D02*
X8925000D01*
X8878000Y1227000D01*
Y976000D01*
X8859000Y957000D01*
X8603000D01*
X8579000Y981000D01*
Y1252000D01*
X8560000Y1271000D01*
X8393000D01*
X8376000Y1254000D01*
Y963000D01*
X8342000Y929000D01*
X8132000D01*
X8066000Y995000D01*
X7919000D01*
X7830000Y906000D01*
X7527000D01*
X7465000Y968000D01*
Y1054000D01*
X7413000Y1106000D01*
X6795850D01*
X6795050Y1106800D01*
X6784050D01*
X9009000Y1369000D02*
X8860000D01*
D02*
D17*
X9779000Y1719000D03*
D02*
D21*
X8860000Y1464000D02*
Y1438950D01*
D02*
D22*
X1879050Y2019300D02*
X1734050D01*
X1879050Y2919300D02*
X1734050D01*
X1879050Y3819300D02*
X1734050D01*
X1879050Y4719300D02*
X1734050D01*
X2224050Y2019300D02*
Y2303000D01*
X1229050D01*
Y2131350D01*
X1224050Y2126350D01*
Y2019300D01*
X2224050Y2919300D02*
Y3203000D01*
X1229050D01*
Y3032350D01*
X1224050Y3027350D01*
Y2919300D01*
X2224050Y3819300D02*
Y4103000D01*
X1229050D01*
Y3932350D01*
X1224050Y3927350D01*
Y3819300D01*
X2224050Y4719300D02*
Y5003000D01*
X1229050D01*
Y4721250D01*
X1227100Y4719300D01*
X1224050D01*
X2629000Y859000D02*
X2350100D01*
X2629000Y1359000D02*
X2350100D01*
X2879050Y2019300D02*
X2734050D01*
X2879050Y2919300D02*
X2734050D01*
X2879050Y3819300D02*
X2734050D01*
X2879050Y4719300D02*
X2734050D01*
X3224050Y2019300D02*
Y2303000D01*
X2224050D01*
X3224050Y2919300D02*
Y3203000D01*
X2224050D01*
X3224050Y3819300D02*
Y4103000D01*
X2224050D01*
X3224050Y4719300D02*
Y5003000D01*
X2224050D01*
X3529000Y859000D02*
X3250100D01*
X3529000Y1359000D02*
X3250100D01*
X3879050Y2019300D02*
X3734050D01*
X3879050Y2919300D02*
X3734050D01*
X3879050Y3819300D02*
X3734050D01*
X3879050Y4719300D02*
X3734050D01*
X4224050Y2019300D02*
Y2303000D01*
X3224050D01*
X4224050Y2919300D02*
Y3203000D01*
X3224050D01*
X4224050Y3819300D02*
Y4103000D01*
X3224050D01*
X4224050Y4719300D02*
Y5003000D01*
X3224050D01*
X4429000Y859000D02*
X4150100D01*
X4429000Y1359000D02*
X4150100D01*
X4879050Y2019300D02*
X4734050D01*
X4879050Y2919300D02*
X4734050D01*
X4879050Y3819300D02*
X4734050D01*
X4879050Y4719300D02*
X4734050D01*
X5224050Y2019300D02*
Y2303000D01*
X4224050D01*
X5224050Y2919300D02*
Y3203000D01*
X4224050D01*
X5224050Y3819300D02*
Y4103000D01*
X4224050D01*
X5224050Y4719300D02*
Y5003000D01*
X4224050D01*
X5329000Y859000D02*
X5050100D01*
X5329000Y1359000D02*
X5050100D01*
X5879050Y2019300D02*
X5734050D01*
X5879050Y2919300D02*
X5734050D01*
X5879050Y3819300D02*
X5734050D01*
X5879050Y4719300D02*
X5734050D01*
X6224050Y2019300D02*
Y2303000D01*
X5224050D01*
X6224050Y2919300D02*
Y3203000D01*
X6296000D01*
X6224050Y3819300D02*
Y4103000D01*
X5224050D01*
X6224050Y4719300D02*
Y5003000D01*
X5224050D01*
X6296000Y3203000D02*
X5224050D01*
X6879050Y2019300D02*
X6734050D01*
X6879050Y2919300D02*
X6734050D01*
X6879050Y3819300D02*
X6734050D01*
X6879050Y4719300D02*
X6734050D01*
X7224050Y2019300D02*
Y2303000D01*
X6224050D01*
X7224050Y2919300D02*
Y3203000D01*
X6296000D01*
X7224050Y3819300D02*
Y4103000D01*
X6224050D01*
X7224050Y4719300D02*
Y5003000D01*
X6224050D01*
X7879050Y2019300D02*
X7734050D01*
X7879050Y2919300D02*
X7734050D01*
X7879050Y3819300D02*
X7734050D01*
X7879050Y4719300D02*
X7734050D01*
X8224050Y2019300D02*
Y2303000D01*
X7224050D01*
X8224050Y2919300D02*
Y3203000D01*
X7224050D01*
X8224050Y3819300D02*
Y4103000D01*
X7224050D01*
X8224050Y4719300D02*
Y5003000D01*
X7224050D01*
X8879050Y2019300D02*
X8734050D01*
X8879050Y2919300D02*
X8734050D01*
X8879050Y3819300D02*
X8734050D01*
X8879050Y4719300D02*
X8734050D01*
D02*
D24*
X1207850Y928800D02*
X982200D01*
X873000Y1038000D01*
Y4043800D01*
X1222000Y4392800D01*
Y4717250D01*
X1224050Y4719300D01*
X1207850Y1055800D02*
X1041000D01*
X977800Y1119000D01*
Y3298800D01*
X1228000Y3549000D01*
Y3815350D01*
X1224050Y3819300D01*
X1207850Y1182800D02*
X1093000D01*
X1071000Y1204800D01*
Y2531000D01*
X1210000Y2670000D01*
Y2905250D01*
X1224050Y2919300D01*
X1207850Y1309800D02*
X1221000D01*
Y1659150D01*
X1222000Y1660150D01*
Y2017250D01*
X1224050Y2019300D01*
D02*
D76*
X8749000Y1274000D03*
Y1369000D03*
Y1464000D03*
X9009000Y1274000D03*
Y1369000D03*
Y1464000D03*
D02*
D77*
X7049050Y1519300D03*
X7409050D03*
D02*
D78*
X1390150D03*
X1567950D03*
X6340150Y769300D03*
X6517950D03*
X8789800Y1669300D03*
X8790150Y1069300D03*
X8967600Y1669300D03*
X8967950Y1069300D03*
X9690150Y2019300D03*
X9867950D03*
D02*
D82*
X1979050Y1030400D03*
Y1208200D03*
X2329000Y880100D03*
Y1057900D03*
Y1380100D03*
Y1557900D03*
X2929000Y880100D03*
Y1057900D03*
Y1380100D03*
Y1557900D03*
X3229000Y880100D03*
Y1057900D03*
Y1380100D03*
Y1557900D03*
X3829000Y880100D03*
Y1057900D03*
Y1380100D03*
Y1557900D03*
X4129000Y880100D03*
Y1057900D03*
Y1380100D03*
Y1557900D03*
X4729000Y880100D03*
Y1057900D03*
Y1380100D03*
Y1557900D03*
X5029000Y880100D03*
Y1057900D03*
Y1380100D03*
Y1557900D03*
X5629000Y880100D03*
Y1057900D03*
Y1380100D03*
Y1557900D03*
X8479050Y1180400D03*
Y1358200D03*
D02*
D105*
X1224050Y2019300D03*
Y2919300D03*
Y3819300D03*
Y4719300D03*
X1734050Y2019300D03*
Y2919300D03*
Y3819300D03*
Y4719300D03*
X2224050Y2019300D03*
Y2919300D03*
Y3819300D03*
Y4719300D03*
X2734050Y2019300D03*
Y2919300D03*
Y3819300D03*
Y4719300D03*
X3224050Y2019300D03*
Y2919300D03*
Y3819300D03*
Y4719300D03*
X3734050Y2019300D03*
Y2919300D03*
Y3819300D03*
Y4719300D03*
X4224050Y2019300D03*
Y2919300D03*
Y3819300D03*
Y4719300D03*
X4734050Y2019300D03*
Y2919300D03*
Y3819300D03*
Y4719300D03*
X5224050Y2019300D03*
Y2919300D03*
Y3819300D03*
Y4719300D03*
X5734050Y2019300D03*
Y2919300D03*
Y3819300D03*
Y4719300D03*
X6224050Y2019300D03*
Y2919300D03*
Y3819300D03*
Y4719300D03*
X6734050Y2019300D03*
Y2919300D03*
Y3819300D03*
Y4719300D03*
X7224050Y2019300D03*
Y2919300D03*
Y3819300D03*
Y4719300D03*
X7734050Y2019300D03*
Y2919300D03*
Y3819300D03*
Y4719300D03*
X8224050Y2019300D03*
Y2919300D03*
Y3819300D03*
Y4719300D03*
X8734050Y2019300D03*
Y2919300D03*
Y3819300D03*
Y4719300D03*
D02*
D106*
X1518550Y2019300D03*
Y2919300D03*
Y3819300D03*
Y4719300D03*
X2518550Y2019300D03*
Y2919300D03*
Y3819300D03*
Y4719300D03*
X3518550Y2019300D03*
Y2919300D03*
Y3819300D03*
Y4719300D03*
X4518550Y2019300D03*
Y2919300D03*
Y3819300D03*
Y4719300D03*
X5518550Y2019300D03*
Y2919300D03*
Y3819300D03*
Y4719300D03*
X6518550Y2019300D03*
Y2919300D03*
Y3819300D03*
Y4719300D03*
X7518550Y2019300D03*
Y2919300D03*
Y3819300D03*
Y4719300D03*
X8518550Y2019300D03*
Y2919300D03*
Y3819300D03*
Y4719300D03*
D02*
D107*
X9519000Y1719000D03*
X10039000D03*
D02*
D114*
X829050Y769300D03*
Y5069300D03*
X9129050Y769300D03*
Y5069300D03*
D02*
D120*
X6074050Y976800D03*
Y1041800D03*
Y1106800D03*
Y1171800D03*
Y1236800D03*
Y1301800D03*
Y1366800D03*
Y1431800D03*
Y1496800D03*
Y1561800D03*
X6784050Y976800D03*
Y1041800D03*
Y1106800D03*
Y1171800D03*
Y1236800D03*
Y1301800D03*
Y1366800D03*
Y1431800D03*
Y1496800D03*
Y1561800D03*
D02*
D121*
X2534000Y1079000D03*
Y1579000D03*
X2629000Y859000D03*
Y1359000D03*
X2724000Y1079000D03*
Y1579000D03*
X3434000Y1079000D03*
Y1579000D03*
X3529000Y859000D03*
Y1359000D03*
X3624000Y1079000D03*
Y1579000D03*
X4334000Y1079000D03*
Y1579000D03*
X4429000Y859000D03*
Y1359000D03*
X4524000Y1079000D03*
Y1579000D03*
X5234000Y1079000D03*
Y1579000D03*
X5329000Y859000D03*
Y1359000D03*
X5424000Y1079000D03*
Y1579000D03*
D02*
D122*
X1207850Y928800D03*
Y1055800D03*
Y1182800D03*
Y1309800D03*
X1750250Y928800D03*
Y1055800D03*
Y1182800D03*
Y1309800D03*
D02*
D123*
X7703650Y714750D03*
Y1454750D03*
X7704150Y1084750D03*
X8253650Y714750D03*
Y1084750D03*
Y1454750D03*
D02*
D124*
X7229050Y949120D03*
Y1289480D03*
X0Y0D02*
M02*
