G04 DesignSpark PCB Gerber Version 10.0 Build 5299*
G04 #@! TF.Part,Single*
G04 #@! TF.FileFunction,Copper,L2,Bot*
G04 #@! TF.FilePolarity,Positive*
%FSLAX35Y35*%
%MOMM*%
%ADD10C,0.20000*%
%ADD16C,0.25400*%
%ADD11C,0.30000*%
%ADD12C,0.38100*%
%ADD24C,0.50000*%
G04 #@! TA.AperFunction,ViaPad*
%ADD13C,0.60000*%
%ADD14C,2.00000*%
%ADD114C,2.40000*%
G04 #@! TA.AperFunction,WasherPad*
%ADD17C,2.60000*%
G04 #@! TD.AperFunction*
X0Y0D02*
D02*
D10*
X2843000Y3874720D02*
X3443000D01*
G75*
G03*
X3643000Y4074720I0J200000D01*
G01*
Y4674720D01*
G75*
G03*
X3443000Y4874720I-200000J0D01*
G01*
X2843000D01*
G75*
G03*
X2643000Y4674720I0J-200000D01*
G01*
Y4074720D01*
G75*
G03*
X2843000Y3874720I200000J0D01*
G01*
G36*
X2843000Y3874720D02*
X3443000D01*
G75*
G03*
X3643000Y4074720I0J200000D01*
G01*
Y4674720D01*
G75*
G03*
X3443000Y4874720I-200000J0D01*
G01*
X2843000D01*
G75*
G03*
X2643000Y4674720I0J-200000D01*
G01*
Y4074720D01*
G75*
G03*
X2843000Y3874720I200000J0D01*
G01*
G37*
Y5374720D02*
X3443000D01*
G75*
G03*
X3643000Y5574720I0J200000D01*
G01*
Y6174720D01*
G75*
G03*
X3443000Y6374720I-200000J0D01*
G01*
X2843000D01*
G75*
G03*
X2643000Y6174720I0J-200000D01*
G01*
Y5574720D01*
G75*
G03*
X2843000Y5374720I200000J0D01*
G01*
G36*
X2843000Y5374720D02*
X3443000D01*
G75*
G03*
X3643000Y5574720I0J200000D01*
G01*
Y6174720D01*
G75*
G03*
X3443000Y6374720I-200000J0D01*
G01*
X2843000D01*
G75*
G03*
X2643000Y6174720I0J-200000D01*
G01*
Y5574720D01*
G75*
G03*
X2843000Y5374720I200000J0D01*
G01*
G37*
D02*
D11*
X1553180Y3115810D02*
Y2635000D01*
X3493180D01*
G75*
G02*
X3603180Y2525000I0J-110000D01*
G01*
Y985000D01*
X7083180D01*
Y2525000D01*
G75*
G02*
X7193180Y2635000I110000J0D01*
G01*
X9133180D01*
Y3115810D01*
G75*
G02*
X8841180Y3175000I-140000J59190D01*
G01*
G75*
G02*
X9133180Y3234190I152000J0D01*
G01*
Y3314970D01*
G75*
G02*
X9060880Y3399440I-15310J60080D01*
G01*
Y4250660D01*
G75*
G02*
Y4299440I56990J24390D01*
G01*
Y6356690D01*
X9049570Y6368000D01*
X8833230D01*
G75*
G02*
X8792870Y6384690I-60J57010D01*
G01*
X8752870Y6424690D01*
G75*
G02*
X8736180Y6465000I40320J40300D01*
G01*
Y6698000D01*
X6206790D01*
X6180180Y6671390D01*
Y6265000D01*
G75*
G02*
X6163490Y6224690I-57000J-10D01*
G01*
X6103490Y6164690D01*
G75*
G02*
X6063130Y6148000I-40300J40320D01*
G01*
X4643230D01*
G75*
G02*
X4602870Y6164690I-60J57010D01*
G01*
X4532870Y6234690D01*
G75*
G02*
X4516180Y6275000I40320J40300D01*
G01*
Y6681390D01*
X4489570Y6708000D01*
X4157880D01*
Y6567960D01*
G75*
G02*
X4113180Y6463000I-44700J-42960D01*
G01*
G75*
G02*
X4068480Y6567960I0J62000D01*
G01*
Y6708000D01*
X1966790D01*
X1950180Y6691390D01*
Y6475000D01*
G75*
G02*
X1933490Y6434690I-57000J-10D01*
G01*
X1883490Y6384690D01*
G75*
G02*
X1843130Y6368000I-40300J40320D01*
G01*
X1630180D01*
Y5981040D01*
G75*
G02*
X1625480Y5950560I-61690J-6090D01*
G01*
Y5099340D01*
G75*
G02*
Y5050560I-56990J-24390D01*
G01*
Y4199340D01*
G75*
G02*
X1553180Y4114870I-56990J-24390D01*
G01*
Y3234190D01*
G75*
G02*
X1845180Y3175000I140000J-59190D01*
G01*
G75*
G02*
X1553180Y3115810I-152000J0D01*
G01*
X8828230Y3774950D02*
G75*
G02*
X9058130I114950J0D01*
G01*
G75*
G02*
X8828230I-114950J0D01*
G01*
Y4674950D02*
G75*
G02*
X9058130I114950J0D01*
G01*
G75*
G02*
X8828230I-114950J0D01*
G01*
X6635460Y5897630D02*
G75*
G02*
X8250700Y5875000I807460J-22630D01*
G01*
G75*
G02*
X6635460Y5852370I-807780J0D01*
G01*
G75*
G02*
Y5897630I57730J22630D01*
G01*
X7448280Y4825300D02*
G75*
G02*
X7538180I44950J0D01*
G01*
G75*
G02*
X7448280I-44950J0D01*
G01*
Y4925300D02*
G75*
G02*
X7538180I44950J0D01*
G01*
G75*
G02*
X7448280I-44950J0D01*
G01*
X7548280Y4825300D02*
G75*
G02*
X7638180I44950J0D01*
G01*
G75*
G02*
X7548280I-44950J0D01*
G01*
Y4925300D02*
G75*
G02*
X7638180I44950J0D01*
G01*
G75*
G02*
X7548280I-44950J0D01*
G01*
X7510270Y4509700D02*
G75*
G02*
X7615230Y4465000I42960J-44700D01*
G01*
G75*
G02*
X7510270Y4420300I-62000J0D01*
G01*
X7026140D01*
G75*
G02*
X6921180Y4465000I-42960J44700D01*
G01*
G75*
G02*
X7026140Y4509700I62000J0D01*
G01*
X7510270D01*
X7248280Y4825300D02*
G75*
G02*
X7338180I44950J0D01*
G01*
G75*
G02*
X7248280I-44950J0D01*
G01*
Y4925300D02*
G75*
G02*
X7338180I44950J0D01*
G01*
G75*
G02*
X7248280I-44950J0D01*
G01*
X7348280Y4825300D02*
G75*
G02*
X7438180I44950J0D01*
G01*
G75*
G02*
X7348280I-44950J0D01*
G01*
Y4925300D02*
G75*
G02*
X7438180I44950J0D01*
G01*
G75*
G02*
X7348280I-44950J0D01*
G01*
X8328230Y3774950D02*
G75*
G02*
X8558130I114950J0D01*
G01*
G75*
G02*
X8328230I-114950J0D01*
G01*
Y4674950D02*
G75*
G02*
X8558130I114950J0D01*
G01*
G75*
G02*
X8328230I-114950J0D01*
G01*
X8467930Y5535650D02*
G75*
G02*
X8596930I64500J0D01*
G01*
G75*
G02*
X8467930I-64500J0D01*
G01*
Y6113650D02*
G75*
G02*
X8596930I64500J0D01*
G01*
G75*
G02*
X8467930I-64500J0D01*
G01*
X5298230Y3075000D02*
G75*
G02*
X5388130I44950J0D01*
G01*
G75*
G02*
X5298230I-44950J0D01*
G01*
X4351180Y4955000D02*
G75*
G02*
X4475180I62000J0D01*
G01*
G75*
G02*
X4464230Y4919820I-62000J0D01*
G01*
Y4210180D01*
G75*
G02*
X4413180Y4113000I-51050J-35180D01*
G01*
G75*
G02*
X4362130Y4210180I0J62000D01*
G01*
Y4919820D01*
G75*
G02*
X4351180Y4955000I51050J35180D01*
G01*
X2128230Y3775050D02*
G75*
G02*
X2358130I114950J0D01*
G01*
G75*
G02*
X2128230I-114950J0D01*
G01*
Y4675050D02*
G75*
G02*
X2358130I114950J0D01*
G01*
G75*
G02*
X2128230I-114950J0D01*
G01*
Y5575050D02*
G75*
G02*
X2358130I114950J0D01*
G01*
G75*
G02*
X2128230I-114950J0D01*
G01*
X3443000Y4917500D02*
G75*
G02*
X3685780Y4674720I0J-242780D01*
G01*
Y4074720D01*
G75*
G02*
X3443000Y3831940I-242780J0D01*
G01*
X2843000D01*
G75*
G02*
X2600220Y4074720I0J242780D01*
G01*
Y4674720D01*
G75*
G02*
X2843000Y4917500I242780J0D01*
G01*
X3443000D01*
X3098230Y3325000D02*
G75*
G02*
X3188130I44950J0D01*
G01*
G75*
G02*
X3098230I-44950J0D01*
G01*
X3443000Y6417500D02*
G75*
G02*
X3685780Y6174720I0J-242780D01*
G01*
Y5574720D01*
G75*
G02*
X3443000Y5331940I-242780J0D01*
G01*
X2843000D01*
G75*
G02*
X2600220Y5574720I0J242780D01*
G01*
Y6174720D01*
G75*
G02*
X2843000Y6417500I242780J0D01*
G01*
X3443000D01*
X3098230Y5125000D02*
G75*
G02*
X3188130I44950J0D01*
G01*
G75*
G02*
X3098230I-44950J0D01*
G01*
Y6475000D02*
G75*
G02*
X3188130I44950J0D01*
G01*
G75*
G02*
X3098230I-44950J0D01*
G01*
X3731000Y4160700D02*
G75*
G02*
X3855000I62000J0D01*
G01*
G75*
G02*
X3837700Y4117740I-62000J0D01*
G01*
Y4067960D01*
G75*
G02*
X3793000Y3963000I-44700J-42960D01*
G01*
G75*
G02*
X3748300Y4067960I0J62000D01*
G01*
Y4117740D01*
G75*
G02*
X3731000Y4160700I44700J42960D01*
G01*
X1628230Y5575050D02*
G75*
G02*
X1858130I114950J0D01*
G01*
G75*
G02*
X1628230I-114950J0D01*
G01*
Y4675050D02*
G75*
G02*
X1858130I114950J0D01*
G01*
G75*
G02*
X1628230I-114950J0D01*
G01*
Y3775050D02*
G75*
G02*
X1858130I114950J0D01*
G01*
G75*
G02*
X1628230I-114950J0D01*
G01*
X1568180Y3075000D02*
G36*
X1568180Y3075000D02*
Y2635000D01*
X3493180D01*
G75*
G02*
X3603180Y2525000I0J-110000D01*
G01*
Y1000000D01*
X7083180D01*
Y2525000D01*
G75*
G02*
X7193180Y2635000I110000J0D01*
G01*
X9118180D01*
Y3075000D01*
X9107650D01*
G75*
G02*
X8878710I-114470J100000D01*
G01*
X5388130D01*
G75*
G02*
X5298230I-44950J0D01*
G01*
X1807650D01*
G75*
G02*
X1578710I-114470J100000D01*
G01*
X1568180D01*
G37*
Y3088520D02*
G36*
X1568180Y3088520D02*
Y3075000D01*
X1578710D01*
G75*
G02*
X1568180Y3088520I114470J100010D01*
G01*
G37*
Y3325000D02*
G36*
X1568180Y3325000D02*
Y3261480D01*
G75*
G02*
X1668600Y3325000I125000J-86480D01*
G01*
X1568180D01*
G37*
X1845180Y3175000D02*
G36*
X1845180Y3175000D02*
G75*
G02*
X1807650Y3075000I-152000J0D01*
G01*
X5298230D01*
G75*
G02*
X5388130I44950J0D01*
G01*
X8878710D01*
G75*
G02*
X8841180Y3175000I114470J100000D01*
G01*
G75*
G02*
X8968600Y3325000I152000J0D01*
G01*
X3188130D01*
G75*
G02*
X3098230I-44950J0D01*
G01*
X1717760D01*
G75*
G02*
X1845180Y3175000I-24580J-150000D01*
G01*
G37*
X9081290Y3325000D02*
G36*
X9081290Y3325000D02*
X9017760D01*
G75*
G02*
X9118180Y3261480I-24580J-150000D01*
G01*
Y3313050D01*
G75*
G02*
X9081290Y3325000I-300J61990D01*
G01*
G37*
X9107650Y3075000D02*
G36*
X9107650Y3075000D02*
X9118180D01*
Y3088520D01*
G75*
G02*
X9107650Y3075000I-125000J86490D01*
G01*
G37*
X1568180Y3774950D02*
G36*
X1568180Y3774950D02*
Y3325000D01*
X1668600D01*
G75*
G02*
X1717760I24580J-150020D01*
G01*
X3098230D01*
G75*
G02*
X3188130I44950J0D01*
G01*
X8968600D01*
G75*
G02*
X9017760I24580J-150020D01*
G01*
X9081290D01*
G75*
G02*
X9055880Y3375050I36590J50050D01*
G01*
G75*
G02*
X9060880Y3399440I61990J0D01*
G01*
Y3774950D01*
X9058130D01*
G75*
G02*
X8828230I-114950J0D01*
G01*
X8558130D01*
G75*
G02*
X8328230I-114950J0D01*
G01*
X2358130D01*
G75*
G02*
X2128230I-114950J100D01*
G01*
X1858130D01*
G75*
G02*
X1628230I-114950J100D01*
G01*
X1568180D01*
G37*
Y4092850D02*
G36*
X1568180Y4092850D02*
Y3774950D01*
X1628230D01*
G75*
G02*
Y3775050I116930J50D01*
G01*
G75*
G02*
X1858130I114950J0D01*
G01*
G75*
G02*
Y3774950I-116930J-50D01*
G01*
X2128230D01*
G75*
G02*
Y3775050I116930J50D01*
G01*
G75*
G02*
X2358130I114950J0D01*
G01*
G75*
G02*
Y3774950I-116930J-50D01*
G01*
X8328230D01*
G75*
G02*
X8558130I114950J0D01*
G01*
X8828230D01*
G75*
G02*
X9058130I114950J0D01*
G01*
X9060880D01*
Y4092850D01*
X3837700D01*
Y4067960D01*
G75*
G02*
X3855000Y4025000I-44700J-42970D01*
G01*
G75*
G02*
X3793000Y3963000I-62000J0D01*
G01*
G75*
G02*
X3731000Y4025000I0J62000D01*
G01*
G75*
G02*
X3748300Y4067960I62000J-10D01*
G01*
Y4092850D01*
X3685780D01*
Y4074720D01*
G75*
G02*
X3443000Y3831940I-242780J0D01*
G01*
X2843000D01*
G75*
G02*
X2600220Y4074720I0J242780D01*
G01*
Y4092850D01*
X1568180D01*
G37*
Y4112950D02*
G36*
X1568180Y4112950D02*
Y4092850D01*
X2600220D01*
Y4465000D01*
X1625480D01*
Y4199340D01*
G75*
G02*
X1630480Y4174950I-56990J-24390D01*
G01*
G75*
G02*
X1568180Y4112950I-62000J0D01*
G01*
G37*
X3685780Y4465000D02*
G36*
X3685780Y4465000D02*
Y4092850D01*
X3748300D01*
Y4117740D01*
G75*
G02*
X3731000Y4160700I44700J42970D01*
G01*
G75*
G02*
X3855000I62000J0D01*
G01*
G75*
G02*
X3837700Y4117740I-62000J10D01*
G01*
Y4092850D01*
X9060880D01*
Y4250660D01*
G75*
G02*
X9055880Y4275050I56990J24390D01*
G01*
G75*
G02*
X9060880Y4299440I61990J0D01*
G01*
Y4465000D01*
X7615230D01*
G75*
G02*
X7510270Y4420300I-62000J0D01*
G01*
X7026140D01*
G75*
G02*
X6921180Y4465000I-42960J44700D01*
G01*
X4464230D01*
Y4210180D01*
G75*
G02*
X4475180Y4175000I-51050J-35180D01*
G01*
G75*
G02*
X4413180Y4113000I-62000J0D01*
G01*
G75*
G02*
X4351180Y4175000I0J62000D01*
G01*
G75*
G02*
X4362130Y4210180I62000J0D01*
G01*
Y4465000D01*
X3685780D01*
G37*
X1625480Y4674950D02*
G36*
X1625480Y4674950D02*
Y4465000D01*
X2600220D01*
Y4674720D01*
G75*
G02*
Y4674950I244040J120D01*
G01*
X2358130D01*
G75*
G02*
X2128230I-114950J100D01*
G01*
X1858130D01*
G75*
G02*
X1628230I-114950J100D01*
G01*
X1625480D01*
G37*
X3685780Y4674720D02*
G36*
X3685780Y4674720D02*
Y4465000D01*
X4362130D01*
Y4674950D01*
X3685780D01*
G75*
G02*
Y4674720I-244040J-110D01*
G01*
G37*
X4464230Y4674950D02*
G36*
X4464230Y4674950D02*
Y4465000D01*
X6921180D01*
G75*
G02*
X7026140Y4509700I62000J0D01*
G01*
X7510270D01*
G75*
G02*
X7615230Y4465000I42960J-44700D01*
G01*
X9060880D01*
Y4674950D01*
X9058130D01*
G75*
G02*
X8828230I-114950J0D01*
G01*
X8558130D01*
G75*
G02*
X8328230I-114950J0D01*
G01*
X4464230D01*
G37*
X1625480Y4825300D02*
G36*
X1625480Y4825300D02*
Y4674950D01*
X1628230D01*
G75*
G02*
Y4675050I116930J50D01*
G01*
G75*
G02*
X1858130I114950J0D01*
G01*
G75*
G02*
Y4674950I-116930J-50D01*
G01*
X2128230D01*
G75*
G02*
Y4675050I116930J50D01*
G01*
G75*
G02*
X2358130I114950J0D01*
G01*
G75*
G02*
Y4674950I-116930J-50D01*
G01*
X2600220D01*
G75*
G02*
X2652560Y4825300I242790J-230D01*
G01*
X1625480D01*
G37*
X3633440D02*
G36*
X3633440Y4825300D02*
G75*
G02*
X3685780Y4674950I-190450J-150580D01*
G01*
X4362130D01*
Y4825300D01*
X3633440D01*
G37*
X4464230D02*
G36*
X4464230Y4825300D02*
Y4674950D01*
X8328230D01*
G75*
G02*
X8558130I114950J0D01*
G01*
X8828230D01*
G75*
G02*
X9058130I114950J0D01*
G01*
X9060880D01*
Y4825300D01*
X7638180D01*
G75*
G02*
X7548280I-44950J0D01*
G01*
X7538180D01*
G75*
G02*
X7448280I-44950J0D01*
G01*
X7438180D01*
G75*
G02*
X7348280I-44950J0D01*
G01*
X7338180D01*
G75*
G02*
X7248280I-44950J0D01*
G01*
X4464230D01*
G37*
X1625480Y4925300D02*
G36*
X1625480Y4925300D02*
Y4825300D01*
X2652560D01*
G75*
G02*
X2843000Y4917500I190440J-150590D01*
G01*
X3443000D01*
G75*
G02*
X3633440Y4825300I0J-242790D01*
G01*
X4362130D01*
Y4919820D01*
G75*
G02*
X4358760Y4925300I51050J35170D01*
G01*
X1625480D01*
G37*
X4464230Y4919820D02*
G36*
X4464230Y4919820D02*
Y4825300D01*
X7248280D01*
G75*
G02*
X7338180I44950J0D01*
G01*
X7348280D01*
G75*
G02*
X7438180I44950J0D01*
G01*
X7448280D01*
G75*
G02*
X7538180I44950J0D01*
G01*
X7548280D01*
G75*
G02*
X7638180I44950J0D01*
G01*
X9060880D01*
Y4925300D01*
X7638180D01*
G75*
G02*
X7548280I-44950J0D01*
G01*
X7538180D01*
G75*
G02*
X7448280I-44950J0D01*
G01*
X7438180D01*
G75*
G02*
X7348280I-44950J0D01*
G01*
X7338180D01*
G75*
G02*
X7248280I-44950J0D01*
G01*
X4467600D01*
G75*
G02*
X4464230Y4919820I-54420J29690D01*
G01*
G37*
X1625480Y5050560D02*
G36*
X1625480Y5050560D02*
Y4925300D01*
X4358760D01*
G75*
G02*
X4351180Y4955000I54410J29700D01*
G01*
G75*
G02*
X4475180I62000J0D01*
G01*
G75*
G02*
X4467600Y4925300I-61990J0D01*
G01*
X7248280D01*
G75*
G02*
X7338180I44950J0D01*
G01*
X7348280D01*
G75*
G02*
X7438180I44950J0D01*
G01*
X7448280D01*
G75*
G02*
X7538180I44950J0D01*
G01*
X7548280D01*
G75*
G02*
X7638180I44950J0D01*
G01*
X9060880D01*
Y5125000D01*
X7742910D01*
G75*
G02*
X7142930I-299990J750030D01*
G01*
X3188130D01*
G75*
G02*
X3098230I-44950J0D01*
G01*
X1625480D01*
Y5099340D01*
G75*
G02*
X1630480Y5074950I-56990J-24390D01*
G01*
G75*
G02*
X1625480Y5050560I-61990J0D01*
G01*
G37*
Y5535650D02*
G36*
X1625480Y5535650D02*
Y5125000D01*
X3098230D01*
G75*
G02*
X3188130I44950J0D01*
G01*
X7142930D01*
G75*
G02*
X6709890Y5535650I300000J750010D01*
G01*
X3682610D01*
G75*
G02*
X3443000Y5331940I-239620J39070D01*
G01*
X2843000D01*
G75*
G02*
X2603390Y5535650I10J242780D01*
G01*
X2351170D01*
G75*
G02*
X2135190I-107990J39400D01*
G01*
X1851170D01*
G75*
G02*
X1635190I-107990J39400D01*
G01*
X1625480D01*
G37*
X8175960D02*
G36*
X8175960Y5535650D02*
G75*
G02*
X7742910Y5125000I-733050J339370D01*
G01*
X9060880D01*
Y5535650D01*
X8596930D01*
G75*
G02*
X8467930I-64500J0D01*
G01*
X8175960D01*
G37*
X1625480Y5875000D02*
G36*
X1625480Y5875000D02*
Y5535650D01*
X1635190D01*
G75*
G02*
X1628230Y5575050I107990J39390D01*
G01*
G75*
G02*
X1858130I114950J0D01*
G01*
G75*
G02*
X1851170Y5535650I-114950J-10D01*
G01*
X2135190D01*
G75*
G02*
X2128230Y5575050I107990J39390D01*
G01*
G75*
G02*
X2358130I114950J0D01*
G01*
G75*
G02*
X2351170Y5535650I-114950J-10D01*
G01*
X2603390D01*
G75*
G02*
X2600220Y5574720I239630J39110D01*
G01*
Y5875000D01*
X1625480D01*
G37*
X3685780Y5574720D02*
G36*
X3685780Y5574720D02*
G75*
G02*
X3682610Y5535650I-242800J40D01*
G01*
X6709890D01*
G75*
G02*
X6635460Y5852370I733060J339380D01*
G01*
G75*
G02*
X6631180Y5875000I57690J22630D01*
G01*
X3685780D01*
Y5574720D01*
G37*
X8250700Y5875000D02*
G36*
X8250700Y5875000D02*
G75*
G02*
X8175960Y5535650I-807780J0D01*
G01*
X8467930D01*
G75*
G02*
X8596930I64500J0D01*
G01*
X9060880D01*
Y5875000D01*
X8250700D01*
G37*
X1625480Y5950560D02*
G36*
X1625480Y5950560D02*
Y5875000D01*
X2600220D01*
Y6113650D01*
X1630180D01*
Y5981040D01*
G75*
G02*
X1630480Y5974930I-61530J-6080D01*
G01*
G75*
G02*
X1625480Y5950560I-61850J-10D01*
G01*
G37*
X3685780Y6113650D02*
G36*
X3685780Y6113650D02*
Y5875000D01*
X6631180D01*
G75*
G02*
X6635460Y5897630I61970J0D01*
G01*
G75*
G02*
X6671200Y6113650I807490J-22630D01*
G01*
X3685780D01*
G37*
X8214640D02*
G36*
X8214640Y6113650D02*
G75*
G02*
X8250700Y5875000I-771760J-238660D01*
G01*
X9060880D01*
Y6113650D01*
X8596930D01*
G75*
G02*
X8467930I-64500J0D01*
G01*
X8214640D01*
G37*
X1630180Y6368000D02*
G36*
X1630180Y6368000D02*
Y6113650D01*
X2600220D01*
Y6174720D01*
G75*
G02*
X2843000Y6417500I242780J0D01*
G01*
X3443000D01*
G75*
G02*
X3685780Y6174720I0J-242780D01*
G01*
Y6113650D01*
X6671200D01*
G75*
G02*
X6902090Y6475000I771740J-238670D01*
G01*
X6180180D01*
Y6265000D01*
G75*
G02*
X6163490Y6224690I-57070J20D01*
G01*
X6103490Y6164690D01*
G75*
G02*
X6063130Y6148000I-40320J40360D01*
G01*
X4643230D01*
G75*
G02*
X4602870Y6164690I-40J57050D01*
G01*
X4532870Y6234690D01*
G75*
G02*
X4516180Y6275000I40380J40330D01*
G01*
Y6475000D01*
X4149840D01*
G75*
G02*
X4113180Y6463000I-36660J50010D01*
G01*
G75*
G02*
X4076520Y6475000I0J62010D01*
G01*
X3188130D01*
G75*
G02*
X3098230I-44950J0D01*
G01*
X1950180D01*
G75*
G02*
X1933490Y6434690I-57070J20D01*
G01*
X1883490Y6384690D01*
G75*
G02*
X1843130Y6368000I-40320J40360D01*
G01*
X1630180D01*
G37*
X7983750Y6475000D02*
G36*
X7983750Y6475000D02*
G75*
G02*
X8214640Y6113650I-540850J-600020D01*
G01*
X8467930D01*
G75*
G02*
X8596930I64500J0D01*
G01*
X9060880D01*
Y6356690D01*
X9049570Y6368000D01*
X8833230D01*
G75*
G02*
X8792870Y6384690I-40J57050D01*
G01*
X8752870Y6424690D01*
G75*
G02*
X8736180Y6465000I40380J40330D01*
G01*
Y6475000D01*
X7983750D01*
G37*
X1950180Y6691390D02*
G36*
X1950180Y6691390D02*
Y6475000D01*
X3098230D01*
G75*
G02*
X3188130I44950J0D01*
G01*
X4076520D01*
G75*
G02*
X4051180Y6525000I36660J50000D01*
G01*
G75*
G02*
X4068480Y6567960I62000J-10D01*
G01*
Y6693000D01*
X1951790D01*
X1950180Y6691390D01*
G37*
X4157880Y6693000D02*
G36*
X4157880Y6693000D02*
Y6567960D01*
G75*
G02*
X4175180Y6525000I-44700J-42970D01*
G01*
G75*
G02*
X4149840Y6475000I-62000J0D01*
G01*
X4516180D01*
Y6681390D01*
X4504570Y6693000D01*
X4157880D01*
G37*
X6180180Y6671390D02*
G36*
X6180180Y6671390D02*
Y6475000D01*
X6902090D01*
G75*
G02*
X7983750I540830J-600020D01*
G01*
X8736180D01*
Y6693000D01*
X6201790D01*
X6180180Y6671390D01*
G37*
D02*
D12*
X2243180Y4675050D02*
Y3775050D01*
Y5125000D02*
Y4675050D01*
Y5575050D02*
Y5125000D01*
X3143180Y3325000D02*
Y3135000D01*
X3203180Y3075000D01*
X5343180D01*
X3143180Y3325000D02*
X2293180D01*
X2233180Y3385000D01*
Y3765050D01*
X2243180Y3775050D01*
X3143180Y4375020D02*
X3456000D01*
X3143180Y5875020D02*
X3556000D01*
X3143180Y6475000D02*
X2333180D01*
X2243180Y6385000D01*
Y5575050D01*
X4413180Y4955000D02*
Y4175000D01*
X5343180Y3075000D02*
X7433180D01*
X7443180Y3065000D01*
Y3775000D01*
X7293230Y4925300D02*
X7393230D01*
Y4825300D02*
X7293230D01*
X7393230Y4925300D02*
Y4825300D01*
X7443180Y3775000D02*
X8403230D01*
X8403280Y3774950D01*
X8443180D01*
X7493230Y4825300D02*
X7443230D01*
X7443180Y4825250D01*
Y4635000D01*
X7503180Y4575000D01*
X7603180D01*
X7643180Y4535000D01*
Y4395000D01*
X7583180Y4335000D01*
X7443180D01*
Y3775000D01*
X7493230Y4925300D02*
Y4825300D01*
X7545920Y6371000D02*
X7467130D01*
Y6028950D01*
X7443180Y5875000D01*
X7593230Y4825300D02*
X7493230D01*
X8443180Y4674950D02*
Y3774950D01*
D02*
D13*
X1568480Y4174950D03*
Y5074950D03*
Y5974950D03*
X3143180Y3325000D03*
Y4375020D03*
Y5125000D03*
Y5875020D03*
Y6475000D03*
X3793000Y4025000D03*
Y4160700D03*
X4113180Y6525000D03*
X4413180Y4175000D03*
Y4955000D03*
X5343180Y3075000D03*
X6693180Y5875000D03*
X6983180Y4465000D03*
X7293230Y4825300D03*
Y4925300D03*
X7393230Y4825300D03*
Y4925300D03*
X7493230Y4825300D03*
Y4925300D03*
X7553230Y4465000D03*
X7593230Y4825300D03*
Y4925300D03*
X9117880Y3375050D03*
Y4275050D03*
D02*
D14*
X1743180Y3775050D03*
Y4675050D03*
Y5575050D03*
X2243180Y3775050D03*
Y4675050D03*
Y5575050D03*
X8443180Y3774950D03*
Y4674950D03*
X8943180Y3774950D03*
Y4674950D03*
D02*
D16*
X3793000Y4160700D02*
Y4025000D01*
X4113180Y6525000D02*
Y6765000D01*
X7553230Y4465000D02*
X6983180D01*
D02*
D17*
X7443180Y5875000D03*
D02*
D24*
X1568480Y5074950D02*
Y4174950D01*
Y5974950D02*
Y5074950D01*
X3143180Y5125000D02*
X2243180D01*
X4113180Y6765000D02*
X1943180D01*
X1893180Y6715000D01*
Y6475000D01*
X1843180Y6425000D01*
X1603180D01*
X1573180Y6395000D01*
Y5979650D01*
X1568480Y5974950D01*
X7442920Y6625000D02*
G75*
G03*
Y5125000I0J-750000D01*
G01*
G75*
G03*
Y6625000I0J750000D01*
G01*
G36*
X7442920Y6625000D02*
G75*
G03*
Y5125000I0J-750000D01*
G01*
G75*
G03*
Y6625000I0J750000D01*
G01*
G37*
X9117880Y4275050D02*
Y6380300D01*
X9073180Y6425000D01*
X8833180D01*
X8793180Y6465000D01*
Y6725000D01*
X8763180Y6755000D01*
X6183180D01*
X6123180Y6695000D01*
Y6265000D01*
X6063180Y6205000D01*
X4643180D01*
X4573180Y6275000D01*
Y6705000D01*
X4513180Y6765000D01*
X4113180D01*
X9117880Y4275050D02*
Y3375050D01*
D02*
D114*
X1693180Y3175000D03*
Y6625000D03*
X8993180Y3175000D03*
Y6625000D03*
X0Y0D02*
M02*
