G04 DesignSpark PCB Gerber Version 10.0 Build 5299*
G04 #@! TF.Part,Single*
G04 #@! TF.FileFunction,Drillmap*
G04 #@! TF.FilePolarity,Positive*
%FSLAX35Y35*%
%MOMM*%
%ADD70C,0.12700*%
G04 #@! TA.AperFunction,ViaPad*
%ADD19C,2.54000*%
G04 #@! TD.AperFunction*
X0Y0D02*
D02*
D19*
X1568480Y4174950D03*
Y5074950D03*
Y5974950D03*
X1693180Y3175000D03*
Y6625000D03*
X1743180Y3775050D03*
Y4675050D03*
Y5575050D03*
X2243180Y3775050D03*
Y4675050D03*
Y5575050D03*
X3143180Y3325000D03*
Y4375020D03*
Y5125000D03*
Y5875020D03*
Y6475000D03*
X3793000Y4025000D03*
Y4160700D03*
X4113180Y6525000D03*
X4413180Y4175000D03*
Y4955000D03*
X5343180Y3075000D03*
X6693180Y5875000D03*
X6983180Y4465000D03*
X7293230Y4825300D03*
Y4925300D03*
X7393230Y4825300D03*
Y4925300D03*
X7443180Y5875000D03*
X7493230Y4825300D03*
Y4925300D03*
X7553230Y4465000D03*
X7593230Y4825300D03*
Y4925300D03*
X8443180Y3774950D03*
Y4674950D03*
X8532430Y5535650D03*
Y6113650D03*
X8943180Y3774950D03*
Y4674950D03*
X8993180Y3175000D03*
Y6625000D03*
X9117880Y3375050D03*
Y4275050D03*
D02*
D70*
X1822480Y4325760D02*
X1862170Y4421010D01*
X1901860Y4325760D01*
X1838360Y4365450D02*
X1885980D01*
X1822480Y5225760D02*
X1862170Y5321010D01*
X1901860Y5225760D01*
X1838360Y5265450D02*
X1885980D01*
X1822480Y6125760D02*
X1862170Y6221010D01*
X1901860Y6125760D01*
X1838360Y6165450D02*
X1885980D01*
X2002740Y3365500D02*
X2026560D01*
Y3357560D01*
X2018620Y3341690D01*
X2010680Y3333750D01*
X1994810Y3325810D01*
X1978930D01*
X1963060Y3333750D01*
X1955120Y3341690D01*
X1947180Y3357560D01*
Y3389310D01*
X1955120Y3405190D01*
X1963060Y3413130D01*
X1978930Y3421060D01*
X1994810D01*
X2010680Y3413130D01*
X2018620Y3405190D01*
X2026560Y3389310D01*
X2002740Y6815500D02*
X2026560D01*
Y6807560D01*
X2018620Y6791690D01*
X2010680Y6783750D01*
X1994810Y6775810D01*
X1978930D01*
X1963060Y6783750D01*
X1955120Y6791690D01*
X1947180Y6807560D01*
Y6839310D01*
X1955120Y6855190D01*
X1963060Y6863130D01*
X1978930Y6871060D01*
X1994810D01*
X2010680Y6863130D01*
X2018620Y6855190D01*
X2026560Y6839310D01*
X2020990Y3925860D02*
X2052740D01*
X2036870D02*
Y4021110D01*
X2020990D02*
X2052740D01*
X2020990Y4825860D02*
X2052740D01*
X2036870D02*
Y4921110D01*
X2020990D02*
X2052740D01*
X2020990Y5725860D02*
X2052740D01*
X2036870D02*
Y5821110D01*
X2020990D02*
X2052740D01*
X2520990Y3925860D02*
X2552740D01*
X2536870D02*
Y4021110D01*
X2520990D02*
X2552740D01*
X2520990Y4825860D02*
X2552740D01*
X2536870D02*
Y4921110D01*
X2520990D02*
X2552740D01*
X2520990Y5725860D02*
X2552740D01*
X2536870D02*
Y5821110D01*
X2520990D02*
X2552740D01*
X3397180Y3475810D02*
X3436870Y3571060D01*
X3476560Y3475810D01*
X3413060Y3515500D02*
X3460680D01*
X3397180Y4525830D02*
X3436870Y4621080D01*
X3476560Y4525830D01*
X3413060Y4565520D02*
X3460680D01*
X3397180Y5275810D02*
X3436870Y5371060D01*
X3476560Y5275810D01*
X3413060Y5315500D02*
X3460680D01*
X3397180Y6025830D02*
X3436870Y6121080D01*
X3476560Y6025830D01*
X3413060Y6065520D02*
X3460680D01*
X3397180Y6625810D02*
X3436870Y6721060D01*
X3476560Y6625810D01*
X3413060Y6665500D02*
X3460680D01*
X4047000Y4175810D02*
X4086690Y4271060D01*
X4126380Y4175810D01*
X4062880Y4215500D02*
X4110500D01*
X4047000Y4311510D02*
X4086690Y4406760D01*
X4126380Y4311510D01*
X4062880Y4351200D02*
X4110500D01*
X4367180Y6675810D02*
X4406870Y6771060D01*
X4446560Y6675810D01*
X4383060Y6715500D02*
X4430680D01*
X4667180Y4325810D02*
X4706870Y4421060D01*
X4746560Y4325810D01*
X4683060Y4365500D02*
X4730680D01*
X4667180Y5105810D02*
X4706870Y5201060D01*
X4746560Y5105810D01*
X4683060Y5145500D02*
X4730680D01*
X5597180Y3225810D02*
X5636870Y3321060D01*
X5676560Y3225810D01*
X5613060Y3265500D02*
X5660680D01*
X6947180Y6025810D02*
X6986870Y6121060D01*
X7026560Y6025810D01*
X6963060Y6065500D02*
X7010680D01*
X7237180Y4615810D02*
X7276870Y4711060D01*
X7316560Y4615810D01*
X7253060Y4655500D02*
X7300680D01*
X7547230Y4976110D02*
X7586920Y5071360D01*
X7626610Y4976110D01*
X7563110Y5015800D02*
X7610730D01*
X7547230Y5076110D02*
X7586920Y5171360D01*
X7626610Y5076110D01*
X7563110Y5115800D02*
X7610730D01*
X7647230Y4976110D02*
X7686920Y5071360D01*
X7726610Y4976110D01*
X7663110Y5015800D02*
X7710730D01*
X7647230Y5076110D02*
X7686920Y5171360D01*
X7726610Y5076110D01*
X7663110Y5115800D02*
X7710730D01*
X7752740Y6065500D02*
X7776560D01*
Y6057560D01*
X7768620Y6041690D01*
X7760680Y6033750D01*
X7744810Y6025810D01*
X7728930D01*
X7713060Y6033750D01*
X7705120Y6041690D01*
X7697180Y6057560D01*
Y6089310D01*
X7705120Y6105190D01*
X7713060Y6113130D01*
X7728930Y6121060D01*
X7744810D01*
X7760680Y6113130D01*
X7768620Y6105190D01*
X7776560Y6089310D01*
X7747230Y4976110D02*
X7786920Y5071360D01*
X7826610Y4976110D01*
X7763110Y5015800D02*
X7810730D01*
X7747230Y5076110D02*
X7786920Y5171360D01*
X7826610Y5076110D01*
X7763110Y5115800D02*
X7810730D01*
X7807230Y4615810D02*
X7846920Y4711060D01*
X7886610Y4615810D01*
X7823110Y4655500D02*
X7870730D01*
X7847230Y4976110D02*
X7886920Y5071360D01*
X7926610Y4976110D01*
X7863110Y5015800D02*
X7910730D01*
X7847230Y5076110D02*
X7886920Y5171360D01*
X7926610Y5076110D01*
X7863110Y5115800D02*
X7910730D01*
X8720990Y3925760D02*
X8752740D01*
X8736870D02*
Y4021010D01*
X8720990D02*
X8752740D01*
X8720990Y4825760D02*
X8752740D01*
X8736870D02*
Y4921010D01*
X8720990D02*
X8752740D01*
X8786430Y5686460D02*
Y5781710D01*
X8826120Y5734090D01*
X8865810Y5781710D01*
Y5686460D01*
X8786430Y6264460D02*
Y6359710D01*
X8826120Y6312090D01*
X8865810Y6359710D01*
Y6264460D01*
X9220990Y3925760D02*
X9252740D01*
X9236870D02*
Y4021010D01*
X9220990D02*
X9252740D01*
X9220990Y4825760D02*
X9252740D01*
X9236870D02*
Y4921010D01*
X9220990D02*
X9252740D01*
X9302740Y3365500D02*
X9326560D01*
Y3357560D01*
X9318620Y3341690D01*
X9310680Y3333750D01*
X9294810Y3325810D01*
X9278930D01*
X9263060Y3333750D01*
X9255120Y3341690D01*
X9247180Y3357560D01*
Y3389310D01*
X9255120Y3405190D01*
X9263060Y3413130D01*
X9278930Y3421060D01*
X9294810D01*
X9310680Y3413130D01*
X9318620Y3405190D01*
X9326560Y3389310D01*
X9302740Y6815500D02*
X9326560D01*
Y6807560D01*
X9318620Y6791690D01*
X9310680Y6783750D01*
X9294810Y6775810D01*
X9278930D01*
X9263060Y6783750D01*
X9255120Y6791690D01*
X9247180Y6807560D01*
Y6839310D01*
X9255120Y6855190D01*
X9263060Y6863130D01*
X9278930Y6871060D01*
X9294810D01*
X9310680Y6863130D01*
X9318620Y6855190D01*
X9326560Y6839310D01*
X9371880Y3525860D02*
X9411570Y3621110D01*
X9451260Y3525860D01*
X9387760Y3565550D02*
X9435380D01*
X9371880Y4425860D02*
X9411570Y4521110D01*
X9451260Y4425860D01*
X9387760Y4465550D02*
X9435380D01*
X0Y0D02*
M02*
