G05
M48
METRIC,TZ
FMAT,2
T1C000.30000
T2C000.65000
T3C001.40000
T4C002.00000
%
T001
X15.68480Y41.74950
X15.68480Y50.74950
X15.68480Y59.74950
X31.43180Y33.25000
X31.43180Y43.75020
X31.43180Y51.25000
X31.43180Y58.75020
X31.43180Y64.75000
X37.93000Y40.25000
X37.93000Y41.60700
X41.13180Y65.25000
X44.13180Y41.75000
X44.13180Y49.55000
X53.43180Y30.75000
X66.93180Y58.75000
X69.83180Y44.65000
X72.93230Y48.25300
X72.93230Y49.25300
X73.93230Y48.25300
X73.93230Y49.25300
X74.93230Y48.25300
X74.93230Y49.25300
X75.53230Y44.65000
X75.93230Y48.25300
X75.93230Y49.25300
X91.17880Y33.75050
X91.17880Y42.75050
T002
X85.32430Y55.35650
X85.32430Y61.13650
T003
X17.43180Y37.75050
X17.43180Y46.75050
X17.43180Y55.75050
X22.43180Y37.75050
X22.43180Y46.75050
X22.43180Y55.75050
X84.43180Y37.74950
X84.43180Y46.74950
X89.43180Y37.74950
X89.43180Y46.74950
T004
X16.93180Y31.75000
X16.93180Y66.25000
X74.43180Y58.75000
X89.93180Y31.75000
X89.93180Y66.25000
M30
