G04 DesignSpark PCB Gerber Version 10.0 Build 5299*
G04 #@! TF.Part,Single*
G04 #@! TF.FileFunction,Soldermask,Top*
G04 #@! TF.FilePolarity,Negative*
%FSLAX35Y35*%
%MOMM*%
G04 #@! TA.AperFunction,SMDPad,CuDef*
%ADD141R,0.36000X0.96000*%
%ADD99R,0.76000X1.31000*%
%ADD118R,0.76000X1.41000*%
%ADD140R,1.01000X1.21000*%
%ADD100R,1.16000X1.25000*%
%ADD98R,1.26000X1.86000*%
%ADD91R,2.16000X2.34000*%
%ADD143R,1.96000X1.96000*%
G04 #@! TA.AperFunction,ComponentPad*
%ADD90C,0.48500*%
G04 #@! TA.AperFunction,WasherPad*
%ADD18C,2.76000*%
G04 #@! TA.AperFunction,SMDPad,CuDef*
%ADD142R,0.96000X0.36000*%
%ADD89R,1.31000X0.46000*%
%ADD97R,0.76000X0.51000*%
%ADD125R,1.96000X0.61000*%
%ADD109R,1.68500X0.81000*%
%ADD137R,1.46000X0.96000*%
%ADD102R,1.36000X1.06000*%
%ADD96R,1.25000X1.16000*%
%ADD92R,1.76000X1.16000*%
%ADD139R,1.68400X1.55700*%
%ADD93R,1.76000X1.66000*%
%ADD101R,2.86000X1.76000*%
%ADD129R,2.75080X1.76020*%
%ADD138R,3.16000X2.26000*%
G04 #@! TD.AperFunction*
X0Y0D02*
D02*
D18*
X7443180Y5875000D03*
D02*
D89*
X8424930Y5489650D03*
Y5519650D03*
Y5569650D03*
Y5599650D03*
Y5649650D03*
Y5699650D03*
Y5749650D03*
Y5799650D03*
Y5849650D03*
Y5899650D03*
Y5949650D03*
Y5999650D03*
Y6049650D03*
Y6079650D03*
Y6129650D03*
Y6159650D03*
D02*
D90*
X8532430Y5535650D03*
Y6113650D03*
D02*
D91*
X8482430Y5313650D03*
Y6335650D03*
X8875430Y5313650D03*
Y6335650D03*
D02*
D92*
X2008180Y4075000D03*
Y4975000D03*
Y5875000D03*
X8678180Y3475000D03*
Y4375000D03*
D02*
D93*
X1638180Y3500000D03*
Y4050000D03*
Y4400000D03*
Y4950000D03*
Y5300000D03*
Y5850000D03*
X2008180Y3500000D03*
Y4400000D03*
Y5300000D03*
X2378180Y3500000D03*
Y4050000D03*
Y4400000D03*
Y4950000D03*
Y5300000D03*
Y5850000D03*
X8308180Y3500000D03*
Y4050000D03*
Y4400000D03*
Y4950000D03*
X8678180Y4050000D03*
Y4950000D03*
X9048180Y3500000D03*
Y4050000D03*
Y4400000D03*
Y4950000D03*
D02*
D96*
X2954100Y4074720D03*
Y4724720D03*
Y5574720D03*
Y6224720D03*
X3131900Y4074720D03*
Y4724720D03*
Y5574720D03*
Y6224720D03*
X3954100Y5025000D03*
X4004050Y3374700D03*
X4131900Y5025000D03*
X4181850Y3374700D03*
X4254280Y6525000D03*
X4432080D03*
X5254280Y3475000D03*
X5432080D03*
X6454180Y5550000D03*
Y6200000D03*
X6631980Y5550000D03*
Y6200000D03*
X7354280Y3725000D03*
X7532080D03*
D02*
D97*
X7338180Y4560000D03*
Y4625000D03*
Y4690000D03*
X7548180Y4560000D03*
Y4625000D03*
Y4690000D03*
D02*
D98*
X7443180Y4625000D03*
D02*
D99*
X2948000Y4269720D03*
Y4529720D03*
Y5769720D03*
Y6029720D03*
X3043000Y4269720D03*
Y4529720D03*
Y5769720D03*
Y6029720D03*
X3138000Y4269720D03*
Y4529720D03*
Y5769720D03*
Y6029720D03*
X3148180Y3445000D03*
Y3705000D03*
X3243180D03*
X3338180Y3445000D03*
Y3705000D03*
X6448080Y5770000D03*
Y6030000D03*
X6543080Y5770000D03*
Y6030000D03*
X6638080Y5770000D03*
Y6030000D03*
D02*
D100*
X2943180Y3536100D03*
Y3713900D03*
X3543180Y3536100D03*
Y3713900D03*
Y6186100D03*
Y6363900D03*
X3917950Y3685800D03*
Y3863600D03*
X3918000Y4586100D03*
Y4763900D03*
X4417950Y4310800D03*
Y4488600D03*
X4418130Y3861080D03*
Y4038880D03*
X4843180Y2936100D03*
Y3113900D03*
X7043180Y5786100D03*
Y5963900D03*
X7193180Y4486100D03*
Y4663900D03*
X7693180Y4486100D03*
Y4663900D03*
D02*
D101*
X7443180Y5615000D03*
Y6135000D03*
D02*
D102*
X4703180Y4225000D03*
Y4375000D03*
Y5875000D03*
Y6025000D03*
X5983180Y4675000D03*
Y6025000D03*
D02*
D109*
X5071980Y2884500D03*
Y3011500D03*
Y3138500D03*
Y3265500D03*
X5614380Y2884500D03*
Y3011500D03*
Y3138500D03*
Y3265500D03*
D02*
D118*
X7358180Y4160000D03*
X7453180Y3950000D03*
X7548180Y4160000D03*
D02*
D125*
X3688250Y5232500D03*
Y5297500D03*
Y5362500D03*
Y5427500D03*
Y5492500D03*
Y5557500D03*
Y5622500D03*
Y5687500D03*
Y5752500D03*
Y5817500D03*
X4398250Y5232500D03*
Y5297500D03*
Y5362500D03*
Y5427500D03*
Y5492500D03*
Y5557500D03*
Y5622500D03*
Y5687500D03*
Y5752500D03*
Y5817500D03*
D02*
D129*
X3843180Y6104820D03*
Y6445180D03*
D02*
D137*
X6623180Y1612500D03*
Y1737500D03*
D02*
D138*
X6898180Y1357500D03*
Y1992500D03*
D02*
D139*
X4153650Y3574700D03*
X4153700Y4774700D03*
X4382250Y3574700D03*
X4382300Y4774700D03*
D02*
D140*
X4243180Y5995000D03*
Y6355000D03*
X4443180Y5995000D03*
Y6355000D03*
D02*
D141*
X3963000Y4024700D03*
Y4324700D03*
X4003000Y4024700D03*
Y4324700D03*
X4043000Y4024700D03*
Y4324700D03*
X4083000Y4024700D03*
Y4324700D03*
X4123000Y4024700D03*
Y4324700D03*
D02*
D142*
X3893000Y4094700D03*
Y4134700D03*
Y4174700D03*
Y4214700D03*
Y4254700D03*
X4193000Y4094700D03*
Y4134700D03*
Y4174700D03*
Y4214700D03*
Y4254700D03*
D02*
D143*
X4043000Y4174700D03*
X0Y0D02*
M02*
